<svg width="200" height="40" viewBox="0 0 200 40" fill="none" xmlns="http://www.w3.org/2000/svg">
<path d="M69.6263 6.4834H57.0776L56.0376 12.3057L67.3612 12.3193C72.9381 12.3193 74.5872 14.3472 74.5401 17.7138C74.5159 19.4385 73.7695 22.3539 73.4471 23.299C72.5876 25.8185 70.8225 28.6935 64.2034 28.6821L53.1961 28.6776L52.1538 34.5021H64.6744C69.0907 34.5021 70.9704 33.9877 72.9578 33.0669C77.3673 31.0276 79.9911 26.6687 81.0417 20.9802C82.6073 12.5093 80.6579 6.4834 69.6263 6.4834Z" fill="white"/>
<path d="M108.435 34.5159L109.32 29.4535H120.039C120.881 29.4535 121.472 28.9467 121.597 28.1033C121.766 27.2592 121.345 26.7532 120.503 26.7532H115.377C111.333 26.7532 109.396 24.391 110.112 20.3406C110.828 16.2901 113.608 13.9287 117.651 13.9287H129.297L128.371 18.9912H118.107C117.265 18.9912 116.675 19.4972 116.549 20.3406C116.38 21.1847 116.801 21.6907 117.644 21.6907H122.769C126.812 21.6907 128.75 24.0536 128.034 28.1033C127.319 32.153 124.58 34.5159 120.537 34.5159H108.435Z" fill="white"/>
<path d="M92.1092 34.515C85.4537 34.515 82.4627 30.8863 83.6423 24.2199C84.7801 17.5543 89.0765 13.9255 95.7313 13.9255H107.526L103.903 34.5158L92.1092 34.515ZM99.7751 18.9888H96.7409C93.1188 18.9888 90.9759 20.5919 90.3471 24.2199C89.6735 27.8487 91.0215 29.4518 94.6435 29.4518H97.9629L99.7751 18.9888Z" fill="white"/>
<path d="M143.914 34.515L146.02 22.5324C146.4 20.1695 145.442 19.1574 143.083 19.1574H139.729L137.033 34.515H130.206L135.142 6.4834H141.969L140.655 13.9293H145.768C151.749 13.9293 153.897 16.5453 152.844 22.5362L150.738 34.5188L143.914 34.515Z" fill="white"/>
<path d="M51.6624 17.5685C48.3756 17.5685 47.9046 19.7141 47.5936 21.0103C47.1862 22.7084 47.0527 23.3961 47.0527 23.3961H59.9011C63.1879 23.3961 63.6589 21.2504 63.9699 19.9542C64.3773 18.2561 64.5108 17.5685 64.5108 17.5685H51.6624Z" fill="white"/>
</svg>
