<svg width="59" height="40" viewBox="0 0 59 40" fill="none" xmlns="http://www.w3.org/2000/svg">
<rect width="58.3315" height="39.9941" rx="3.33323" fill="white"/>
<g clip-path="url(#clip0_1736_620)">
<path d="M16.0119 20.9268C15.379 23.4858 12.8012 25.0372 10.263 24.4007C7.72485 23.7643 6.17556 21.1721 6.80846 18.6196C7.44136 16.0606 10.0191 14.5092 12.5573 15.1457C15.1021 15.7755 16.6448 18.3677 16.0119 20.9268Z" fill="#F7931A"/>
<path d="M13.5 19.0911C13.5923 18.4547 13.111 18.1165 12.4583 17.8845L12.6693 17.0226L12.1485 16.89L11.9441 17.7254C11.8057 17.6922 11.6672 17.6591 11.5288 17.6259L11.7397 16.784L11.2189 16.6514L11.0079 17.5132C10.8959 17.4867 10.7838 17.4602 10.6783 17.4337L9.9597 17.2547L9.82125 17.8116C9.82125 17.8116 10.2102 17.8978 10.197 17.9044C10.408 17.9574 10.4476 18.0966 10.441 18.2094L10.197 19.1906C10.2102 19.1972 10.23 19.1972 10.2498 19.2104C10.23 19.2038 10.2168 19.2038 10.197 19.1972L9.85422 20.5695C9.82785 20.6358 9.76192 20.7286 9.61688 20.6955C9.62347 20.7021 9.24109 20.6027 9.24109 20.6027L8.98398 21.1994L9.66303 21.3717C9.78829 21.4049 9.91355 21.438 10.0322 21.4712L9.81466 22.3397L10.3355 22.4723L10.5465 21.6104C10.6915 21.6502 10.8233 21.6833 10.9618 21.7165L10.7508 22.5717L11.2717 22.7043L11.4892 21.8358C12.3792 22.0016 13.0451 21.9353 13.3286 21.1264C13.5527 20.4767 13.3154 20.0988 12.8473 19.8535C13.1769 19.7806 13.4341 19.5552 13.5 19.0911ZM12.3133 20.7684C12.1551 21.4181 11.0607 21.0668 10.7113 20.9806L10.9948 19.827C11.3508 19.9132 12.4781 20.0922 12.3133 20.7684ZM12.4715 19.0845C12.3265 19.6745 11.4167 19.3762 11.1266 19.3033L11.3837 18.2558C11.6804 18.3287 12.6298 18.4679 12.4715 19.0845Z" fill="white"/>
<path d="M20.574 17.8849C20.9564 17.8849 21.2926 17.9512 21.5695 18.0904C21.853 18.2297 22.0837 18.4153 22.2683 18.6473C22.4529 18.8794 22.5848 19.1578 22.6771 19.4694C22.7628 19.781 22.8089 20.1191 22.8089 20.4838C22.8089 21.0407 22.71 21.5644 22.5057 22.0616C22.3013 22.5589 22.0244 22.9898 21.6684 23.3544C21.319 23.7191 20.8971 24.0108 20.4224 24.2229C19.9411 24.4351 19.4203 24.5411 18.8599 24.5411C18.7874 24.5411 18.6621 24.5411 18.4775 24.5345C18.2995 24.5279 18.0886 24.5146 17.8578 24.4815C17.6271 24.4483 17.3765 24.4019 17.1194 24.3356C16.8623 24.2693 16.6118 24.1831 16.381 24.0704L18.4577 15.2927L20.3169 15.001L19.5719 18.1169C19.7301 18.044 19.8884 17.991 20.0532 17.9512C20.218 17.9114 20.3894 17.8849 20.574 17.8849ZM19.0115 23.0561C19.295 23.0561 19.5587 22.9898 19.8027 22.8506C20.0532 22.7113 20.2642 22.5323 20.4487 22.3003C20.6267 22.0683 20.7718 21.8097 20.8773 21.518C20.9828 21.2263 21.0355 20.9279 21.0355 20.6097C21.0355 20.2252 20.9696 19.9202 20.8443 19.7015C20.719 19.4827 20.4817 19.3766 20.1389 19.3766C20.0268 19.3766 19.8818 19.3965 19.7038 19.4363C19.5258 19.476 19.3609 19.5622 19.2159 19.6882L18.4248 22.9964C18.4709 23.0031 18.5171 23.0097 18.55 23.0229C18.583 23.0296 18.6226 23.0362 18.6621 23.0428C18.7017 23.0495 18.7478 23.0495 18.8072 23.0495C18.8665 23.0495 18.9258 23.0561 19.0115 23.0561Z" fill="#4D4D4D"/>
<path d="M24.7341 24.3752H22.9541L24.4572 18.0239H26.2439L24.7341 24.3752ZM25.6044 17.2483C25.3538 17.2483 25.1297 17.1753 24.9319 17.0228C24.7275 16.877 24.6286 16.645 24.6286 16.34C24.6286 16.1742 24.6616 16.0151 24.7275 15.8626C24.7935 15.7168 24.8858 15.5842 24.9978 15.4781C25.1099 15.372 25.2418 15.2859 25.3868 15.2196C25.5384 15.1533 25.6967 15.1201 25.8615 15.1201C26.112 15.1201 26.3362 15.193 26.5339 15.3455C26.7317 15.498 26.8372 15.7234 26.8372 16.0284C26.8372 16.2008 26.8042 16.3599 26.7383 16.5057C26.6724 16.6516 26.5801 16.7842 26.468 16.8903C26.3559 16.9963 26.2241 17.0825 26.079 17.1488C25.9274 17.2151 25.7692 17.2483 25.6044 17.2483Z" fill="#4D4D4D"/>
<path d="M27.8061 16.4382L29.6653 16.1465L29.2104 18.0161H31.2014L30.8388 19.4879H28.8609L28.3335 21.7088C28.2874 21.8945 28.2544 22.0668 28.2478 22.2259C28.2412 22.3851 28.261 22.5243 28.3071 22.6436C28.3533 22.7629 28.439 22.8491 28.5643 22.9154C28.6895 22.9817 28.8675 23.0149 29.0983 23.0149C29.2895 23.0149 29.4741 22.995 29.6587 22.9618C29.8367 22.9287 30.0213 22.8757 30.2059 22.8094L30.3377 24.1883C30.1004 24.2745 29.8367 24.3541 29.5598 24.4204C29.2763 24.4867 28.9466 24.5198 28.5643 24.5198C28.0105 24.5198 27.582 24.4403 27.2787 24.2745C26.9754 24.1088 26.7579 23.8834 26.6326 23.5983C26.5073 23.3132 26.448 22.9817 26.4678 22.6171C26.481 22.2458 26.5403 21.8547 26.6326 21.4436L27.8061 16.4382Z" fill="#4D4D4D"/>
<path d="M31.1288 21.8362C31.1288 21.286 31.2146 20.7755 31.3926 20.2915C31.5706 19.8075 31.8211 19.3832 32.1507 19.0252C32.4804 18.6672 32.8759 18.3755 33.344 18.17C33.8121 17.9645 34.3329 17.8584 34.9131 17.8584C35.2757 17.8584 35.5987 17.8915 35.8822 17.9645C36.1657 18.0308 36.4228 18.1236 36.6601 18.2363L36.047 19.6352C35.8888 19.5689 35.7174 19.5092 35.546 19.4628C35.3746 19.4098 35.1636 19.3832 34.9131 19.3832C34.3197 19.3832 33.8516 19.5888 33.5022 19.9998C33.1528 20.4108 32.9814 20.9611 32.9814 21.6572C32.9814 22.0683 33.0671 22.3998 33.2451 22.6517C33.4231 22.9036 33.7462 23.0296 34.2208 23.0296C34.4516 23.0296 34.6757 23.0031 34.8933 22.9567C35.1108 22.9102 35.302 22.8506 35.4669 22.7777L35.5987 24.2163C35.3746 24.3025 35.124 24.382 34.8537 24.455C34.5834 24.5213 34.2538 24.5544 33.878 24.5544C33.3836 24.5544 32.9616 24.4815 32.6188 24.3356C32.276 24.1898 31.9925 23.9975 31.7683 23.7522C31.5442 23.5069 31.3794 23.2152 31.2805 22.8904C31.175 22.5456 31.1288 22.2009 31.1288 21.8362Z" fill="#4D4D4D"/>
<path d="M39.0205 24.5407C38.5986 24.5407 38.2294 24.4745 37.913 24.3485C37.6031 24.2225 37.346 24.0369 37.1416 23.8048C36.9373 23.5728 36.7856 23.2944 36.6801 22.9761C36.5747 22.6579 36.5219 22.3065 36.5219 21.922C36.5219 21.438 36.601 20.9541 36.7527 20.4701C36.9109 19.9861 37.1416 19.5552 37.4449 19.164C37.7482 18.7795 38.1239 18.4613 38.5591 18.216C39.0008 17.9707 39.5018 17.8447 40.0688 17.8447C40.4841 17.8447 40.8533 17.911 41.1698 18.037C41.4862 18.163 41.7433 18.3486 41.9477 18.5806C42.1521 18.8127 42.3037 19.0911 42.4092 19.4093C42.5147 19.7276 42.5674 20.0789 42.5674 20.4635C42.5674 20.9474 42.4883 21.4314 42.3367 21.9154C42.1851 22.3993 41.9609 22.8303 41.6642 23.2214C41.3676 23.606 40.9984 23.9242 40.5567 24.1695C40.1215 24.4214 39.6073 24.5407 39.0205 24.5407ZM39.9106 19.3762C39.6469 19.3762 39.4161 19.4557 39.2117 19.6082C39.014 19.7607 38.8425 19.953 38.7107 20.185C38.5722 20.4171 38.4734 20.6756 38.4008 20.9541C38.3349 21.2325 38.3019 21.4977 38.3019 21.743C38.3019 22.1474 38.3679 22.459 38.4931 22.6844C38.625 22.9098 38.8557 23.0225 39.192 23.0225C39.4557 23.0225 39.6864 22.943 39.8908 22.7905C40.0886 22.638 40.26 22.4458 40.3918 22.2137C40.5303 21.9817 40.6292 21.7231 40.7017 21.4447C40.7676 21.1662 40.8006 20.901 40.8006 20.6557C40.8006 20.2513 40.7347 19.9397 40.6094 19.7143C40.4775 19.4889 40.2468 19.3762 39.9106 19.3762Z" fill="#4D4D4D"/>
<path d="M44.5121 24.3752H42.7321L44.2353 18.0239H46.0285L44.5121 24.3752ZM45.3758 17.2483C45.1253 17.2483 44.9011 17.1753 44.7033 17.0228C44.5056 16.877 44.4001 16.645 44.4001 16.34C44.4001 16.1742 44.433 16.0151 44.5056 15.8626C44.5715 15.7168 44.6638 15.5842 44.7759 15.4781C44.8879 15.372 45.0198 15.2859 45.1648 15.2196C45.3099 15.1533 45.4681 15.1201 45.6395 15.1201C45.89 15.1201 46.1142 15.193 46.312 15.3455C46.5097 15.498 46.6152 15.7234 46.6152 16.0284C46.6152 16.2008 46.5823 16.3599 46.5097 16.5057C46.4438 16.6516 46.3515 16.7842 46.2394 16.8903C46.1274 16.9963 45.9955 17.0825 45.8505 17.1488C45.7054 17.2151 45.5472 17.2483 45.3758 17.2483Z" fill="#4D4D4D"/>
<path d="M47.3075 18.3096C47.4393 18.2699 47.5909 18.2234 47.7558 18.1704C47.9206 18.1174 48.1052 18.071 48.3095 18.0246C48.5139 17.9781 48.7447 17.945 48.9952 17.9118C49.2457 17.8853 49.5358 17.8721 49.8522 17.8721C50.7884 17.8721 51.4345 18.1439 51.7905 18.6942C52.1465 19.2444 52.2058 19.9936 51.9751 20.9416L51.1576 24.3692H49.371L50.1621 21.0146C50.2082 20.8024 50.2478 20.6035 50.2742 20.4046C50.3005 20.2057 50.3005 20.0334 50.2676 19.8875C50.2346 19.7417 50.1621 19.6157 50.0434 19.5229C49.9248 19.4301 49.7468 19.3836 49.5094 19.3836C49.2787 19.3836 49.0413 19.4102 48.804 19.4566L47.6371 24.3692H45.8439C45.8571 24.3758 47.3075 18.3096 47.3075 18.3096Z" fill="#4D4D4D"/>
</g>
<defs>
<clipPath id="clip0_1736_620">
<rect width="45.4475" height="9.54397" fill="white" transform="translate(6.66649 14.999)"/>
</clipPath>
</defs>
</svg>
