<svg width="59" height="40" viewBox="0 0 59 40" fill="none" xmlns="http://www.w3.org/2000/svg">
<rect x="0.663055" width="58.3315" height="39.9941" rx="3.33323" fill="white"/>
<g clip-path="url(#clip0_1736_643)">
<path d="M12.7491 13.4531C9.36704 13.4531 6.63483 16.1883 6.63483 19.5739C6.63483 20.254 6.73821 20.9046 6.94497 21.5107H8.77629V16.3657L12.7491 20.3427L16.7219 16.3657V21.5107H18.5532C18.7599 20.9046 18.8633 20.254 18.8633 19.5739C18.8633 16.2031 16.1311 13.4531 12.7491 13.4531Z" fill="#FF6600"/>
<path d="M10.1055 22.7673V19.5295L12.7491 22.176L15.3927 19.5295V22.7673H17.9772C16.8991 24.5267 14.9644 25.7095 12.7491 25.7095C10.5338 25.7095 8.59905 24.5267 7.52094 22.7673H10.1055ZM31.7269 18.1841C32.2438 18.7016 32.5096 19.3521 32.5096 20.0913C32.5096 20.8306 32.2585 21.4663 31.7416 21.9838C31.2247 22.5012 30.6044 22.7526 29.8808 22.7526C29.1128 22.7526 28.4777 22.4864 27.9756 21.9542C27.4735 21.4219 27.2076 20.801 27.2076 20.0618C27.2076 19.5739 27.3258 19.1303 27.5621 18.7164C27.7984 18.3024 28.1233 17.9771 28.5368 17.7406C28.9503 17.504 29.3934 17.3857 29.866 17.3857C30.5749 17.4005 31.21 17.6666 31.7269 18.1841ZM52.4474 18.1841C52.9643 18.7016 53.2301 19.3521 53.2301 20.0913C53.2301 20.8306 52.979 21.4663 52.4621 21.9838C51.9452 22.5012 51.3249 22.7526 50.6013 22.7526C49.8333 22.7526 49.1982 22.4864 48.6961 21.9542C48.194 21.4219 47.9281 20.801 47.9281 20.0618C47.9281 19.5739 48.0463 19.1303 48.2826 18.7164C48.5189 18.3024 48.8438 17.9771 49.2573 17.7406C49.6708 17.504 50.1139 17.3857 50.5865 17.3857C51.3102 17.4005 51.9305 17.6666 52.4474 18.1841ZM45.1368 17.4005C45.7276 17.4005 46.1559 17.4597 46.407 17.5632C46.658 17.6666 46.8648 17.8441 47.0125 18.0954C47.1602 18.3467 47.234 18.6276 47.234 18.9677C47.234 19.3225 47.1454 19.6182 46.9829 19.8548C46.8205 20.0913 46.5546 20.2687 46.215 20.387L47.4851 22.7673H46.3626L45.1516 20.4905H44.2655V22.7673H43.2465V17.4005H45.1368ZM42.1683 18.3911H39.702V19.4852H42.1683V20.4609H39.702V21.762H42.1683V22.7673H38.6977V17.4005H42.1683V18.3911ZM26.8236 22.7673H25.8341L25.2582 19.3817L24.121 22.7673H23.2201L22.0977 19.3817L21.5069 22.7673H20.5174L21.4478 17.4005H22.4521L23.6927 21.141L24.948 17.4005H25.9375L26.8236 22.7673ZM33.3071 17.4005H34.2818L36.5858 20.934V17.4005H37.6048V22.7673H36.6301L34.3261 19.2486V22.7673H33.3071V17.4005ZM31.0475 21.3184C31.3724 20.9784 31.5349 20.5792 31.5349 20.0913C31.5349 19.6034 31.3724 19.1895 31.0475 18.8494C30.7226 18.5094 30.3238 18.3467 29.8512 18.3467C29.3786 18.3467 28.9799 18.5094 28.655 18.8346C28.3301 19.1599 28.1676 19.5886 28.1676 20.0913C28.1676 20.6531 28.3744 21.1115 28.7731 21.4367C29.0833 21.6881 29.4525 21.8211 29.8512 21.8211C30.3238 21.8211 30.7226 21.6585 31.0475 21.3184ZM51.768 21.3184C52.0929 20.9784 52.2554 20.5792 52.2554 20.0913C52.2554 19.6034 52.0929 19.1895 51.768 18.8494C51.4431 18.5094 51.0443 18.3467 50.5717 18.3467C50.0991 18.3467 49.7004 18.5094 49.3755 18.8346C49.0506 19.1599 48.8881 19.5886 48.8881 20.0913C48.8881 20.6531 49.0949 21.1115 49.4936 21.4367C49.8038 21.6881 50.173 21.8211 50.5717 21.8211C51.0591 21.8211 51.4431 21.6585 51.768 21.3184ZM46.0673 19.3669C46.1854 19.2782 46.2445 19.1451 46.2445 18.9381C46.2445 18.8198 46.215 18.7164 46.1559 18.6276C46.0968 18.5389 46.0082 18.4798 45.9196 18.4354C45.8162 18.3911 45.7719 18.3763 45.5208 18.3763H44.2803V19.4704H45.5651C45.89 19.4999 45.9491 19.4556 46.0673 19.3669Z" fill="#4C4C4C"/>
</g>
<defs>
<clipPath id="clip0_1736_643">
<rect width="46.8735" height="12.4996" fill="white" transform="translate(6.49619 13.334)"/>
</clipPath>
</defs>
</svg>
