<svg width="59" height="40" viewBox="0 0 59 40" fill="none" xmlns="http://www.w3.org/2000/svg">
<rect x="0.331528" width="58.3315" height="39.9941" rx="3.33323" fill="white"/>
<g clip-path="url(#clip0_1736_635)">
<path d="M50.9015 16.4474L49.8072 23.3062C49.8031 23.3314 49.8046 23.3572 49.8115 23.3818C49.8184 23.4063 49.8307 23.4291 49.8474 23.4484C49.8641 23.4678 49.8848 23.4832 49.9081 23.4937C49.9314 23.5042 49.9567 23.5095 49.9823 23.5092H51.2774C51.3231 23.5096 51.3674 23.4937 51.4024 23.4643C51.4373 23.4349 51.4605 23.394 51.4678 23.349L52.5622 16.4901C52.5663 16.4649 52.5648 16.4392 52.5578 16.4146C52.5509 16.3901 52.5387 16.3673 52.522 16.348C52.5053 16.3286 52.4846 16.3132 52.4613 16.3027C52.4379 16.2922 52.4126 16.2869 52.387 16.2871H51.0919C51.0461 16.2862 51.0015 16.302 50.9665 16.3315C50.9314 16.361 50.9083 16.4022 50.9015 16.4474ZM49.5186 18.449H48.2898C48.2441 18.4485 48.1999 18.4644 48.165 18.4938C48.1301 18.5232 48.1069 18.564 48.0997 18.609L48.059 18.8615C48.059 18.8615 47.1046 17.8291 45.4148 18.5268C44.4454 18.9262 43.98 19.7515 43.782 20.3561C43.782 20.3561 43.1535 22.1936 44.5749 23.205C44.5749 23.205 45.893 24.1778 47.3771 23.1452L47.3515 23.3062C47.3455 23.3441 47.3522 23.3828 47.3704 23.4165C47.3886 23.4502 47.4174 23.4771 47.4524 23.4929C47.4756 23.5038 47.5009 23.5092 47.5266 23.5092H48.7562C48.802 23.5101 48.8466 23.4944 48.8817 23.4649C48.9167 23.4354 48.9398 23.3942 48.9466 23.349L49.6945 18.652C49.6987 18.6268 49.6972 18.601 49.6902 18.5765C49.6832 18.552 49.6708 18.5294 49.6539 18.5102C49.6372 18.4907 49.6165 18.4751 49.5931 18.4645C49.5697 18.4538 49.5443 18.4487 49.5186 18.449ZM47.7104 21.0448C47.6625 21.373 47.4961 21.6724 47.2426 21.887C46.988 22.1023 46.664 22.2185 46.3302 22.2143C46.1993 22.2158 46.069 22.1969 45.944 22.1583C45.4134 21.9896 45.1107 21.4851 45.1977 20.9382C45.246 20.6101 45.4125 20.3109 45.666 20.0966C45.9204 19.8811 46.2442 19.7645 46.5779 19.7681C46.7088 19.7668 46.8391 19.7859 46.9641 19.8247C47.4979 19.9923 47.7993 20.4976 47.7118 21.0451H47.7104V21.0448ZM41.1487 21.1746C41.8151 21.1746 42.4596 20.9384 42.9659 20.5091C43.4711 20.0811 43.8056 19.4866 43.9086 18.8335C44.1238 17.4749 43.0521 16.2891 41.5328 16.2891H39.0852C39.0395 16.2886 38.9952 16.3046 38.9603 16.334C38.9254 16.3634 38.9023 16.4043 38.8951 16.4493L37.8005 23.3082C37.7945 23.346 37.8012 23.3847 37.8194 23.4184C37.8376 23.4522 37.8664 23.479 37.9014 23.4948C37.9249 23.5057 37.9499 23.5111 37.9756 23.5111H39.2715C39.3172 23.5116 39.3615 23.4956 39.3964 23.4662C39.4313 23.4368 39.4544 23.3959 39.4616 23.3509L39.783 21.3368C39.7897 21.2915 39.8128 21.2502 39.8478 21.2207C39.8828 21.1912 39.9275 21.1754 39.9733 21.1762L41.1487 21.1746ZM42.2327 18.7717C42.1528 19.274 41.7605 19.6438 41.0101 19.6438H40.0508L40.3421 17.8172H41.2843C42.06 17.8185 42.3126 18.2716 42.2327 18.7731V18.7717Z" fill="#0070E0"/>
<path d="M36.3239 18.5652L34.8416 21.0427L34.0893 18.5834C34.0776 18.5442 34.0533 18.5098 34.0203 18.4855C33.9872 18.4612 33.9471 18.4483 33.906 18.4487H32.5684C32.5338 18.4483 32.5002 18.4603 32.4738 18.4826C32.4473 18.5049 32.4299 18.536 32.4246 18.5701C32.4214 18.5927 32.4237 18.6158 32.4315 18.6373L33.7795 22.7798L32.5602 24.7318C32.5499 24.7479 32.5429 24.7659 32.5398 24.7847C32.5366 24.8036 32.5374 24.8229 32.542 24.8414C32.5466 24.8599 32.5549 24.8774 32.5665 24.8926C32.5781 24.9078 32.5926 24.9205 32.6093 24.9299C32.6316 24.9427 32.6569 24.9493 32.6827 24.9489H34.1234C34.1646 24.9491 34.205 24.9386 34.2409 24.9186C34.2768 24.8986 34.3069 24.8697 34.3283 24.8347L38.0936 18.667C38.1072 18.6455 38.1147 18.6207 38.1152 18.5953C38.1158 18.5698 38.1093 18.5448 38.0966 18.5227C38.0839 18.5006 38.0654 18.4824 38.0432 18.4698C38.021 18.4572 37.9958 18.4508 37.9703 18.4512H36.5301C36.4888 18.4508 36.448 18.4611 36.4119 18.4811C36.3758 18.5011 36.3454 18.53 36.3239 18.5652ZM31.8101 18.4487H30.5802C30.5344 18.4483 30.49 18.4643 30.4551 18.4937C30.4201 18.5232 30.397 18.5642 30.3898 18.6093L30.35 18.8615C30.35 18.8615 29.3947 17.8292 27.7049 18.5268C26.7358 18.9263 26.2702 19.7515 26.0729 20.3562C26.0729 20.3562 25.4439 22.1937 26.8651 23.205C26.8651 23.205 28.1834 24.1778 29.6675 23.1452L29.6419 23.3063C29.6358 23.3441 29.6424 23.3829 29.6607 23.4166C29.6789 23.4504 29.7078 23.4772 29.7428 23.4929C29.766 23.5038 29.7913 23.5093 29.817 23.5093H31.0466C31.0923 23.5096 31.1365 23.4936 31.1714 23.4642C31.2063 23.4348 31.2294 23.3939 31.2367 23.349L31.9849 18.652C31.991 18.6141 31.9844 18.5753 31.9662 18.5415C31.948 18.5077 31.9191 18.4808 31.884 18.4651C31.8607 18.4544 31.8357 18.4488 31.8101 18.4487ZM30.0016 21.0451C29.9532 21.3729 29.7868 21.6719 29.5336 21.8862C29.2791 22.1015 28.9553 22.218 28.6217 22.2143C28.491 22.2158 28.3609 22.1969 28.236 22.1583C27.7057 21.9896 27.4032 21.4851 27.4903 20.9379C27.5387 20.6092 27.7058 20.3094 27.9602 20.0949C28.2156 19.8795 28.5404 19.7635 28.8748 19.7681C29.0058 19.7668 29.1364 19.7858 29.2613 19.8247C29.7897 19.9924 30.0906 20.4974 30.0033 21.0451H30.0016ZM23.4402 21.1746C24.1054 21.1743 24.7489 20.9381 25.2557 20.5083C25.7605 20.0803 26.0946 19.486 26.1973 18.8332C26.4128 17.4749 25.3408 16.2891 23.8221 16.2891H21.3742C21.3286 16.2886 21.2842 16.3045 21.2493 16.3339C21.2144 16.3632 21.1912 16.4041 21.1838 16.4491L20.0928 23.306C20.0867 23.3439 20.0933 23.3827 20.1115 23.4165C20.1297 23.4503 20.1586 23.4772 20.1937 23.4929C20.2169 23.5035 20.2423 23.5093 20.2679 23.5093H21.563C21.6087 23.5097 21.6531 23.4937 21.6881 23.4643C21.723 23.4348 21.7462 23.3938 21.7534 23.3487L22.0742 21.3346C22.081 21.2894 22.1041 21.2482 22.1391 21.2187C22.1741 21.1892 22.2187 21.1735 22.2646 21.1744L23.4402 21.1746ZM24.5242 18.7714C24.4442 19.2737 24.0523 19.6435 23.3019 19.6435H22.3426L22.6333 17.8169H23.5755C24.3515 17.8183 24.6038 18.2716 24.5242 18.7728V18.7714Z" fill="#003087"/>
<path d="M15.0675 16.6412C15.0967 15.1267 13.8444 13.9648 12.1224 13.9648H8.56058C8.47758 13.9648 8.39729 13.9943 8.33418 14.0481C8.27107 14.1019 8.22928 14.1764 8.21634 14.2582L6.78922 23.1539C6.78284 23.1943 6.78528 23.2355 6.7964 23.2747C6.80751 23.314 6.82703 23.3504 6.8536 23.3815C6.88017 23.4125 6.91317 23.4374 6.95032 23.4545C6.98747 23.4716 7.0279 23.4805 7.06881 23.4805H9.17894L8.84917 25.5403C8.84278 25.5806 8.84523 25.6218 8.85634 25.6611C8.86746 25.7003 8.88697 25.7368 8.91354 25.7678C8.94012 25.7988 8.97311 25.8237 9.01027 25.8408C9.04742 25.8579 9.08784 25.8668 9.12876 25.8668H10.8477C10.9307 25.8668 11.0046 25.8371 11.0679 25.7835C11.1306 25.7296 11.141 25.6554 11.1541 25.5735L11.6587 22.6119C11.6715 22.5303 11.7132 22.4242 11.7762 22.3703C11.8393 22.3164 11.8944 22.287 11.9775 22.287H13.0293C14.7159 22.287 16.1465 21.0912 16.4081 19.4281C16.5933 18.2477 16.086 17.1737 15.0675 16.6412Z" fill="#001C64"/>
<path d="M9.6357 20.1994L9.11007 23.5239L8.78002 25.6093C8.77368 25.6496 8.77617 25.6908 8.78731 25.7301C8.79846 25.7694 8.81801 25.8058 8.84461 25.8368C8.8712 25.8678 8.90422 25.8927 8.94138 25.9097C8.97855 25.9268 9.01897 25.9356 9.05988 25.9356H10.8792C10.9622 25.9355 11.0424 25.906 11.1054 25.8522C11.1684 25.7984 11.2101 25.724 11.2229 25.6423L11.7025 22.6113C11.7154 22.5296 11.7571 22.4551 11.8202 22.4014C11.8832 22.3476 11.9635 22.318 12.0464 22.318H13.1173C14.8038 22.318 16.2345 21.0908 16.4964 19.4277C16.6819 18.2474 16.0861 17.1731 15.0676 16.6406C15.0649 16.7663 15.054 16.8918 15.0346 17.0161C14.773 18.6787 13.3418 19.9061 11.6558 19.9061H9.97966C9.89668 19.9062 9.81645 19.9358 9.7534 19.9896C9.69035 20.0434 9.64862 20.1177 9.6357 20.1994Z" fill="#0070E0"/>
<path d="M9.10999 23.5245H6.99331C6.95241 23.5245 6.91199 23.5157 6.87485 23.4986C6.83771 23.4815 6.80472 23.4566 6.77817 23.4255C6.75162 23.3945 6.73213 23.3581 6.72105 23.3188C6.70997 23.2795 6.70757 23.2383 6.714 23.198L8.14112 14.1703C8.15405 14.0885 8.19579 14.0141 8.25885 13.9603C8.3219 13.9065 8.40213 13.877 8.48508 13.877H12.1227C13.8447 13.877 15.097 15.127 15.0678 16.6412C14.6393 16.417 14.1358 16.2889 13.5842 16.2889H10.5516C10.4686 16.2888 10.3883 16.3183 10.3252 16.3721C10.2621 16.4259 10.2203 16.5004 10.2073 16.5822L9.63616 20.2L9.10972 23.5245H9.10999Z" fill="#003087"/>
</g>
<defs>
<clipPath id="clip0_1736_635">
<rect width="46.8362" height="13.3329" fill="white" transform="translate(6.16466 13.334)"/>
</clipPath>
</defs>
</svg>
