<svg width="59" height="40" viewBox="0 0 59 40" fill="none" xmlns="http://www.w3.org/2000/svg">
<rect x="0.326111" width="58.3315" height="39.9941" rx="3.33323" fill="white"/>
<path d="M18.0194 15.5547V24.4433M18.0194 24.4433L15.7972 22.2211M18.0194 24.4433L20.2415 22.2211M12.464 24.4433V15.5547M12.464 15.5547L10.2419 17.7768M12.464 15.5547L14.6862 17.7768" stroke="#1C123B" stroke-width="1.24996" stroke-linecap="round" stroke-linejoin="round"/>
<path d="M27.9597 24.499L25.4165 15.971H26.9681L28.3214 20.4741C28.4497 20.9408 28.578 21.4191 28.7064 22.1658C28.8464 21.4075 28.9747 20.9641 29.1264 20.4741L30.468 15.971H32.1129L33.4312 20.4741C33.5712 20.9525 33.6996 21.4425 33.8396 22.1658C34.0029 21.3725 34.1195 20.9175 34.2479 20.4858L35.6245 15.971H37.1411L34.5512 24.499H33.1046L31.2846 18.2925L29.4297 24.499H27.9597ZM38.6479 17.5809C38.1579 17.5809 37.7729 17.1959 37.7729 16.7176C37.7729 16.2393 38.1579 15.866 38.6479 15.866C39.1145 15.866 39.4995 16.2393 39.4995 16.7176C39.4995 17.1959 39.1145 17.5809 38.6479 17.5809ZM37.9362 24.499V18.7359H39.3595V24.499H37.9362ZM44.3299 18.7125V20.0308H43.8049C42.7783 20.0308 42.1367 20.5791 42.1367 21.6991V24.499H40.7134V18.7475H42.055L42.1367 19.5875C42.3817 19.0159 42.93 18.6309 43.6999 18.6309C43.8983 18.6309 44.0966 18.6542 44.3299 18.7125ZM47.5612 24.6507C45.8463 24.6507 44.6446 23.4024 44.6446 21.6174C44.6446 19.8092 45.8229 18.5609 47.5146 18.5609C49.2412 18.5609 50.3378 19.7158 50.3378 21.5124V21.9441L45.9979 21.9558C46.1029 22.9707 46.6396 23.4841 47.5846 23.4841C48.3662 23.4841 48.8795 23.1807 49.0428 22.6324H50.3611C50.1161 23.8924 49.0662 24.6507 47.5612 24.6507ZM47.5262 19.7275C46.6863 19.7275 46.1729 20.1825 46.0329 21.0458H48.9262C48.9262 20.2525 48.3779 19.7275 47.5262 19.7275Z" fill="#1C123B"/>
</svg>
