<svg width="59" height="40" viewBox="0 0 59 40" fill="none" xmlns="http://www.w3.org/2000/svg">
<rect x="0.657654" width="58.3315" height="39.9941" rx="3.33323" fill="white"/>
<g clip-path="url(#clip0_1736_658)">
<path d="M19.6291 18.8871H8.51837M13.5182 21.1092H10.7405M8.51837 17.8871L8.51837 22.1092C8.51837 22.7314 8.51837 23.0426 8.63947 23.2803C8.74599 23.4893 8.91597 23.6593 9.12503 23.7658C9.3627 23.8869 9.67383 23.8869 10.2961 23.8869L17.8514 23.8869C18.4737 23.8869 18.7848 23.8869 19.0225 23.7658C19.2315 23.6593 19.4015 23.4893 19.508 23.2803C19.6291 23.0426 19.6291 22.7315 19.6291 22.1092V17.8871C19.6291 17.2648 19.6291 16.9537 19.508 16.716C19.4015 16.507 19.2315 16.337 19.0225 16.2305C18.7848 16.1094 18.4737 16.1094 17.8514 16.1094L10.2961 16.1094C9.67383 16.1094 9.3627 16.1094 9.12503 16.2305C8.91597 16.337 8.74599 16.507 8.63947 16.716C8.51837 16.9537 8.51837 17.2648 8.51837 17.8871Z" stroke="#1C123B" stroke-width="1.24996" stroke-linecap="round" stroke-linejoin="round"/>
</g>
<path d="M27.9732 19.119C25.8432 19.119 24.4633 17.6391 24.4633 15.3491C24.4633 13.0792 25.8932 11.5693 28.0332 11.5693C29.7631 11.5693 31.0531 12.5792 31.3031 14.1492H29.9531C29.7031 13.2992 28.9732 12.7992 28.0032 12.7992C26.6532 12.7992 25.8032 13.7792 25.8032 15.3391C25.8032 16.8891 26.6632 17.8891 28.0032 17.8891C28.9932 17.8891 29.7531 17.3691 29.9931 16.5591H31.3231C31.0431 18.0991 29.7031 19.119 27.9732 19.119ZM35.2908 14.0392V15.1691H34.8409C33.9609 15.1691 33.4109 15.6391 33.4109 16.5991V18.999H32.1909V14.0692H33.3409L33.4109 14.7892C33.6209 14.2992 34.0909 13.9692 34.7509 13.9692C34.9209 13.9692 35.0909 13.9892 35.2908 14.0392ZM38.0605 19.129C36.5906 19.129 35.5606 18.0591 35.5606 16.5291C35.5606 14.9791 36.5706 13.9092 38.0205 13.9092C39.5005 13.9092 40.4405 14.8992 40.4405 16.4391V16.8091L36.7206 16.8191C36.8106 17.6891 37.2706 18.1291 38.0805 18.1291C38.7505 18.1291 39.1905 17.8691 39.3305 17.3991H40.4605C40.2505 18.479 39.3505 19.129 38.0605 19.129ZM38.0305 14.9092C37.3105 14.9092 36.8706 15.2991 36.7506 16.0391H39.2305C39.2305 15.3591 38.7605 14.9092 38.0305 14.9092ZM43.3468 19.129C41.9168 19.129 41.0268 18.0791 41.0268 16.5491C41.0268 15.0091 41.9268 13.9092 43.4168 13.9092C44.1067 13.9092 44.7167 14.1992 45.0267 14.6892V11.5593H46.2367V18.999H45.1167L45.0367 18.229C44.7367 18.799 44.0967 19.129 43.3468 19.129ZM43.6168 18.0091C44.4667 18.0091 45.0167 17.3991 45.0167 16.5091C45.0167 15.6191 44.4667 14.9991 43.6168 14.9991C42.7668 14.9991 42.2468 15.6291 42.2468 16.5091C42.2468 17.3891 42.7668 18.0091 43.6168 18.0091ZM48.018 13.0692C47.598 13.0692 47.2681 12.7392 47.2681 12.3292C47.2681 11.9192 47.598 11.5993 48.018 11.5993C48.418 11.5993 48.748 11.9192 48.748 12.3292C48.748 12.7392 48.418 13.0692 48.018 13.0692ZM47.408 18.999V14.0592H48.628V18.999H47.408ZM51.4684 18.999H50.2484V15.0791H49.2985V14.0592H50.2484V12.5192H51.4684V14.0592H52.4284V15.0791H51.4684V18.999ZM27.9732 29.119C25.8432 29.119 24.4633 27.6391 24.4633 25.3491C24.4633 23.0792 25.8932 21.5693 28.0332 21.5693C29.7631 21.5693 31.0531 22.5792 31.3031 24.1492H29.9531C29.7031 23.2992 28.9732 22.7992 28.0032 22.7992C26.6532 22.7992 25.8032 23.7792 25.8032 25.3391C25.8032 26.8891 26.6632 27.8891 28.0032 27.8891C28.9932 27.8891 29.7531 27.3691 29.9931 26.5591H31.3231C31.0431 28.0991 29.7031 29.119 27.9732 29.119ZM33.5632 29.129C32.5133 29.129 31.8733 28.519 31.8733 27.5891C31.8733 26.6791 32.5333 26.1091 33.7032 26.0191L35.1832 25.9091V25.7991C35.1832 25.1291 34.7832 24.8592 34.1632 24.8592C33.4432 24.8592 33.0433 25.1591 33.0433 25.6791H32.0033C32.0033 24.6092 32.8833 23.9092 34.2232 23.9092C35.5532 23.9092 36.3732 24.6292 36.3732 25.9991V28.999H35.3032L35.2132 28.269C35.0032 28.779 34.3332 29.129 33.5632 29.129ZM33.9632 28.209C34.7132 28.209 35.1932 27.7591 35.1932 26.9991V26.7391L34.1632 26.8191C33.4032 26.8891 33.1133 27.1391 33.1133 27.5391C33.1133 27.9891 33.4132 28.209 33.9632 28.209ZM40.5715 24.0392V25.1691H40.1216C39.2416 25.1691 38.6916 25.6391 38.6916 26.5991V28.999H37.4716V24.0692H38.6216L38.6916 24.7892C38.9016 24.2992 39.3716 23.9692 40.0316 23.9692C40.2016 23.9692 40.3715 23.9892 40.5715 24.0392ZM43.1612 29.129C41.7313 29.129 40.8413 28.0791 40.8413 26.5491C40.8413 25.0091 41.7413 23.9092 43.2312 23.9092C43.9212 23.9092 44.5312 24.1992 44.8412 24.6892V21.5593H46.0511V28.999H44.9312L44.8512 28.229C44.5512 28.799 43.9112 29.129 43.1612 29.129ZM43.4312 28.0091C44.2812 28.0091 44.8312 27.3991 44.8312 26.5091C44.8312 25.6191 44.2812 24.9991 43.4312 24.9991C42.5812 24.9991 42.0613 25.6291 42.0613 26.5091C42.0613 27.3891 42.5812 28.0091 43.4312 28.0091ZM46.8425 27.4991H48.0025C48.0125 27.9291 48.3325 28.199 48.8925 28.199C49.4624 28.199 49.7724 27.9691 49.7724 27.6091C49.7724 27.3591 49.6424 27.1791 49.2024 27.0791L48.3125 26.8691C47.4225 26.6691 46.9925 26.2491 46.9925 25.4591C46.9925 24.4892 47.8125 23.9092 48.9525 23.9092C50.0624 23.9092 50.8124 24.5492 50.8224 25.5091H49.6624C49.6524 25.0891 49.3724 24.8192 48.9025 24.8192C48.4225 24.8192 48.1425 25.0391 48.1425 25.4091C48.1425 25.6891 48.3625 25.8691 48.7825 25.9691L49.6724 26.1791C50.5024 26.3691 50.9224 26.7491 50.9224 27.5091C50.9224 28.509 50.0724 29.129 48.8525 29.129C47.6225 29.129 46.8425 28.469 46.8425 27.4991Z" fill="#1C123B"/>
<defs>
<clipPath id="clip0_1736_658">
<rect width="13.3329" height="13.3329" fill="white" transform="translate(7.4072 13.332)"/>
</clipPath>
</defs>
</svg>
