<svg width="67" height="64" viewBox="0 0 67 64" fill="none" xmlns="http://www.w3.org/2000/svg">
<path d="M54.2007 48C58.6811 48 60.9213 48 62.6326 47.1281C64.1379 46.3611 65.3618 45.1372 66.1287 43.6319C67.0007 41.9206 67.0007 39.6804 67.0007 35.2V12.8C67.0007 8.31958 67.0007 6.07937 66.1287 4.36808C65.3618 2.86278 64.1379 1.63894 62.6326 0.871952C60.9213 4.05312e-06 58.6811 3.80271e-06 54.2007 3.27393e-06L26.4674 8.23093e-10C21.9869 -5.27959e-07 19.7467 -7.7486e-07 18.0354 0.871947C16.5301 1.63893 15.3063 2.86278 14.5393 4.36808C13.6674 6.07937 13.6674 8.31958 13.6674 12.8L13.6674 35.2C13.6674 39.6804 13.6674 41.9206 14.5393 43.6319C15.3063 45.1372 16.5301 46.3611 18.0354 47.128C19.7467 48 21.9869 48 26.4674 48H54.2007Z" fill="url(#paint0_linear_1957_371)"/>
<g filter="url(#filter0_b_1957_371)">
<path d="M46.2007 56C50.6811 56 52.9213 56 54.6326 55.1281C56.1379 54.3611 57.3618 53.1372 58.1287 51.6319C59.0007 49.9206 59.0007 47.6804 59.0007 43.2V20.8C59.0007 16.3196 59.0007 14.0794 58.1287 12.3681C57.3618 10.8628 56.1379 9.63894 54.6326 8.87195C52.9213 8 50.6811 8 46.2007 8L18.4674 8C13.9869 8 11.7467 8 10.0354 8.87195C8.53014 9.63893 7.30629 10.8628 6.53931 12.3681C5.66736 14.0794 5.66736 16.3196 5.66736 20.8L5.66736 43.2C5.66736 47.6804 5.66736 49.9206 6.53931 51.6319C7.30629 53.1372 8.53014 54.3611 10.0354 55.128C11.7467 56 13.9869 56 18.4674 56H46.2007Z" fill="white" fill-opacity="0.05"/>
<path d="M60.5007 24V20.8V20.734C60.5007 18.5497 60.5007 16.8187 60.3867 15.4235C60.2701 13.9967 60.0269 12.7894 59.4653 11.6871C58.5545 9.89955 57.1011 8.44624 55.3136 7.53544C54.2113 6.97377 53.004 6.73055 51.5772 6.61398C50.182 6.49998 48.451 6.49999 46.2667 6.5L46.2007 6.5L18.4674 6.5L18.4014 6.5C16.2171 6.49999 14.4861 6.49998 13.0908 6.61397C11.664 6.73055 10.4568 6.97376 9.35445 7.53544C7.56691 8.44623 6.11359 9.89955 5.2028 11.6871C4.64112 12.7894 4.39791 13.9967 4.28133 15.4235C4.16734 16.8187 4.16735 18.5497 4.16736 20.734L4.16736 20.8V23.9987C4.16736 23.9991 4.16736 23.9996 4.16736 24C4.16736 24.0004 4.16736 24.0009 4.16736 24.0013L4.16736 43.2L4.16736 43.266C4.16735 45.4503 4.16734 47.1813 4.28133 48.5765C4.39791 50.0033 4.64112 51.2106 5.2028 52.3129C6.11359 54.1004 7.56691 55.5538 9.35445 56.4646C10.4568 57.0262 11.664 57.2694 13.0908 57.386C14.4861 57.5 16.2172 57.5 18.4015 57.5H18.4674H46.2007H46.2667C48.451 57.5 50.182 57.5 51.5772 57.386C53.004 57.2695 54.2113 57.0262 55.3136 56.4646C57.1011 55.5538 58.5545 54.1004 59.4653 52.3129C60.0269 51.2106 60.2701 50.0033 60.3867 48.5765C60.5007 47.1813 60.5007 45.4503 60.5007 43.266V43.2V24Z" stroke="white" stroke-opacity="0.24" stroke-width="3" stroke-linecap="round" stroke-linejoin="round"/>
</g>
<path d="M16.3334 46.6666L23 39.9999L16.3334 33.3333M29.6667 46.6666L40.3334 46.6666" stroke="white" stroke-opacity="0.72" stroke-width="4" stroke-linecap="round" stroke-linejoin="round"/>
<defs>
<filter id="filter0_b_1957_371" x="-9.33264" y="-7" width="83.3333" height="78" filterUnits="userSpaceOnUse" color-interpolation-filters="sRGB">
<feFlood flood-opacity="0" result="BackgroundImageFix"/>
<feGaussianBlur in="BackgroundImageFix" stdDeviation="6"/>
<feComposite in2="SourceAlpha" operator="in" result="effect1_backgroundBlur_1957_371"/>
<feBlend mode="normal" in="SourceGraphic" in2="effect1_backgroundBlur_1957_371" result="shape"/>
</filter>
<linearGradient id="paint0_linear_1957_371" x1="13.6674" y1="80.5714" x2="70.1829" y2="66.9429" gradientUnits="userSpaceOnUse">
<stop stop-color="#1E50FF"/>
<stop offset="1" stop-color="#AA00FF"/>
</linearGradient>
</defs>
</svg>
