<svg width="67" height="64" viewBox="0 0 67 64" fill="none" xmlns="http://www.w3.org/2000/svg">
<path d="M44.8361 6.23043C45.1381 3.76862 45.2891 2.53772 44.9188 2.05195C44.599 1.63256 44.0826 1.41188 43.5585 1.47073C42.9515 1.5389 42.1664 2.49886 40.5961 4.41877L20.4965 28.9948C19.5038 30.2086 19.0074 30.8156 18.9998 31.3281C18.9932 31.7737 19.1881 32.1977 19.5283 32.4778C19.9196 32.8 20.695 32.8 22.2457 32.8H40.2872C41.2248 32.8 41.6937 32.8 42.0338 32.9893C42.3325 33.1556 42.5655 33.4188 42.6941 33.7356C42.8406 34.0962 42.7835 34.5616 42.6694 35.4922L41.1632 47.7696C40.8612 50.2314 40.7102 51.4623 41.0805 51.9481C41.4002 52.3674 41.9167 52.5881 42.4408 52.5293C43.0478 52.4611 43.8329 51.5011 45.4031 49.5812L65.5027 25.0052C66.4955 23.7914 66.9919 23.1844 66.9995 22.6719C67.0061 22.2263 66.8112 21.8023 66.471 21.5222C66.0797 21.2 65.3043 21.2 63.7536 21.2H45.712C44.7744 21.2 44.3056 21.2 43.9654 21.0107C43.6667 20.8444 43.4338 20.5812 43.3051 20.2644C43.1587 19.9038 43.2157 19.4384 43.3299 18.5078L44.8361 6.23043Z" fill="url(#paint0_linear_1736_242)"/>
<g filter="url(#filter0_b_1736_242)">
<path d="M34.3891 11.1122C34.6936 8.68139 34.8458 7.46599 34.479 6.98004C34.1622 6.56042 33.6489 6.33725 33.126 6.39182C32.5205 6.45501 31.7355 7.39528 30.1654 9.27581L9.5277 33.9948C8.51426 35.2086 8.00754 35.8156 7.9998 36.3281C7.99307 36.7737 8.192 37.1977 8.53928 37.4778C8.93875 37.8 9.73027 37.8 11.3133 37.8H29.7803C30.7201 37.8 31.19 37.8 31.5305 37.9899C31.8295 38.1566 32.0625 38.4206 32.1908 38.738C32.3369 39.0995 32.2785 39.5658 32.1617 40.4982L30.6101 52.8878C30.3057 55.3186 30.1535 56.534 30.5203 57.02C30.837 57.4396 31.3503 57.6628 31.8732 57.6082C32.4788 57.545 33.2638 56.6047 34.8338 54.7242L55.4716 30.0052C56.485 28.7914 56.9917 28.1844 56.9995 27.6719C57.0062 27.2263 56.8073 26.8023 56.46 26.5222C56.0605 26.2 55.269 26.2 53.6859 26.2H35.2189C34.2792 26.2 33.8093 26.2 33.4687 26.0101C33.1697 25.8434 32.9367 25.5794 32.8085 25.262C32.6624 24.9005 32.7208 24.4342 32.8375 23.5018L34.3891 11.1122Z" fill="white" fill-opacity="0.05"/>
</g>
<g filter="url(#filter1_b_1736_242)">
<path d="M35.4051 3L9.5277 33.9948C8.51426 35.2086 8.00754 35.8156 7.9998 36.3281C7.99307 36.7737 8.192 37.1977 8.53928 37.4778C8.93875 37.8 9.73027 37.8 11.3133 37.8H32.4996L29.5942 61L55.4716 30.0052C56.485 28.7914 56.9917 28.1844 56.9995 27.6719C57.0062 27.2263 56.8073 26.8023 56.46 26.5222C56.0605 26.2 55.269 26.2 53.6859 26.2H32.4996L35.4051 3Z" fill="white" fill-opacity="0.05"/>
<path d="M36.8934 3.1864C36.9762 2.52586 36.6136 1.88982 36.0031 1.62439C35.3927 1.35896 34.6803 1.52765 34.2536 2.03866L8.37625 33.0334L8.33362 33.0845C7.86348 33.6475 7.44657 34.1468 7.15314 34.5709C6.86874 34.9819 6.51098 35.5769 6.49997 36.3055C6.48626 37.2132 6.89153 38.0759 7.59755 38.6453C8.16387 39.1021 8.84925 39.2086 9.34746 39.2536C9.86142 39.3001 10.5124 39.3 11.2469 39.3H11.3133H30.8001L28.1058 60.8136C28.0231 61.4741 28.3856 62.1102 28.9961 62.3756C29.6066 62.641 30.319 62.4724 30.7456 61.9613L56.623 30.9666L56.6657 30.9155C57.1358 30.3524 57.5527 29.8531 57.8461 29.4291C58.1305 29.0181 58.4883 28.4231 58.4993 27.6945C58.513 26.7868 58.1077 25.9241 57.4017 25.3547C56.8354 24.8979 56.15 24.7914 55.6518 24.7464C55.1379 24.6999 54.4869 24.7 53.7524 24.7L53.6859 24.7H34.1992L36.8934 3.1864Z" stroke="white" stroke-opacity="0.24" stroke-width="3" stroke-linecap="round" stroke-linejoin="round"/>
</g>
<defs>
<filter id="filter0_b_1736_242" x="-4.00037" y="-5.61621" width="73" height="75.2324" filterUnits="userSpaceOnUse" color-interpolation-filters="sRGB">
<feFlood flood-opacity="0" result="BackgroundImageFix"/>
<feGaussianBlur in="BackgroundImageFix" stdDeviation="6"/>
<feComposite in2="SourceAlpha" operator="in" result="effect1_backgroundBlur_1736_242"/>
<feBlend mode="normal" in="SourceGraphic" in2="effect1_backgroundBlur_1736_242" result="shape"/>
</filter>
<filter id="filter1_b_1736_242" x="-7.00037" y="-12.0002" width="79" height="88.0005" filterUnits="userSpaceOnUse" color-interpolation-filters="sRGB">
<feFlood flood-opacity="0" result="BackgroundImageFix"/>
<feGaussianBlur in="BackgroundImageFix" stdDeviation="6"/>
<feComposite in2="SourceAlpha" operator="in" result="effect1_backgroundBlur_1736_242"/>
<feBlend mode="normal" in="SourceGraphic" in2="effect1_backgroundBlur_1736_242" result="shape"/>
</filter>
<linearGradient id="paint0_linear_1736_242" x1="18.9996" y1="95.3571" x2="71.1393" y2="85.9922" gradientUnits="userSpaceOnUse">
<stop stop-color="#1E50FF"/>
<stop offset="1" stop-color="#AA00FF"/>
</linearGradient>
</defs>
</svg>
