<svg width="65" height="64" viewBox="0 0 65 64" fill="none" xmlns="http://www.w3.org/2000/svg">
<g clip-path="url(#clip0_1957_389)">
<path d="M16.6666 12.8C16.6666 8.31958 16.6666 6.07937 17.5386 4.36808C18.3056 2.86278 19.5294 1.63893 21.0347 0.871948C22.746 0 24.9862 0 29.4666 0H51.8666C56.3471 0 58.5873 0 60.2985 0.871948C61.8038 1.63893 63.0277 2.86278 63.7947 4.36808C64.6666 6.07937 64.6666 8.31958 64.6666 12.8V35.2C64.6666 39.6804 64.6666 41.9206 63.7947 43.6319C63.0277 45.1372 61.8038 46.3611 60.2985 47.1281C58.5873 48 56.347 48 51.8666 48H29.4666C24.9862 48 22.746 48 21.0347 47.1281C19.5294 46.3611 18.3056 45.1372 17.5386 43.6319C16.6666 41.9206 16.6666 39.6804 16.6666 35.2V12.8Z" fill="url(#paint0_linear_1957_389)"/>
<g filter="url(#filter0_b_1957_389)">
<path d="M8.66663 20.8C8.66663 16.3196 8.66663 14.0794 9.53857 12.3681C10.3056 10.8628 11.5294 9.63893 13.0347 8.87195C14.746 8 16.9862 8 21.4666 8H43.8666C48.3471 8 50.5873 8 52.2985 8.87195C53.8038 9.63893 55.0277 10.8628 55.7947 12.3681C56.6666 14.0794 56.6666 16.3196 56.6666 20.8V43.2C56.6666 47.6804 56.6666 49.9206 55.7947 51.6319C55.0277 53.1372 53.8038 54.3611 52.2985 55.1281C50.5873 56 48.347 56 43.8666 56H21.4666C16.9862 56 14.746 56 13.0347 55.1281C11.5294 54.3611 10.3056 53.1372 9.53857 51.6319C8.66663 49.9206 8.66663 47.6804 8.66663 43.2V20.8Z" fill="white" fill-opacity="0.05"/>
<path d="M43.8666 6.5H21.4666L21.4006 6.5C19.2163 6.49999 17.4853 6.49998 16.0901 6.61398C14.6633 6.73055 13.4561 6.97376 12.3537 7.53544C10.5662 8.44624 9.11286 9.89955 8.20206 11.6871C7.64039 12.7894 7.39717 13.9967 7.2806 15.4235C7.16661 16.8187 7.16661 18.5497 7.16663 20.734L7.16663 20.8V43.2L7.16663 43.266C7.16661 45.4503 7.16661 47.1813 7.2806 48.5765C7.39717 50.0033 7.64039 51.2106 8.20206 52.3129C9.11286 54.1004 10.5662 55.5538 12.3537 56.4646C13.4561 57.0262 14.6633 57.2695 16.0901 57.386C17.4853 57.5 19.2163 57.5 21.4006 57.5H21.4666H43.8666H43.9327C46.1169 57.5 47.8479 57.5 49.2432 57.386C50.6699 57.2695 51.8772 57.0262 52.9795 56.4646C54.7671 55.5538 56.2204 54.1004 57.1312 52.3129C57.6929 51.2106 57.9361 50.0033 58.0527 48.5765C58.1666 47.1813 58.1666 45.4503 58.1666 43.266V43.2V20.8V20.734C58.1666 18.5497 58.1666 16.8187 58.0527 15.4235C57.9361 13.9967 57.6929 12.7894 57.1312 11.6871C56.2204 9.89955 54.7671 8.44624 52.9795 7.53544C51.8772 6.97376 50.6699 6.73055 49.2432 6.61398C47.8479 6.49998 46.1169 6.49999 43.9326 6.5L43.8666 6.5Z" stroke="white" stroke-opacity="0.24" stroke-width="3" stroke-linecap="round" stroke-linejoin="round"/>
</g>
<g filter="url(#filter1_b_1957_389)">
<path d="M45.9993 24H35.3327M45.9993 24V34.6667M45.9993 24L31.5078 38.4915C30.9798 39.0195 30.7158 39.2835 30.4114 39.3825C30.1436 39.4695 29.8551 39.4695 29.5873 39.3825C29.2829 39.2835 29.0189 39.0195 28.4908 38.4915L23.5078 33.5085C22.9798 32.9805 22.7158 32.7165 22.4114 32.6175C22.1436 32.5305 21.8551 32.5305 21.5873 32.6175C21.2829 32.7165 21.0189 32.9805 20.4908 33.5085L8.50061 45.4987" stroke="white" stroke-opacity="0.72" stroke-width="4" stroke-linecap="round" stroke-linejoin="round"/>
</g>
</g>
<defs>
<filter id="filter0_b_1957_389" x="-6.33337" y="-7" width="78" height="78" filterUnits="userSpaceOnUse" color-interpolation-filters="sRGB">
<feFlood flood-opacity="0" result="BackgroundImageFix"/>
<feGaussianBlur in="BackgroundImageFix" stdDeviation="6"/>
<feComposite in2="SourceAlpha" operator="in" result="effect1_backgroundBlur_1957_389"/>
<feBlend mode="normal" in="SourceGraphic" in2="effect1_backgroundBlur_1957_389" result="shape"/>
</filter>
<filter id="filter1_b_1957_389" x="-5.49939" y="10" width="65.4987" height="49.4988" filterUnits="userSpaceOnUse" color-interpolation-filters="sRGB">
<feFlood flood-opacity="0" result="BackgroundImageFix"/>
<feGaussianBlur in="BackgroundImageFix" stdDeviation="6"/>
<feComposite in2="SourceAlpha" operator="in" result="effect1_backgroundBlur_1957_389"/>
<feBlend mode="normal" in="SourceGraphic" in2="effect1_backgroundBlur_1957_389" result="shape"/>
</filter>
<linearGradient id="paint0_linear_1957_389" x1="16.6666" y1="80.5714" x2="68.0673" y2="69.4158" gradientUnits="userSpaceOnUse">
<stop stop-color="#1E50FF"/>
<stop offset="1" stop-color="#AA00FF"/>
</linearGradient>
<clipPath id="clip0_1957_389">
<rect width="64" height="64" fill="white" transform="translate(0.666656)"/>
</clipPath>
</defs>
</svg>
