<svg width="44" height="31" viewBox="0 0 44 31" fill="none" xmlns="http://www.w3.org/2000/svg">
<path fill-rule="evenodd" clip-rule="evenodd" d="M10.6714 4.58259L0 30.8561H28.3575L33.4082 18.4202C33.4365 18.3504 33.4659 18.285 33.4943 18.2153C35.8318 12.5562 39.334 7.45236 43.7733 3.23545L37.9967 7.12209L32.1112 11.0894C29.5314 12.8431 27.5612 15.3561 26.474 18.2799C25.3868 21.2037 25.2363 24.3934 26.0436 27.4066C23.2106 25.6354 19.9815 24.5967 16.6471 24.384C13.3128 24.1713 9.97791 24.7912 6.94278 26.188C9.37817 23.9015 11.2066 21.0451 12.2635 17.8761C13.3204 14.7071 13.5726 11.325 12.9973 8.03435C15.484 9.91564 18.4944 10.9768 21.6112 11.0707C24.728 11.1647 27.7968 10.2867 30.3924 8.55861L36.291 4.58803L42.0676 0.701393H42.0621C36.4019 3.26516 30.2595 4.59062 24.0458 4.58912H10.6714V4.58259Z" fill="url(#paint0_linear_1736_22)"/>
<defs>
<linearGradient id="paint0_linear_1736_22" x1="0.183106" y1="30.7188" x2="42.6986" y2="2.13027" gradientUnits="userSpaceOnUse">
<stop stop-color="#00C1FF"/>
<stop offset="0.41" stop-color="#512FDF"/>
<stop offset="0.61" stop-color="#872DEB"/>
<stop offset="0.79" stop-color="#EA29FF"/>
<stop offset="1" stop-color="#FF6EFF"/>
</linearGradient>
</defs>
</svg>
