<svg width="72" height="64" viewBox="0 0 72 64" fill="none" xmlns="http://www.w3.org/2000/svg">
<path d="M56.8173 6.37445C57.0668 4.50294 57.1916 3.56719 56.9325 3.2359C56.7093 2.95041 56.3491 2.80804 55.991 2.86376C55.5755 2.92843 55.0267 3.69662 53.9293 5.23301L40.0767 24.6267C39.2981 25.7167 38.9088 26.2617 38.9257 26.7161C38.9404 27.1117 39.1301 27.4803 39.4435 27.7222C39.8034 28 40.4732 28 41.8127 28H55.0005L53.1838 41.6255C52.9343 43.4971 52.8095 44.4328 53.0685 44.7641C53.2918 45.0496 53.652 45.192 54.0101 45.1362C54.4256 45.0716 54.9743 44.3034 56.0717 42.767L69.9243 23.3733C70.7029 22.2833 71.0922 21.7383 71.0754 21.2839C71.0607 20.8883 70.871 20.5197 70.5576 20.2778C70.1976 20 69.5279 20 68.1884 20H55.0005L56.8173 6.37445Z" fill="url(#paint0_linear_1957_397)"/>
<g filter="url(#filter0_b_1957_397)">
<path d="M45.6672 8L28.0767 32.6267C27.2981 33.7167 26.9088 34.2617 26.9257 34.7161C26.9404 35.1117 27.1301 35.4803 27.4435 35.7222C27.8034 36 28.4732 36 29.8127 36H43.0005L40.3339 56L57.9243 31.3733C58.7029 30.2833 59.0922 29.7383 59.0754 29.2839C59.0607 28.8883 58.871 28.5197 58.5576 28.2778C58.1976 28 57.5279 28 56.1884 28H43.0005L45.6672 8Z" fill="white" fill-opacity="0.05"/>
<path d="M47.154 8.19825C47.2451 7.51536 46.8593 6.85824 46.2186 6.60501C45.5779 6.35177 44.847 6.56753 44.4466 7.12814L26.8561 31.7548L26.8192 31.8065C26.4617 32.3069 26.1356 32.7634 25.908 33.1526C25.6824 33.5384 25.4018 34.0998 25.4267 34.7717C25.4579 35.6123 25.861 36.3957 26.527 36.9096C27.0592 37.3204 27.6791 37.4184 28.1242 37.459C28.5732 37.5001 29.1341 37.5001 29.7491 37.5L29.8127 37.5H41.2873L38.847 55.8018C38.756 56.4846 39.1418 57.1418 39.7825 57.395C40.4232 57.6482 41.154 57.4325 41.5545 56.8719L59.1449 32.2452L59.1819 32.1934C59.5394 31.693 59.8654 31.2366 60.093 30.8474C60.3186 30.4616 60.5992 29.9002 60.5743 29.2283C60.5432 28.3877 60.14 27.6044 59.4741 27.0904C58.9419 26.6796 58.3219 26.5816 57.8769 26.541C57.4278 26.4999 56.8669 26.4999 56.2519 26.5L56.1884 26.5H44.7138L47.154 8.19825Z" stroke="white" stroke-opacity="0.72" stroke-width="3" stroke-linecap="round" stroke-linejoin="round"/>
</g>
<g filter="url(#filter1_b_1957_397)">
<path d="M24.3334 46.6666H9.66669M17.6667 31.9999H5.66669M24.3334 17.3333H11" stroke="white" stroke-opacity="0.24" stroke-width="3" stroke-linecap="round" stroke-linejoin="round"/>
</g>
<defs>
<filter id="filter0_b_1957_397" x="11.9252" y="-7.00024" width="62.1507" height="78.0005" filterUnits="userSpaceOnUse" color-interpolation-filters="sRGB">
<feFlood flood-opacity="0" result="BackgroundImageFix"/>
<feGaussianBlur in="BackgroundImageFix" stdDeviation="6"/>
<feComposite in2="SourceAlpha" operator="in" result="effect1_backgroundBlur_1957_397"/>
<feBlend mode="normal" in="SourceGraphic" in2="effect1_backgroundBlur_1957_397" result="shape"/>
</filter>
<filter id="filter1_b_1957_397" x="-7.83331" y="3.83325" width="45.6667" height="56.3333" filterUnits="userSpaceOnUse" color-interpolation-filters="sRGB">
<feFlood flood-opacity="0" result="BackgroundImageFix"/>
<feGaussianBlur in="BackgroundImageFix" stdDeviation="6"/>
<feComposite in2="SourceAlpha" operator="in" result="effect1_backgroundBlur_1957_397"/>
<feBlend mode="normal" in="SourceGraphic" in2="effect1_backgroundBlur_1957_397" result="shape"/>
</filter>
<linearGradient id="paint0_linear_1957_397" x1="38.9252" y1="80.5714" x2="74.2293" y2="75.4393" gradientUnits="userSpaceOnUse">
<stop stop-color="#1E50FF"/>
<stop offset="1" stop-color="#AA00FF"/>
</linearGradient>
</defs>
</svg>
