<svg width="65" height="65" viewBox="0 0 65 65" fill="none" xmlns="http://www.w3.org/2000/svg">
<path d="M37.4719 52.6396C38.0623 52.9841 38.3575 53.1563 38.7741 53.2456C39.0974 53.315 39.5691 53.315 39.8924 53.2456C40.309 53.1563 40.6041 52.9841 41.1945 52.6396C46.3893 49.609 60.6665 40.0892 60.6665 27V14.2469C60.6665 12.1149 60.6665 11.0489 60.3178 10.1325C60.0098 9.32302 59.5093 8.60072 58.8595 8.02806C58.1239 7.37982 57.1257 7.00551 55.1295 6.25691L40.8313 0.895111C40.2769 0.687216 39.9998 0.583268 39.7146 0.542061C39.4616 0.505511 39.2048 0.505511 38.9518 0.542061C38.6667 0.583268 38.3895 0.687216 37.8351 0.895111L23.537 6.25691C21.5407 7.00551 20.5425 7.37982 19.807 8.02806C19.1572 8.60072 18.6566 9.32302 18.3486 10.1325C17.9999 11.0489 17.9999 12.1149 17.9999 14.2469V27C17.9999 40.0892 32.2771 49.609 37.4719 52.6396Z" fill="url(#paint0_linear_1736_223)"/>
<g filter="url(#filter0_b_1736_223)">
<path d="M30.4721 58.6396C31.0625 58.9841 31.3577 59.1563 31.7742 59.2456C32.0975 59.315 32.5692 59.315 32.8925 59.2456C33.3091 59.1563 33.6043 58.9841 34.1947 58.6396C39.3895 55.609 53.6667 46.0892 53.6667 33V20.2469C53.6667 18.1149 53.6667 17.0489 53.318 16.1325C53.01 15.323 52.5094 14.6007 51.8596 14.0281C51.1241 13.3798 50.1259 13.0055 48.1296 12.2569L33.8315 6.89511C33.2771 6.68722 32.9999 6.58327 32.7148 6.54206C32.4618 6.50551 32.205 6.50551 31.952 6.54206C31.6668 6.58327 31.3897 6.68722 30.8353 6.89511L16.5371 12.2569C14.5409 13.0055 13.5427 13.3798 12.8071 14.0281C12.1573 14.6007 11.6568 15.323 11.3488 16.1325C11.0001 17.0489 11.0001 18.1149 11.0001 20.2469V33C11.0001 46.0892 25.2773 55.609 30.4721 58.6396Z" fill="white" fill-opacity="0.05"/>
<path d="M34.9506 59.9353C37.6051 58.3867 42.6059 55.1675 46.9609 50.6305C51.2992 46.1109 55.1667 40.1032 55.1667 33V20.2469C55.1667 20.1538 55.1668 20.0621 55.1668 19.9716C55.1679 18.1081 55.1686 16.778 54.72 15.5991C54.3253 14.5619 53.684 13.6364 52.8514 12.9027C51.905 12.0687 50.6594 11.6024 48.9142 10.949C48.8294 10.9173 48.7435 10.8851 48.6563 10.8524L34.3582 5.49062C34.3251 5.4782 34.2921 5.46581 34.2594 5.45348C33.8033 5.28194 33.3797 5.12256 32.9293 5.05748C32.5341 5.00037 32.1327 5.00037 31.7375 5.05748C31.2871 5.12256 30.8634 5.28194 30.4074 5.45349C30.3746 5.46581 30.3417 5.4782 30.3086 5.49062L16.0105 10.8524C15.9233 10.8851 15.8374 10.9173 15.7526 10.949C14.0074 11.6024 12.7618 12.0687 11.8154 12.9027C10.9828 13.6364 10.3415 14.5619 9.94683 15.5991C9.49819 16.778 9.49893 18.1081 9.49996 19.9715C9.50001 20.0621 9.50006 20.1538 9.50006 20.2469V33C9.50006 40.1032 13.3676 46.1109 17.7059 50.6305C22.0609 55.1675 27.0617 58.3867 29.7162 59.9353C29.7462 59.9528 29.7762 59.9703 29.806 59.9878C30.3159 60.286 30.8041 60.5717 31.4597 60.7123C31.9904 60.8261 32.6764 60.8261 33.2071 60.7123C33.8626 60.5717 34.3509 60.286 34.8608 59.9878C34.8906 59.9703 34.9205 59.9528 34.9506 59.9353Z" stroke="white" stroke-opacity="0.24" stroke-width="3" stroke-linecap="round" stroke-linejoin="round"/>
</g>
<g filter="url(#filter1_b_1736_223)">
<path d="M24.3334 31.6667L29.6667 37L41.6667 25" stroke="white" stroke-opacity="0.72" stroke-width="4" stroke-linecap="round" stroke-linejoin="round"/>
</g>
<defs>
<filter id="filter0_b_1736_223" x="-4.00085" y="-8.48535" width="72.6685" height="82.783" filterUnits="userSpaceOnUse" color-interpolation-filters="sRGB">
<feFlood flood-opacity="0" result="BackgroundImageFix"/>
<feGaussianBlur in="BackgroundImageFix" stdDeviation="6"/>
<feComposite in2="SourceAlpha" operator="in" result="effect1_backgroundBlur_1736_223"/>
<feBlend mode="normal" in="SourceGraphic" in2="effect1_backgroundBlur_1736_223" result="shape"/>
</filter>
<filter id="filter1_b_1736_223" x="10.3334" y="11" width="45.3334" height="40" filterUnits="userSpaceOnUse" color-interpolation-filters="sRGB">
<feFlood flood-opacity="0" result="BackgroundImageFix"/>
<feGaussianBlur in="BackgroundImageFix" stdDeviation="6"/>
<feComposite in2="SourceAlpha" operator="in" result="effect1_backgroundBlur_1736_223"/>
<feBlend mode="normal" in="SourceGraphic" in2="effect1_backgroundBlur_1736_223" result="shape"/>
</filter>
<linearGradient id="paint0_linear_1736_223" x1="17.9999" y1="89.1146" x2="64.413" y2="80.9721" gradientUnits="userSpaceOnUse">
<stop stop-color="#1E50FF"/>
<stop offset="1" stop-color="#AA00FF"/>
</linearGradient>
</defs>
</svg>
