<svg width="67" height="67" viewBox="0 0 67 67" fill="none" xmlns="http://www.w3.org/2000/svg">
<path d="M55.7362 8.32927C56.2853 9.65734 57.3393 10.713 58.6665 11.2641L63.3203 13.1919C64.6484 13.742 65.7036 14.7972 66.2538 16.1254C66.8039 17.4536 66.8039 18.9459 66.2538 20.2741L64.3275 24.9247C63.7771 26.2535 63.7763 27.7473 64.3292 29.0754L66.2522 33.7247C66.5249 34.3825 66.6653 35.0877 66.6654 35.7998C66.6655 36.5119 66.5253 37.2171 66.2528 37.875C65.9803 38.5329 65.5808 39.1307 65.0772 39.6341C64.5736 40.1376 63.9757 40.5369 63.3178 40.8092L58.6673 42.7356C57.3393 43.2847 56.2837 44.3387 55.7326 45.666L53.8049 50.32C53.2547 51.6482 52.1996 52.7034 50.8714 53.2535C49.5433 53.8037 48.051 53.8037 46.7229 53.2535L42.0724 51.3272C40.7443 50.7784 39.2525 50.7795 37.9252 51.3303L33.2714 53.2553C31.944 53.8041 30.453 53.8037 29.126 53.254C27.7989 52.7043 26.7443 51.6503 26.1938 50.3235L24.2656 45.6682C23.7165 44.3401 22.6625 43.2845 21.3353 42.7333L16.6814 40.8056C15.3539 40.2557 14.299 39.2011 13.7487 37.8737C13.1984 36.5463 13.1976 35.0547 13.7466 33.7267L15.6729 29.0761C16.2217 27.7478 16.2206 26.2561 15.6698 24.9287L13.7463 20.2713C13.4735 19.6135 13.3331 18.9084 13.333 18.1963C13.3329 17.4842 13.4731 16.779 13.7456 16.1211C14.0181 15.4632 14.4176 14.8654 14.9212 14.3619C15.4248 13.8585 16.0227 13.4592 16.6806 13.1869L21.3311 11.2605C22.658 10.7118 23.713 9.65912 24.2645 8.3334L26.1922 3.67941C26.7423 2.35124 27.7975 1.29601 29.1256 0.745862C30.4537 0.195715 31.946 0.195715 33.2741 0.745862L37.9246 2.67223C39.2528 3.22102 40.7445 3.2199 42.0718 2.66911L46.7276 0.74885C48.0555 0.199012 49.5475 0.199124 50.8754 0.749163C52.2032 1.2992 53.2583 2.35413 53.8085 3.68196L55.7367 8.33733L55.7362 8.32927Z" fill="url(#paint0_linear_1959_549)"/>
<g filter="url(#filter0_b_1959_549)">
<path d="M47.7367 16.3293C48.2858 17.6573 49.3398 18.713 50.667 19.2641L55.3208 21.1919C56.6489 21.742 57.7041 22.7972 58.2542 24.1254C58.8044 25.4536 58.8044 26.9459 58.2542 28.2741L56.3279 32.9247C55.7776 34.2535 55.7768 35.7473 56.3297 37.0754L58.2526 41.7247C58.5254 42.3825 58.6658 43.0877 58.6659 43.7998C58.666 44.5119 58.5258 45.2171 58.2533 45.875C57.9808 46.5329 57.5813 47.1307 57.0777 47.6341C56.5741 48.1376 55.9762 48.5369 55.3183 48.8092L50.6678 50.7356C49.3398 51.2847 48.2842 52.3387 47.733 53.666L45.8054 58.32C45.2552 59.6482 44.2 60.7034 42.8719 61.2535C41.5438 61.8037 40.0515 61.8037 38.7234 61.2535L34.0729 59.3272C32.7448 58.7784 31.253 58.7795 29.9257 59.3303L25.2719 61.2553C23.9445 61.8041 22.4535 61.8037 21.1265 61.254C19.7994 60.7043 18.7448 59.6503 18.1943 58.3235L16.2661 53.6682C15.717 52.3401 14.6629 51.2845 13.3358 50.7333L8.68193 48.8056C7.35439 48.2557 6.29951 47.2011 5.74918 45.8737C5.19885 44.5463 5.1981 43.0547 5.74711 41.7267L7.6734 37.0761C8.22217 35.7478 8.22105 34.2561 7.67028 32.9287L5.74676 28.2713C5.47404 27.6135 5.33361 26.9084 5.3335 26.1963C5.33338 25.4842 5.47358 24.779 5.74609 24.1211C6.0186 23.4632 6.41807 22.8654 6.92168 22.3619C7.42529 21.8585 8.02316 21.4592 8.68114 21.1869L13.3316 19.2605C14.6585 18.7118 15.7135 17.6591 16.265 16.3334L18.1926 11.6794C18.7428 10.3512 19.798 9.29601 21.1261 8.74586C22.4542 8.19572 23.9465 8.19572 25.2746 8.74586L29.9251 10.6722C31.2532 11.221 32.745 11.2199 34.0723 10.6691L38.7281 8.74885C40.056 8.19901 41.548 8.19912 42.8758 8.74916C44.2037 9.2992 45.2588 10.3541 45.809 11.682L47.7372 16.3373L47.7367 16.3293Z" fill="white" fill-opacity="0.05"/>
<path d="M49.0864 15.6749C49.0993 15.7014 49.1114 15.7285 49.1228 15.7561C49.5199 16.7165 50.282 17.4798 51.2416 17.8785C51.2418 17.8786 51.242 17.8787 51.2422 17.8788L55.8948 19.806C57.5905 20.5084 58.9377 21.8557 59.6401 23.5514C60.3424 25.2471 60.3424 27.1524 59.6401 28.8481L57.7138 33.4987C57.3154 34.4605 57.3155 35.5404 57.7145 36.499L57.7158 36.5021L59.6383 41.1503C59.9865 41.9901 60.1658 42.8904 60.1659 43.7995C60.166 44.7087 59.9871 45.609 59.6391 46.449C59.2912 47.289 58.7812 48.0522 58.1382 48.6949C57.4953 49.3377 56.7319 49.8475 55.8919 50.1952L51.2418 52.1214L51.241 52.1217C50.2805 52.5189 49.517 53.2812 49.1184 54.2412L47.1912 58.894C46.4888 60.5897 45.1416 61.9369 43.446 62.6393C41.7503 63.3417 39.845 63.3417 38.1494 62.6393L33.5001 60.7135L49.0864 15.6749ZM49.0864 15.6749L47.1948 11.1079L47.1947 11.1077C46.4922 9.41247 45.1452 8.06561 43.4499 7.36335C41.755 6.66128 39.8507 6.66095 38.1556 7.36239C38.1552 7.36258 38.1547 7.36277 38.1543 7.36295L33.5004 9.28242L33.4974 9.28365C32.5376 9.68193 31.459 9.68283 30.4985 9.28616C30.4983 9.28608 30.4981 9.28599 30.4979 9.28591L25.8486 7.36005C24.153 6.65765 22.2477 6.65765 20.552 7.36005C18.8564 8.06245 17.5092 9.4097 16.8068 11.1054L14.88 15.7573C14.8799 15.7576 14.8798 15.7579 14.8797 15.7582C14.4807 16.7166 13.7178 17.4776 12.7584 17.8743L12.7576 17.8747L8.10754 19.8009C8.10739 19.8009 8.10724 19.801 8.10709 19.8011C7.2672 20.1487 6.50403 20.6584 5.86117 21.3011C5.21819 21.9439 4.70818 22.7071 4.36026 23.5471C4.01235 24.387 3.83335 25.2873 3.8335 26.1965C3.83364 27.1052 4.01274 28.005 4.36056 28.8445C4.36074 28.8449 4.36093 28.8453 4.36111 28.8458L6.28387 33.5013L6.28482 33.5035C6.68318 34.4636 6.68399 35.5426 6.28707 36.5033L4.36128 41.1527L4.3609 41.1536C3.65998 42.8491 3.66093 44.7534 4.36355 46.4482C5.06617 48.1429 6.41295 49.4893 8.10789 50.1914L12.7605 52.1186L49.0864 15.6749ZM30.5006 60.7157L30.499 60.7164L25.8452 62.6414L25.8451 62.6414C24.1503 63.3422 22.2467 63.3416 20.5524 62.6398C18.8581 61.938 17.5117 60.5923 16.8089 58.8984L16.8085 58.8976L14.8803 54.2422L14.8799 54.2413C14.4829 53.2812 13.721 52.5179 12.7617 52.1191L30.5006 60.7157ZM30.5006 60.7157C31.4602 60.3175 32.5386 60.3166 33.4989 60.713L30.5006 60.7157Z" stroke="white" stroke-opacity="0.24" stroke-width="3" stroke-linecap="round" stroke-linejoin="round"/>
</g>
<path d="M24 34.9999L29.3333 40.3333L41.3333 28.3333" stroke="white" stroke-opacity="0.72" stroke-width="4" stroke-linecap="round" stroke-linejoin="round"/>
<defs>
<filter id="filter0_b_1959_549" x="-9.6665" y="-6.66675" width="83.3335" height="83.3333" filterUnits="userSpaceOnUse" color-interpolation-filters="sRGB">
<feFlood flood-opacity="0" result="BackgroundImageFix"/>
<feGaussianBlur in="BackgroundImageFix" stdDeviation="6"/>
<feComposite in2="SourceAlpha" operator="in" result="effect1_backgroundBlur_1959_549"/>
<feBlend mode="normal" in="SourceGraphic" in2="effect1_backgroundBlur_1959_549" result="shape"/>
</filter>
<linearGradient id="paint0_linear_1959_549" x1="13.333" y1="89.8571" x2="70.4448" y2="77.462" gradientUnits="userSpaceOnUse">
<stop stop-color="#1E50FF"/>
<stop offset="1" stop-color="#AA00FF"/>
</linearGradient>
</defs>
</svg>
