<svg width="136" height="34" viewBox="0 0 136 34" fill="none" xmlns="http://www.w3.org/2000/svg">
<g clip-path="url(#clip0_1736_348)">
<path d="M40.2592 8.20681H41.3477C41.6247 8.20681 41.8501 8.43198 41.8501 8.70861V18.4423C41.8501 21.5174 43.5182 23.4603 46.6227 23.4603C49.7271 23.4603 51.3952 21.5174 51.3952 18.4423V8.70861C51.3952 8.43198 51.6207 8.20681 51.8976 8.20681H52.9861C53.263 8.20681 53.4885 8.43198 53.4885 8.70861V18.468C53.4885 22.6561 51.1891 25.326 46.6227 25.326C42.0562 25.326 39.7568 22.6304 39.7568 18.4938V8.70861C39.7504 8.43198 39.9758 8.20681 40.2592 8.20681ZM56.696 21.466C56.857 21.2601 57.1661 21.2408 57.3529 21.4209C58.48 22.5146 60.1675 23.4603 62.3058 23.4603C65.3072 23.4603 66.2669 21.8455 66.2669 20.5589C66.2669 18.5388 64.2252 17.9855 62.0031 17.3808C59.3044 16.6731 56.2966 15.9204 56.2966 12.6137C56.2966 9.84088 58.7699 7.94948 62.0804 7.94948C64.457 7.94948 66.3377 8.67645 67.7225 9.95668C67.9221 10.1368 67.9415 10.4456 67.7676 10.6515L67.1106 11.4557C66.9496 11.6551 66.6533 11.668 66.4665 11.4943C65.2364 10.3427 63.6133 9.81515 61.9258 9.81515C59.9034 9.81515 58.4672 10.9024 58.4672 12.485C58.4672 14.177 60.4123 14.6788 62.557 15.2578C65.3072 15.9912 68.4374 16.8468 68.4374 20.3787C68.4374 22.8234 66.7692 25.3195 62.2285 25.3195C59.5106 25.3195 57.4624 24.361 56.0712 22.9714C55.8909 22.7912 55.8715 22.5017 56.0326 22.3023L56.696 21.466ZM70.93 8.70861C70.93 8.43198 71.1554 8.20681 71.4323 8.20681H76.6815C81.905 8.20681 85.3185 11.861 85.3185 16.6281C85.3185 21.4209 81.9114 25.0236 76.6815 25.0236H71.4323C71.1554 25.0236 70.93 24.7984 70.93 24.5218V8.70861ZM76.688 23.1579C80.7778 23.1579 83.148 20.2308 83.148 16.6281C83.148 12.9932 80.8487 10.0725 76.688 10.0725H73.0296V23.1579H76.688ZM106.27 18.9248C106.27 15.3929 108.595 12.5429 112.305 12.5429C116.015 12.5429 118.34 15.3929 118.34 18.9248C118.34 22.4567 116.015 25.3324 112.305 25.3324C108.595 25.3324 106.27 22.4503 106.27 18.9248ZM116.343 18.9248C116.343 16.4544 114.907 14.2349 112.305 14.2349C109.703 14.2349 108.241 16.4544 108.241 18.9248C108.241 21.4209 109.703 23.6404 112.305 23.6404C114.907 23.6404 116.343 21.4209 116.343 18.9248ZM120.156 9.51922C120.156 8.81155 120.736 8.25828 121.419 8.25828C122.127 8.25828 122.707 8.81155 122.707 9.51922C122.707 10.2269 122.127 10.8059 121.419 10.8059C120.736 10.8059 120.156 10.2205 120.156 9.51922ZM120.987 12.8453H121.87C122.147 12.8453 122.372 13.0704 122.372 13.3471V24.5218C122.372 24.7984 122.147 25.0236 121.87 25.0236H120.987C120.71 25.0236 120.485 24.7984 120.485 24.5218V13.3471C120.485 13.0704 120.71 12.8453 120.987 12.8453ZM133.283 17.0591C133.283 14.9168 132.194 14.2349 130.558 14.2349C129.07 14.2349 127.653 15.142 126.945 16.1263V24.5218C126.945 24.7984 126.72 25.0236 126.443 25.0236H125.56C125.283 25.0236 125.058 24.7984 125.058 24.5218V13.3471C125.058 13.0704 125.283 12.8453 125.56 12.8453H126.443C126.72 12.8453 126.945 13.0704 126.945 13.3471V14.608C127.802 13.598 129.47 12.5429 131.286 12.5429C133.837 12.5429 135.176 13.8296 135.176 16.4737V24.5154C135.176 24.792 134.951 25.0172 134.674 25.0172H133.791C133.514 25.0172 133.289 24.792 133.289 24.5154L133.283 17.0591ZM90.104 16.6281C90.104 11.4557 93.9169 7.93018 98.6895 7.93018C101.517 7.93018 103.501 9.15895 104.84 10.8445C105.008 11.0568 104.95 11.372 104.712 11.5071L103.771 12.0282C103.559 12.1505 103.288 12.0926 103.134 11.906C102.135 10.6708 100.519 9.80228 98.6895 9.80228C95.0762 9.80228 92.2745 12.6265 92.2745 16.6345C92.2745 20.6168 95.0762 23.4667 98.6895 23.4667C100.525 23.4667 102.142 22.6175 103.134 21.363C103.288 21.17 103.552 21.1186 103.771 21.2344L104.724 21.7555C104.969 21.8906 105.027 22.2122 104.853 22.4245C103.462 24.1229 101.517 25.3324 98.6895 25.3324C93.9169 25.326 90.104 21.8005 90.104 16.6281Z" fill="white"/>
<path d="M17.4203 33.0328C26.4909 33.0328 33.8442 25.688 33.8442 16.6277C33.8442 7.56745 26.4909 0.222656 17.4203 0.222656C8.34967 0.222656 0.99646 7.56745 0.99646 16.6277C0.99646 25.688 8.34967 33.0328 17.4203 33.0328Z" fill="white"/>
<path d="M14.3417 28.0345C14.3417 28.4205 14.039 28.6393 13.6654 28.5235C8.69961 26.9409 5.09924 22.2895 5.09924 16.8019C5.09924 11.3142 8.69961 6.66292 13.6654 5.08031C14.039 4.96451 14.3417 5.18324 14.3417 5.56924V6.52138C14.3417 6.77871 14.142 7.08108 13.8973 7.16472C9.96843 8.60579 7.15383 12.3757 7.15383 16.7955C7.15383 21.2152 9.96843 24.9851 13.8973 26.4262C14.142 26.5163 14.3417 26.8122 14.3417 27.0695V28.0345Z" fill="#080808"/>
<path d="M18.4444 24.4897C18.4444 24.7728 18.2126 25.0044 17.9292 25.0044H16.9051C16.6217 25.0044 16.3898 24.7728 16.3898 24.4897V22.8685C14.1485 22.5661 13.0535 21.3116 12.7573 19.6068C12.7057 19.3173 12.9376 19.0535 13.2339 19.0535H14.4061C14.6508 19.0535 14.8569 19.2272 14.9085 19.4717C15.1274 20.4881 15.7136 21.2666 17.5105 21.2666C18.8373 21.2666 19.7777 20.5267 19.7777 19.4202C19.7777 18.3137 19.2237 17.8955 17.2787 17.5738C14.4061 17.1878 13.0471 16.3193 13.0471 14.0676C13.0471 12.3306 14.361 10.9796 16.3963 10.6901V9.10109C16.3963 8.81803 16.6281 8.58643 16.9115 8.58643H17.9356C18.219 8.58643 18.4509 8.81803 18.4509 9.10109V10.7352C20.1061 11.0311 21.156 11.9704 21.4973 13.5272C21.5617 13.8232 21.3299 14.0998 21.0272 14.0998H19.9451C19.7132 14.0998 19.52 13.9454 19.4492 13.7202C19.1593 12.7295 18.4509 12.3049 17.2207 12.3049C15.8617 12.3049 15.1597 12.9611 15.1597 13.8811C15.1597 14.8525 15.559 15.3415 17.6458 15.6438C20.4668 16.0298 21.9224 16.834 21.9224 19.2336C21.9224 21.0543 20.5699 22.5275 18.4509 22.8685V24.4897H18.4444Z" fill="#080808"/>
<path d="M21.1754 28.5237C20.8018 28.6395 20.4991 28.4208 20.4991 28.0348V27.0826C20.4991 26.7996 20.673 26.5358 20.9435 26.4393C24.8723 24.9982 27.6869 21.2283 27.6869 16.8086C27.6869 12.3888 24.8723 8.61889 20.9435 7.17782C20.6987 7.08775 20.4991 6.79181 20.4991 6.53448V5.58234C20.4991 5.19634 20.8018 4.97118 21.1754 5.09341C26.1412 6.67602 29.7415 11.3273 29.7415 16.815C29.7351 22.2898 26.1412 26.9347 21.1754 28.5237Z" fill="#080808"/>
</g>
<defs>
<clipPath id="clip0_1736_348">
<rect width="134.956" height="33.25" fill="white" transform="translate(0.75)"/>
</clipPath>
</defs>
</svg>
