<svg width="132" height="36" viewBox="0 0 132 36" fill="none" xmlns="http://www.w3.org/2000/svg">
<g clip-path="url(#clip0_1736_334)">
<path d="M18.2567 0.959961C8.85433 0.959961 1.25854 8.56391 1.25854 17.9764C1.25854 19.8671 1.54595 21.6756 2.12077 23.3608H7.212V9.05714L18.2567 20.1137L29.3014 9.05714V23.3608H34.3926C34.9674 21.6756 35.2548 19.8671 35.2548 17.9764C35.2548 8.60502 27.659 0.959961 18.2567 0.959961Z" fill="white"/>
<path d="M10.9069 26.8553V17.8539L18.2564 25.2112L25.6058 17.8539V26.8553H32.791C29.7938 31.7465 24.4151 35.0347 18.2564 35.0347C12.0976 35.0347 6.719 31.7465 3.72174 26.8553H10.9069ZM71.0163 14.1136C72.4533 15.5522 73.1924 17.3607 73.1924 19.4158C73.1924 21.4709 72.4944 23.2383 71.0573 24.6769C69.6203 26.1155 67.8958 26.8142 65.884 26.8142C63.749 26.8142 61.9835 26.0744 60.5875 24.5947C59.1915 23.115 58.4524 21.3887 58.4524 19.3336C58.4524 17.9772 58.7809 16.7441 59.4378 15.5933C60.0948 14.4424 60.9981 13.5381 62.1477 12.8805C63.2973 12.2229 64.5291 11.894 65.8429 11.894C67.8137 11.9351 69.5792 12.675 71.0163 14.1136ZM128.621 14.1136C130.058 15.5522 130.797 17.3607 130.797 19.4158C130.797 21.4709 130.099 23.2383 128.662 24.6769C127.225 26.1155 125.501 26.8142 123.489 26.8142C121.354 26.8142 119.588 26.0744 118.192 24.5947C116.796 23.115 116.057 21.3887 116.057 19.3336C116.057 17.9772 116.386 16.7441 117.043 15.5933C117.7 14.4424 118.603 13.5381 119.752 12.8805C120.902 12.2229 122.134 11.894 123.448 11.894C125.46 11.9351 127.184 12.675 128.621 14.1136ZM108.297 11.9351C109.94 11.9351 111.13 12.0996 111.828 12.3873C112.526 12.675 113.101 13.1682 113.512 13.867C113.922 14.5657 114.127 15.3466 114.127 16.292C114.127 17.2785 113.881 18.1005 113.429 18.7582C112.978 19.4158 112.239 19.909 111.294 20.2378L114.825 26.8553H111.705L108.338 20.5256H105.875V26.8553H103.042V11.9351H108.297ZM100.044 14.689H93.1878V17.7306H100.044V20.4434H93.1878V24.0604H100.044V26.8553H90.3958V11.9351H100.044V14.689ZM57.3849 26.8553H54.634L53.0327 17.4429L49.8713 26.8553H47.3667L44.2463 17.4429L42.6039 26.8553H39.853L42.4397 11.9351H45.2317L48.6806 22.3341L52.1705 11.9351H54.9214L57.3849 26.8553ZM75.4095 11.9351H78.1194L84.5245 21.7586V11.9351H87.3575V26.8553H84.6476L78.2425 17.073V26.8553H75.4095V11.9351ZM69.1276 22.8273C70.0309 21.8819 70.4825 20.7722 70.4825 19.4158C70.4825 18.0594 70.0309 16.9085 69.1276 15.9632C68.2243 15.0178 67.1157 14.5657 65.8019 14.5657C64.488 14.5657 63.3794 15.0178 62.4762 15.9221C61.5729 16.8263 61.1212 18.0183 61.1212 19.4158C61.1212 20.9777 61.696 22.2519 62.8046 23.1561C63.6668 23.8549 64.6933 24.2248 65.8019 24.2248C67.1157 24.2248 68.2243 23.7726 69.1276 22.8273ZM126.732 22.8273C127.636 21.8819 128.087 20.7722 128.087 19.4158C128.087 18.0594 127.636 16.9085 126.732 15.9632C125.829 15.0178 124.721 14.5657 123.407 14.5657C122.093 14.5657 120.984 15.0178 120.081 15.9221C119.178 16.8263 118.726 18.0183 118.726 19.4158C118.726 20.9777 119.301 22.2519 120.409 23.1561C121.272 23.8549 122.298 24.2248 123.407 24.2248C124.762 24.2248 125.829 23.7726 126.732 22.8273ZM110.884 17.4018C111.212 17.1552 111.377 16.7852 111.377 16.2098C111.377 15.881 111.294 15.5933 111.13 15.3466C110.966 15.1 110.72 14.9356 110.473 14.8123C110.186 14.689 110.063 14.6479 109.365 14.6479H105.916V17.6895H109.488C110.391 17.7717 110.555 17.6484 110.884 17.4018Z" fill="white"/>
</g>
<defs>
<clipPath id="clip0_1736_334">
<rect width="130.312" height="34.75" fill="white" transform="translate(0.872803 0.625)"/>
</clipPath>
</defs>
</svg>
