<svg width="114" height="33" viewBox="0 0 114 33" fill="none" xmlns="http://www.w3.org/2000/svg">
<g clip-path="url(#clip0_1736_362)">
<path fill-rule="evenodd" clip-rule="evenodd" d="M32.6723 16.6042C32.6723 25.2413 25.6176 32.2284 16.8961 32.2284C8.19138 32.2284 1.11987 25.2244 1.11987 16.6042C1.11987 7.98393 8.17454 0.97998 16.8961 0.97998C25.6176 0.97998 32.6723 7.9671 32.6723 16.6042Z" fill="white"/>
<path fill-rule="evenodd" clip-rule="evenodd" d="M17.7045 15.2906C17.7381 15.1559 17.7381 15.0886 17.755 15.0212C18.5968 12.2264 19.4218 9.41472 20.2637 6.61987C20.4657 5.94641 20.2973 5.72754 19.5734 5.72754C18.681 5.72754 17.7718 5.72754 16.8795 5.72754C16.1891 5.72754 16.0376 5.82856 15.8524 6.46834C14.8759 9.75145 13.8825 13.0514 12.9228 16.3345C12.8218 16.6881 12.6366 16.8733 12.283 16.9574C11.7105 17.109 11.1381 17.2942 10.5824 17.4962C10.4309 17.5467 10.2457 17.6814 10.1952 17.8329C10.0268 18.3212 9.90897 18.8263 9.7406 19.3819C10.5824 19.1293 11.3738 18.8936 12.2156 18.6411C11.458 21.2002 10.7171 23.6752 9.95948 26.2343H10.5993H16.1891C18.4621 26.2343 20.7351 26.2343 23.0249 26.2343C23.5637 26.2343 23.9004 26.0491 24.0351 25.5103C24.1867 24.8369 24.4056 24.1803 24.5908 23.5068C24.8096 22.7492 24.6581 22.5471 23.8499 22.5471C21.2739 22.5471 18.7147 22.5471 16.1386 22.5471H15.5325C16.0713 20.7793 16.5764 19.062 17.1152 17.3615C17.1657 17.2268 17.3341 17.0753 17.4856 17.0248C18.0749 16.8227 18.6978 16.6712 19.2871 16.4692C19.4387 16.4187 19.6407 16.3345 19.6912 16.2166C19.8764 15.6947 20.0111 15.1559 20.1963 14.5667C19.304 14.8192 18.5463 15.0381 17.7045 15.2906Z" fill="white"/>
<path fill-rule="evenodd" clip-rule="evenodd" d="M46.9501 5.62689C46.2598 5.61005 45.721 6.09831 45.6873 6.77176C45.6536 7.42838 46.1924 7.98399 46.8491 8.00082C47.5394 8.01766 48.0781 7.5294 48.1118 6.85594C48.1455 6.18249 47.6235 5.64372 46.9501 5.62689ZM99.7506 5.62689C99.0603 5.61005 98.5384 6.09831 98.5216 6.7886C98.5047 7.46206 99.0098 7.98399 99.7001 8.00082C100.39 8.01766 100.912 7.51257 100.929 6.83911C100.946 6.16565 100.424 5.64372 99.7506 5.62689ZM46.3608 11.4691C45.5021 11.4691 45.5189 11.4691 45.4348 12.3446C45.4011 12.715 45.3337 13.0854 45.3001 13.4558C45.0307 15.4594 44.7781 17.4797 44.5087 19.4833C44.2562 21.4868 44.0036 23.5072 43.7174 25.5107C43.6332 26.1505 43.6669 26.2178 44.3404 26.2178C44.475 26.2178 44.6097 26.2178 44.7613 26.2178C45.1148 26.2347 45.2832 26.0663 45.3337 25.7127C45.5694 23.8102 45.822 21.8909 46.0577 19.9884C46.3776 17.3956 46.6975 14.8196 47.0174 12.2268C47.1016 11.4691 47.1184 11.4691 46.3608 11.4691ZM98.8246 11.4691C98.471 11.4691 98.2858 11.5701 98.2353 11.9405C97.9491 14.163 97.6629 16.4022 97.3766 18.6246C97.0904 20.8807 96.8042 23.1536 96.5011 25.4097C96.4001 26.1842 96.4169 26.2347 97.1914 26.2347C98.0164 26.2347 98.0333 26.2347 98.1006 25.376C98.1175 25.1235 98.168 24.8709 98.2016 24.6184C98.4542 22.598 98.7236 20.5608 98.9761 18.5404C99.2287 16.5032 99.5149 14.4492 99.7506 12.412C99.8685 11.4523 99.8348 11.4691 98.8246 11.4691ZM41.2087 5.7279C40.8888 5.76158 40.4342 5.57638 40.3668 6.16565C40.2995 6.68758 40.2321 7.20951 40.1648 7.73144C39.8112 10.5768 39.4576 13.4053 39.1041 16.2507C38.7168 19.3654 38.2959 22.4633 37.8918 25.5781C37.8245 26.1673 37.875 26.2178 38.4811 26.2178C38.5821 26.2178 38.6831 26.2178 38.7842 26.2178C39.1883 26.2515 39.4071 26.1337 39.4576 25.6622C39.7775 23.0021 40.1143 20.3588 40.4679 17.7154C40.9561 13.9609 41.4276 10.2232 41.9158 6.46871C42.0169 5.72791 42.0169 5.7279 41.2087 5.7279ZM55.3517 12.7319C54.4762 12.715 53.6007 12.7319 52.6578 12.7319C52.8598 11.0819 53.045 9.48243 53.2471 7.78195C52.8093 7.78195 52.4557 7.79878 52.119 7.78195C51.7991 7.76511 51.6812 7.91664 51.6476 8.20286C51.4455 9.90334 51.2267 11.6207 51.0078 13.3211C50.7552 15.3752 50.469 17.4461 50.2333 19.5001C50.0481 21.0659 49.8797 22.6485 49.7787 24.2311C49.7113 25.2582 50.4185 26.0663 51.4119 26.3189C52.2705 26.5377 53.1124 26.4536 53.9374 26.1673C54.0889 26.1168 54.2741 25.9148 54.3078 25.7633C54.5435 24.5679 54.5435 24.5679 53.3649 24.8709C51.9001 25.2582 51.2098 24.7026 51.3108 23.221C51.3108 23.1199 51.3445 23.0189 51.3613 22.9179C51.5802 21.1164 51.8159 19.2981 52.0348 17.4966C52.1864 16.3517 52.321 15.2068 52.4726 14.0619C52.5904 14.0451 52.6578 14.0451 52.7251 14.0451C53.5838 14.0451 54.4425 14.0619 55.3012 14.0451C55.8063 14.0283 55.9241 13.8262 55.9241 13.0854C55.941 12.5972 55.5874 12.7319 55.3517 12.7319ZM80.8765 13.4558C80.1861 11.9574 78.8729 11.3849 77.2565 11.2671C74.4111 11.0651 72.0202 12.7992 71.3973 15.3247C70.7911 17.7154 70.4376 20.1399 70.5049 22.6148C70.5554 24.2143 71.3299 25.477 72.8958 26.0832C75.9264 27.2617 79.6137 25.7464 80.4555 22.2444C80.5397 21.8909 80.4724 21.7562 80.1188 21.773C79.9673 21.773 79.7989 21.7899 79.6474 21.773C79.1928 21.7057 78.9739 21.8909 78.856 22.3455C78.6203 23.2041 78.0984 23.9113 77.3239 24.3995C76.1285 25.174 74.832 25.3423 73.5524 24.7194C72.3065 24.0965 71.9192 22.9516 72.0539 21.6552C72.2391 19.8368 72.4917 18.0353 72.7611 16.2338C73.0641 14.1966 74.2259 13.0012 76.2463 12.6814C77.6606 12.4625 79.277 13.1359 79.6642 14.8532C79.7316 15.19 79.7484 15.5267 79.7989 15.9139C80.2198 15.9139 80.7081 15.9139 81.0953 15.8971C81.23 15.8971 81.3479 15.8466 81.3142 15.493C81.1964 14.7859 81.1627 14.0619 80.8765 13.4558ZM92.3761 16.0991C92.3592 16.3012 92.0225 19.9884 91.6353 21.9751C91.1807 24.1975 89.0087 25.477 86.8704 24.9214C85.6076 24.6015 84.7321 23.5409 84.7658 22.2276C84.8163 20.948 84.951 19.6853 85.1025 18.4057C85.2204 17.4629 85.3551 16.5201 85.574 15.5941C86.0791 13.4895 88.0995 12.2604 90.2209 12.6982C91.4164 12.9507 92.3424 14.0114 92.4097 15.2237C92.4266 15.4762 92.4098 15.8971 92.3761 16.0991ZM89.9684 11.2503C87.1903 11.0819 84.7826 12.6814 84.0755 15.3583C83.5199 17.4797 83.301 19.6516 83.2 21.8235C83.2 22.0592 83.2 22.295 83.2 22.5475C83.2168 24.248 84.2943 25.7127 85.9275 26.201C88.975 27.1102 92.3761 25.5781 93.1169 22.2613C93.5041 20.4935 93.723 18.6751 93.9419 16.8568C94.0429 16.0318 94.0598 15.1731 93.9082 14.365C93.5547 12.513 92.0057 11.3681 89.9684 11.2503ZM66.6493 16.3349C66.6156 16.4696 66.4641 16.6379 66.3294 16.6716C64.0059 17.3956 61.6824 18.1027 59.1737 18.8603C59.4767 17.4629 59.6114 16.1665 60.0492 14.9543C60.7732 12.9507 63.2819 12.0247 65.1339 12.9339C66.3125 13.54 67.0197 15.0721 66.6493 16.3349ZM64.1911 11.2503C61.4298 11.0987 59.0221 12.6645 58.3318 15.3078C57.7762 17.4124 57.5237 19.5506 57.4395 21.7225C57.4395 22.0087 57.4226 22.3118 57.4395 22.598C57.5237 24.1133 58.1971 25.2918 59.5946 25.9485C62.1706 27.1607 66.0263 26.1842 67.2049 22.8C67.5753 21.7394 67.5921 21.7393 66.4641 21.7393C66.0936 21.7393 65.9253 21.8572 65.8243 22.2276C65.538 23.2378 64.9151 24.0123 64.0059 24.551C62.4569 25.4602 60.4196 25.1235 59.4936 23.8102C59.0053 23.1031 58.9885 22.3118 59.0053 21.5036C59.0221 20.4766 59.0221 20.4766 59.9818 20.1736C60.0997 20.1399 60.2176 20.1062 60.3186 20.0725C62.7599 19.3149 65.2013 18.5741 67.6426 17.8165C67.8447 17.7491 68.1646 17.5302 68.1646 17.3619C68.2151 16.3854 68.2993 15.3752 68.1478 14.4155C67.8279 12.513 66.1947 11.3681 64.1911 11.2503ZM112.799 13.9778C112.53 12.9339 112.008 12.0584 110.964 11.6375C109.162 10.9304 107.462 11.1492 105.913 12.3109C105.644 12.513 105.442 12.8329 105.206 13.1023L105.088 13.0012C105.105 12.7655 105.122 12.5298 105.138 12.2941C105.155 12.1763 105.172 12.0584 105.189 11.9405C105.273 11.5701 105.122 11.4186 104.768 11.4523C104.633 11.4691 104.499 11.4523 104.347 11.4523C103.657 11.4523 103.657 11.486 103.573 12.1594C103.337 14.1798 103.068 16.1833 102.815 18.2037C102.512 20.5776 102.209 22.9347 101.923 25.3087C101.805 26.2347 101.838 26.2178 102.815 26.2178C103.253 26.2178 103.438 26.0326 103.472 25.6117C103.505 25.174 103.556 24.7362 103.623 24.2985C103.96 21.7225 104.313 19.1634 104.617 16.5874C104.785 15.0721 105.307 13.7926 106.721 13.0518C108.59 12.0752 111.385 12.6814 111.25 15.6951C111.217 16.6547 111.048 17.6313 110.93 18.5909C110.644 20.8807 110.358 23.1536 110.055 25.4434C109.954 26.1337 110.004 26.2178 110.728 26.2178C110.829 26.2178 110.93 26.2178 111.031 26.2178C111.419 26.2515 111.604 26.0831 111.638 25.6959C111.941 23.1199 112.26 20.544 112.58 17.9848C112.665 17.345 112.782 16.7221 112.883 16.0823V14.2303C112.867 14.163 112.816 14.0619 112.799 13.9778Z" fill="white"/>
<path fill-rule="evenodd" clip-rule="evenodd" d="M17.7042 15.2904C18.546 15.0378 19.3037 14.8021 20.1624 14.5496C19.9772 15.1557 19.8425 15.6945 19.6573 16.1995C19.6068 16.3174 19.4047 16.4184 19.2532 16.4521C18.6471 16.6541 18.0409 16.8057 17.4516 17.0077C17.3001 17.0582 17.1317 17.2097 17.0812 17.3444C16.5425 19.0449 16.0373 20.7622 15.4986 22.53H16.1047C18.6807 22.53 21.24 22.53 23.816 22.53C24.6242 22.53 24.7757 22.7321 24.5568 23.4897C24.3716 24.1632 24.1696 24.8198 24.0012 25.4933C23.8665 26.0489 23.5466 26.2341 22.991 26.2172C20.718 26.2004 18.445 26.2172 16.1552 26.2172H10.5653H9.92554C10.6832 23.6581 11.424 21.1663 12.1817 18.624C11.3398 18.8765 10.5485 19.1122 9.70667 19.3648C9.8582 18.8092 9.97606 18.3041 10.1613 17.8158C10.2118 17.6812 10.397 17.5465 10.5485 17.4791C11.1041 17.2771 11.6766 17.0919 12.249 16.9403C12.6026 16.8393 12.771 16.671 12.8888 16.3174C13.8485 13.0175 14.8419 9.73436 15.8185 6.45125C16.0037 5.81147 16.1552 5.71045 16.8455 5.71045C17.7379 5.71045 18.6302 5.71045 19.5394 5.71045C20.2634 5.71045 20.4318 5.92932 20.2297 6.60278C19.3879 9.39763 18.5629 12.2093 17.721 15.0042C17.7379 15.0883 17.721 15.1557 17.7042 15.2904Z" fill="#080808"/>
</g>
<defs>
<clipPath id="clip0_1736_362">
<rect width="112.398" height="31.5" fill="white" transform="translate(0.88916 0.875)"/>
</clipPath>
</defs>
</svg>
