<svg width="141" height="40" viewBox="0 0 141 40" fill="none" xmlns="http://www.w3.org/2000/svg">
<path d="M134.214 9.34421L130.931 29.9214C130.919 29.9969 130.923 30.0742 130.944 30.1479C130.965 30.2216 131.002 30.2898 131.052 30.3479C131.102 30.4059 131.164 30.4523 131.234 30.4838C131.304 30.5153 131.38 30.5312 131.457 30.5303H135.342C135.479 30.5315 135.612 30.4837 135.717 30.3955C135.822 30.3072 135.891 30.1845 135.913 30.0495L139.196 9.47237C139.209 9.39681 139.204 9.31948 139.183 9.24581C139.163 9.17213 139.126 9.10389 139.076 9.04587C139.026 8.98785 138.964 8.94145 138.894 8.90993C138.824 8.8784 138.748 8.86252 138.671 8.86339H134.786C134.648 8.86068 134.514 8.90797 134.409 8.99645C134.304 9.08493 134.235 9.20854 134.214 9.34421ZM130.065 15.3491H126.379C126.242 15.3478 126.109 15.3955 126.004 15.4835C125.9 15.5716 125.83 15.6942 125.808 15.8291L125.687 16.5867C125.687 16.5867 122.823 13.4895 117.754 15.5826C114.845 16.7809 113.449 19.2569 112.855 21.0707C112.855 21.0707 110.97 26.5834 115.234 29.6177C115.234 29.6177 119.188 32.536 123.641 29.4381L123.564 29.9214C123.546 30.0349 123.566 30.1511 123.621 30.2522C123.675 30.3534 123.762 30.4338 123.867 30.4813C123.936 30.514 124.012 30.5303 124.089 30.5303H127.778C127.916 30.533 128.049 30.4857 128.155 30.3973C128.26 30.3088 128.329 30.1852 128.349 30.0495L130.593 15.9581C130.606 15.8826 130.601 15.8053 130.58 15.7317C130.559 15.6582 130.522 15.5902 130.471 15.5328C130.421 15.4743 130.359 15.4274 130.289 15.3955C130.219 15.3636 130.142 15.3483 130.065 15.3491ZM124.641 23.1369C124.497 24.1214 123.998 25.0198 123.237 25.6634C122.473 26.3094 121.501 26.6581 120.5 26.6454C120.107 26.65 119.716 26.5932 119.341 26.4773C117.75 25.9711 116.841 24.4577 117.102 22.8169C117.247 21.8328 117.747 20.9352 118.507 20.292C119.27 19.6456 120.242 19.2958 121.243 19.3067C121.636 19.3026 122.027 19.3599 122.402 19.4765C124.003 19.9793 124.907 21.4952 124.645 23.1377H124.641V23.1369ZM104.955 23.5262C106.954 23.5262 108.888 22.8177 110.407 21.5295C111.922 20.2457 112.926 18.462 113.235 16.5026C113.88 12.4267 110.665 8.86911 106.107 8.86911H98.7642C98.6272 8.86779 98.4942 8.91561 98.3895 9.00386C98.2849 9.0921 98.2154 9.21491 98.1939 9.34992L94.9099 29.9271C94.8921 30.0406 94.912 30.1568 94.9667 30.2579C95.0214 30.3591 95.1078 30.4396 95.2127 30.4871C95.2831 30.5197 95.3584 30.536 95.4353 30.536H99.3232C99.4602 30.5374 99.5932 30.4895 99.6979 30.4013C99.8025 30.313 99.872 30.1902 99.8935 30.0552L100.858 24.0128C100.878 23.877 100.947 23.7532 101.052 23.6645C101.157 23.5759 101.291 23.5285 101.429 23.5311L104.955 23.5262ZM108.207 16.3173C107.967 17.8242 106.79 18.9336 104.539 18.9336H101.661L102.535 13.4536H105.362C107.689 13.4577 108.447 14.8169 108.207 16.3214V16.3173Z" fill="white"/>
<path d="M90.4803 15.6977L86.0335 23.1304L83.7765 15.7524C83.7412 15.6347 83.6684 15.5316 83.5692 15.4587C83.4701 15.3858 83.3498 15.3471 83.2266 15.3484H79.2135C79.1097 15.347 79.0089 15.383 78.9296 15.4499C78.8504 15.5168 78.798 15.6101 78.7822 15.7124C78.7725 15.7803 78.7795 15.8495 78.8027 15.9141L82.8469 28.3418L79.1889 34.1981C79.1579 34.2464 79.137 34.3004 79.1276 34.3569C79.1182 34.4135 79.1205 34.4713 79.1343 34.5269C79.1481 34.5826 79.1731 34.6348 79.2078 34.6805C79.2425 34.7261 79.2862 34.7642 79.3362 34.7924C79.4032 34.8308 79.4792 34.8505 79.5564 34.8496H83.8788C84.0022 34.85 84.1235 34.8187 84.2312 34.7586C84.3388 34.6985 84.4292 34.6118 84.4934 34.5067L95.7896 16.003C95.8305 15.9386 95.853 15.8642 95.8546 15.788C95.8562 15.7117 95.8368 15.6365 95.7986 15.5704C95.7604 15.5041 95.7052 15.4492 95.6385 15.4115C95.5719 15.3737 95.4963 15.3544 95.4197 15.3557H91.0989C90.975 15.3546 90.8528 15.3855 90.7444 15.4454C90.636 15.5054 90.545 15.5923 90.4803 15.6977ZM76.9385 15.3484H73.2487C73.1114 15.347 72.9783 15.3949 72.8734 15.4833C72.7686 15.5717 72.6991 15.6948 72.6775 15.83L72.558 16.5867C72.558 16.5867 69.6922 13.4896 64.6227 15.5826C61.7151 16.781 60.3182 19.2569 59.7266 21.0708C59.7266 21.0708 57.8395 26.5835 62.103 29.6177C62.103 29.6177 66.058 32.5361 70.5106 29.4381L70.4336 29.9214C70.4155 30.035 70.4354 30.1513 70.4901 30.2525C70.5448 30.3537 70.6314 30.4341 70.7364 30.4814C70.806 30.5141 70.8821 30.5304 70.959 30.5304H74.648C74.785 30.5314 74.9178 30.4834 75.0224 30.3952C75.127 30.3071 75.1965 30.1844 75.2184 30.0496L77.4631 15.9581C77.4814 15.8445 77.4616 15.728 77.4069 15.6266C77.3522 15.5252 77.2655 15.4447 77.1603 15.3973C77.0905 15.3653 77.0154 15.3486 76.9385 15.3484ZM71.513 23.1377C71.3678 24.1211 70.8686 25.018 70.1087 25.661C69.3453 26.3069 68.374 26.6565 67.3731 26.6455C66.9809 26.6498 66.5905 26.5931 66.216 26.4773C64.6251 25.9712 63.7176 24.4577 63.9786 22.8161C64.124 21.8299 64.6254 20.9306 65.3886 20.2871C66.1547 19.6408 67.1293 19.2926 68.1325 19.3067C68.5253 19.3026 68.9173 19.3598 69.2921 19.4765C70.8772 19.9794 71.7798 21.4945 71.5179 23.1377H71.513ZM51.8281 23.5263C53.8239 23.5253 55.7543 22.8167 57.2749 21.5271C58.7891 20.2433 59.7915 18.4602 60.0997 16.5018C60.7462 12.4267 57.5302 8.86917 52.9737 8.86917H45.63C45.493 8.8678 45.36 8.91547 45.2552 9.00354C45.1504 9.09161 45.0807 9.21424 45.0588 9.34917L41.7855 29.9206C41.7672 30.0343 41.787 30.1508 41.8417 30.2522C41.8964 30.3535 41.9831 30.4341 42.0883 30.4814C42.1578 30.5133 42.234 30.5304 42.3109 30.5304H46.1963C46.3336 30.5317 46.4667 30.4838 46.5716 30.3954C46.6764 30.307 46.7459 30.184 46.7675 30.0488L47.7299 24.0063C47.7503 23.8706 47.8195 23.747 47.9247 23.6586C48.0298 23.5701 48.1636 23.5228 48.3011 23.5255L51.8281 23.5263ZM55.0801 16.3165C54.8403 17.8235 53.6644 18.9328 51.4132 18.9328H48.5351L49.4074 13.4528H52.234C54.5621 13.4569 55.3191 14.8169 55.0801 16.3206V16.3165Z" fill="white"/>
<path d="M26.7094 9.92636C26.797 5.38269 23.04 1.89697 17.8739 1.89697H7.18814C6.93913 1.89686 6.69826 1.98545 6.50892 2.14678C6.31958 2.30812 6.19421 2.5316 6.15541 2.77697L1.8739 29.4651C1.85475 29.5861 1.86209 29.7097 1.89543 29.8276C1.92878 29.9454 1.98732 30.0546 2.06704 30.1477C2.14676 30.2408 2.24576 30.3156 2.35722 30.3669C2.46868 30.4181 2.58995 30.4447 2.71269 30.4447H9.0433L8.05394 36.6243C8.03478 36.7453 8.04213 36.8689 8.07547 36.9867C8.10881 37.1046 8.16735 37.2138 8.24707 37.3069C8.32679 37.4 8.42579 37.4748 8.53725 37.526C8.64871 37.5773 8.76998 37.6039 8.89272 37.6039H14.0498C14.2986 37.6039 14.5204 37.5149 14.7102 37.3541C14.8985 37.1925 14.9295 36.9696 14.9688 36.7239L16.4827 27.839C16.5212 27.5941 16.6464 27.2757 16.8354 27.1141C17.0245 26.9525 17.1898 26.8643 17.4394 26.8643H20.5949C25.6546 26.8643 29.9467 23.2766 30.7315 18.2872C31.2872 14.746 29.7651 11.5239 26.7094 9.92636Z" fill="white"/>
<path d="M10.413 20.6025L8.83609 30.5764L7.84591 36.8327C7.82688 36.9537 7.83434 37.0773 7.86779 37.1951C7.90124 37.3129 7.95988 37.422 8.03967 37.5151C8.11946 37.6081 8.21852 37.6828 8.33001 37.7339C8.4415 37.7851 8.56279 37.8116 8.68552 37.8115H14.1438C14.3926 37.8114 14.6331 37.7227 14.8222 37.5613C15.0112 37.4 15.1363 37.1767 15.1749 36.9315L16.6135 27.8384C16.6523 27.5932 16.7775 27.3698 16.9667 27.2085C17.1559 27.0472 17.3965 26.9585 17.6454 26.9584H20.8582C25.9179 26.9584 30.2101 23.2768 30.9957 18.2874C31.5521 14.7462 29.7649 11.5233 26.7093 9.92578C26.7011 10.3029 26.6683 10.6792 26.6102 11.0523C25.8255 16.0401 21.5317 19.7225 16.4736 19.7225H11.4449C11.196 19.7228 10.9553 19.8116 10.7661 19.9731C10.577 20.1346 10.4518 20.3572 10.413 20.6025Z" fill="white"/>
<path d="M8.8356 30.5765H2.48536C2.36265 30.5765 2.24139 30.5499 2.12996 30.4986C2.01854 30.4474 1.91958 30.3726 1.83992 30.2795C1.76027 30.1863 1.7018 30.0771 1.66856 29.9593C1.63533 29.8414 1.6281 29.7178 1.64739 29.5969L5.92889 2.51281C5.96768 2.26758 6.09292 2.04421 6.28209 1.88289C6.47126 1.72157 6.71194 1.63289 6.96081 1.63281H17.8741C23.0402 1.63281 26.7971 5.38302 26.7096 9.92587C25.424 9.25322 23.9133 8.86873 22.2587 8.86873H13.1605C12.9115 8.86861 12.6706 8.9572 12.4813 9.11854C12.2919 9.27988 12.1666 9.50336 12.1277 9.74873L10.4142 20.6026L8.83479 30.5765H8.8356Z" fill="white"/>
</svg>
