<svg width="124" height="40" viewBox="0 0 124 40" fill="none" xmlns="http://www.w3.org/2000/svg">
<g clip-path="url(#clip0_1736_267)">
<path d="M80.7915 0C71.9985 0 64.1037 4.56471 64.1037 12.9412C64.1037 22.5882 78.0496 23.2471 78.0496 28.0471C78.0496 30.0706 75.6859 31.9059 71.7148 31.9059C66.0419 31.9059 61.7873 29.3647 61.7873 29.3647L59.9909 37.8353C59.9909 37.8353 64.8601 40 71.3839 40C81.0278 40 88.5917 35.2471 88.5917 26.6824C88.5917 16.5176 74.5986 15.8588 74.5986 11.3882C74.5986 9.78824 76.5368 8.04706 80.5078 8.04706C84.9989 8.04706 88.6862 9.88235 88.6862 9.88235L90.4827 1.69412C90.4354 1.69412 86.4171 0 80.7915 0ZM0.236371 0.611765L0 1.83529C0 1.83529 3.68738 2.49412 7.04384 3.85882C11.3458 5.41176 11.6294 6.30588 12.3858 9.08235L20.2806 39.3412H30.87L47.085 0.611765H36.5429L26.0953 26.9647L21.8406 4.61176C21.4624 2.07059 19.4769 0.611765 17.0187 0.611765H0.236371ZM51.3397 0.611765L43.0667 39.3412H53.1361L61.3618 0.611765H51.3397ZM107.407 0.611765C104.996 0.611765 103.719 1.88235 102.774 4.14118L88.0244 39.3412H98.5665L100.599 33.4588H113.458L114.687 39.3412H124L115.916 0.611765H107.407ZM108.778 11.1059L111.898 25.6471H103.53L108.778 11.1059Z" fill="white"/>
</g>
<defs>
<clipPath id="clip0_1736_267">
<rect width="124" height="40" fill="white"/>
</clipPath>
</defs>
</svg>
