<svg width="169" height="42" viewBox="0 0 169 42" fill="none" xmlns="http://www.w3.org/2000/svg">
<path d="M48.3415 23.9167C48.3398 24.0584 48.2825 24.1936 48.1821 24.2932C48.0818 24.3927 47.9463 24.4485 47.8052 24.4485H37.4635C37.7219 27.0133 39.6451 29.3528 42.3492 29.3528C44.197 29.3528 45.5693 28.6429 46.6022 27.1629C46.7521 26.9588 46.9757 26.8287 47.2616 26.9515C47.3375 26.9848 47.4039 27.0366 47.4549 27.1022C47.5058 27.1678 47.5396 27.2452 47.5533 27.3272C47.5752 27.4518 47.551 27.5802 47.4852 27.6882C46.4459 29.5089 44.3736 30.4026 42.3419 30.4026C38.8634 30.4026 36.3837 27.2792 36.3837 23.937C36.3837 20.5949 38.8634 17.4715 42.3419 17.4715C45.8205 17.4715 48.3366 20.5819 48.3415 23.9167ZM47.2341 23.4117C47.0097 20.8478 45.0533 18.5083 42.3492 18.5083C39.6451 18.5083 37.7219 20.8478 37.4635 23.4117H47.2341ZM60.8907 17.7244C61.0269 17.7265 61.1569 17.7817 61.2533 17.8784C61.3496 17.9751 61.4046 18.1057 61.4067 18.2424C61.4085 18.3109 61.3964 18.3791 61.3711 18.4427C61.3458 18.5064 61.3078 18.5642 61.2595 18.6126C61.2113 18.6611 61.1537 18.6992 61.0902 18.7246C61.0268 18.75 60.9589 18.7622 60.8907 18.7604H58.1185V29.6797C58.1213 29.7495 58.11 29.8191 58.0853 29.8844C58.0605 29.9498 58.023 30.0094 57.9747 30.0597C57.9265 30.1101 57.8686 30.1502 57.8046 30.1775C57.7406 30.2049 57.6717 30.219 57.6021 30.219C57.5325 30.219 57.4636 30.2049 57.3996 30.1775C57.3356 30.1502 57.2777 30.1101 57.2295 30.0597C57.1812 30.0094 57.1437 29.9498 57.1189 29.8844C57.0942 29.8191 57.0829 29.7495 57.0857 29.6797V18.7604H54.4229C54.3546 18.7622 54.2867 18.75 54.2232 18.7246C54.1597 18.6992 54.1021 18.6611 54.0538 18.6127C54.0054 18.5642 53.9674 18.5064 53.942 18.4428C53.9166 18.3791 53.9044 18.3109 53.906 18.2424C53.9093 18.1059 53.9649 17.9759 54.0611 17.8795C54.1574 17.783 54.2869 17.7275 54.4229 17.7244H57.0857V13.7276C57.0825 13.6052 57.1224 13.4855 57.1982 13.3895C57.274 13.2935 57.3809 13.2272 57.5004 13.2023C57.5757 13.1863 57.6537 13.1875 57.7284 13.2059C57.8032 13.2243 57.8729 13.2594 57.9323 13.3085C57.9917 13.3577 58.0393 13.4196 58.0715 13.4898C58.1038 13.56 58.1198 13.6366 58.1185 13.7138V17.7244H60.8907ZM77.8022 23.0027V29.6187C77.7999 29.7555 77.7447 29.886 77.6483 29.9827C77.5518 30.0794 77.4217 30.1346 77.2854 30.1367C77.2171 30.1385 77.1493 30.1263 77.0858 30.1009C77.0224 30.0755 76.9648 30.0374 76.9165 29.989C76.8683 29.9405 76.8303 29.8827 76.805 29.819C76.7797 29.7554 76.7676 29.6872 76.7694 29.6187V23.0027C76.7694 20.773 75.5121 18.5424 73.0324 18.5424C69.8528 18.5424 68.4797 21.3316 68.6636 24.1899C68.6636 24.2648 68.6976 24.5965 68.6976 24.6331V29.5935C68.7007 29.716 68.6609 29.8356 68.5851 29.9316C68.5093 30.0276 68.4023 30.0939 68.2828 30.1188C68.2075 30.1348 68.1296 30.1336 68.0548 30.1152C67.98 30.0968 67.9103 30.0618 67.8509 30.0126C67.7915 29.9635 67.7439 29.9015 67.7117 29.8313C67.6795 29.7611 67.6634 29.6846 67.6647 29.6073V7.88255C67.67 7.74861 67.7267 7.62192 67.823 7.52903C67.9193 7.43615 68.0476 7.38428 68.1811 7.38428C68.3147 7.38428 68.443 7.43615 68.5393 7.52903C68.6356 7.62192 68.6923 7.74861 68.6976 7.88255V20.1794C69.5887 18.5831 71.1773 17.5057 73.0251 17.5057C76.0622 17.5057 77.8047 20.1794 77.8047 23.0027M96.3461 23.9167C96.3444 24.0585 96.2871 24.1939 96.1865 24.2935C96.0859 24.393 95.9503 24.4488 95.8091 24.4485H85.4593C85.7177 27.0133 87.64 29.3528 90.3441 29.3528C92.192 29.3528 93.5651 28.6429 94.5971 27.1629C94.747 26.9588 94.9714 26.8287 95.2566 26.9515C95.3326 26.9848 95.3991 27.0366 95.4502 27.1022C95.5012 27.1678 95.5352 27.2451 95.549 27.3272C95.5701 27.4518 95.5459 27.5799 95.481 27.6882C94.4416 29.5089 92.3686 30.4026 90.3377 30.4026C86.8591 30.4026 84.3786 27.2792 84.3786 23.937C84.3786 20.5949 86.8591 17.4715 90.3377 17.4715C93.8162 17.4715 96.3372 20.5819 96.3437 23.9167M95.229 23.4117C95.0054 20.8478 93.0482 18.5083 90.3441 18.5083C87.64 18.5083 85.7177 20.8478 85.4593 23.4117H95.229ZM109.035 18.2074C109.035 18.5416 108.852 18.7254 108.553 18.7669C105.516 19.2101 104.151 21.6992 104.151 24.5982V29.5618C104.154 29.6841 104.114 29.8037 104.038 29.8996C103.962 29.9954 103.855 30.0615 103.736 30.0863C103.661 30.1023 103.583 30.1011 103.508 30.0827C103.433 30.0643 103.363 30.0292 103.304 29.9801C103.245 29.9309 103.197 29.8689 103.165 29.7988C103.132 29.7286 103.116 29.6521 103.118 29.5748V18.2627C103.115 18.1404 103.154 18.0209 103.23 17.9249C103.306 17.829 103.412 17.7626 103.532 17.7374C103.607 17.7216 103.685 17.7229 103.76 17.7414C103.834 17.7598 103.904 17.7949 103.963 17.844C104.023 17.8931 104.071 17.955 104.103 18.0251C104.135 18.0951 104.152 18.1716 104.151 18.2489V20.5542C105 19.1084 106.705 17.7309 108.478 17.7309C108.737 17.7244 109.035 17.9147 109.035 18.2082M126.022 23.9167C126.02 24.0585 125.963 24.1939 125.862 24.2935C125.761 24.393 125.626 24.4488 125.484 24.4485H115.144C115.402 27.0133 117.324 29.3528 120.028 29.3528C121.877 29.3528 123.249 28.6429 124.282 27.1629C124.431 26.9588 124.656 26.8287 124.941 26.9515C125.017 26.9848 125.083 27.0366 125.135 27.1022C125.186 27.1678 125.22 27.2451 125.233 27.3272C125.255 27.4518 125.231 27.58 125.165 27.6882C124.126 29.5089 122.054 30.4026 120.022 30.4026C116.543 30.4026 114.063 27.2792 114.063 23.937C114.063 20.5949 116.543 17.4715 120.022 17.4715C123.501 17.4715 126.017 20.5819 126.022 23.9167ZM124.914 23.4117C124.69 20.8478 122.733 18.5083 120.028 18.5083C117.324 18.5083 115.402 20.8478 115.144 23.4117H124.914ZM142.715 18.3375V29.6797C142.713 29.8166 142.658 29.9472 142.561 30.044C142.465 30.1408 142.335 30.1962 142.198 30.1985C142.13 30.2002 142.062 30.1879 141.999 30.1624C141.935 30.1369 141.878 30.0987 141.829 30.0502C141.781 30.0017 141.743 29.9438 141.718 29.8801C141.693 29.8164 141.681 29.7482 141.682 29.6797V27.5288C140.833 29.2365 139.311 30.4612 137.389 30.4612C134.318 30.4612 132.609 27.7882 132.609 24.9641V18.3148C132.607 18.245 132.618 18.1753 132.643 18.11C132.667 18.0447 132.705 17.9851 132.753 17.9347C132.801 17.8843 132.859 17.8443 132.923 17.8169C132.987 17.7895 133.056 17.7754 133.126 17.7754C133.195 17.7754 133.264 17.7895 133.328 17.8169C133.392 17.8443 133.45 17.8843 133.498 17.9347C133.547 17.9851 133.584 18.0447 133.609 18.11C133.634 18.1753 133.645 18.245 133.642 18.3148V24.9641C133.642 27.1946 134.899 29.4244 137.379 29.4244C140.858 29.4244 141.673 26.1578 141.673 22.5498V18.3148C141.674 18.2342 141.693 18.1549 141.73 18.0831C141.766 18.0113 141.819 17.9489 141.883 17.9007C141.947 17.8526 142.022 17.82 142.101 17.8055C142.18 17.791 142.261 17.795 142.339 17.8171C142.447 17.8549 142.542 17.9256 142.609 18.0196C142.675 18.1136 142.712 18.2261 142.712 18.3416M168.87 22.9661V29.6154C168.868 29.7523 168.813 29.8829 168.717 29.9797C168.62 30.0765 168.49 30.1319 168.354 30.1343C168.286 30.136 168.218 30.1238 168.154 30.0984C168.091 30.073 168.033 30.0348 167.984 29.9863C167.936 29.9377 167.898 29.8798 167.873 29.8161C167.847 29.7523 167.835 29.6841 167.837 29.6154V22.9661C167.837 20.7356 166.581 18.5465 164.1 18.5465C160.989 18.5465 159.807 21.8887 159.807 24.4827V29.6114C159.804 29.7483 159.749 29.8789 159.653 29.9757C159.556 30.0725 159.426 30.1279 159.29 30.1302C159.221 30.1319 159.154 30.1196 159.09 30.0941C159.027 30.0686 158.969 30.0304 158.921 29.9819C158.873 29.9334 158.835 29.8755 158.809 29.8118C158.784 29.7481 158.772 29.6799 158.774 29.6114V22.962C158.774 20.7315 157.516 18.5424 155.037 18.5424C151.891 18.5424 150.593 21.0316 150.708 24.3396C150.708 24.4144 150.742 24.5648 150.708 24.599V29.5976C150.712 29.721 150.671 29.8416 150.594 29.9378C150.517 30.034 150.408 30.0996 150.287 30.1229C150.212 30.1387 150.134 30.1374 150.059 30.1189C149.985 30.1005 149.915 30.0654 149.856 30.0163C149.796 29.9672 149.749 29.9053 149.716 29.8352C149.684 29.7651 149.668 29.6886 149.669 29.6114V18.2627C149.666 18.1403 149.706 18.0207 149.782 17.9247C149.858 17.8288 149.964 17.7625 150.084 17.7374C150.159 17.7215 150.237 17.7229 150.312 17.7413C150.386 17.7598 150.456 17.7949 150.515 17.844C150.575 17.8931 150.622 17.955 150.655 18.0251C150.687 18.0952 150.703 18.1717 150.702 18.2489V20.1452C151.593 18.549 153.182 17.5057 155.03 17.5057C157.137 17.5057 158.767 18.8425 159.432 20.8136C160.282 18.8832 161.944 17.5057 164.094 17.5057C167.131 17.5057 168.873 20.1387 168.873 22.962" fill="white"/>
<g opacity="0.6">
<mask id="mask0_1736_301" style="mask-type:luminance" maskUnits="userSpaceOnUse" x="0" y="15" width="27" height="15">
<path d="M26.6629 15.5288H0.872925V29.0105H26.6629V15.5288Z" fill="white"/>
</mask>
<g mask="url(#mask0_1736_301)">
<path d="M13.7699 15.5303L0.872803 21.3919L13.7699 29.0059L26.6628 21.3919L13.7699 15.5303Z" fill="white"/>
</g>
</g>
<g opacity="0.45">
<mask id="mask1_1736_301" style="mask-type:luminance" maskUnits="userSpaceOnUse" x="0" y="0" width="14" height="30">
<path d="M13.7705 0H0.872803V29.0107H13.7705V0Z" fill="white"/>
</mask>
<g mask="url(#mask1_1736_301)">
<path d="M0.872925 21.3923L13.77 29.0064V0.000488281L0.872925 21.3923Z" fill="white"/>
</g>
</g>
<g opacity="0.8">
<mask id="mask2_1736_301" style="mask-type:luminance" maskUnits="userSpaceOnUse" x="13" y="0" width="14" height="30">
<path d="M26.668 0H13.7703V29.0107H26.668V0Z" fill="white"/>
</mask>
<g mask="url(#mask2_1736_301)">
<path d="M13.7703 0.000488281V29.01L26.6631 21.396L13.7703 0.000488281Z" fill="white"/>
</g>
</g>
<g opacity="0.45">
<mask id="mask3_1736_301" style="mask-type:luminance" maskUnits="userSpaceOnUse" x="0" y="23" width="14" height="20">
<path d="M13.7706 23.8359H0.872925V42.0003H13.7706V23.8359Z" fill="white"/>
</mask>
<g mask="url(#mask3_1736_301)">
<path d="M0.872925 23.8359L13.77 41.9991V31.4536L0.872925 23.8359Z" fill="white"/>
</g>
</g>
<g opacity="0.8">
<mask id="mask4_1736_301" style="mask-type:luminance" maskUnits="userSpaceOnUse" x="13" y="23" width="14" height="20">
<path d="M26.6728 23.8359H13.7703V42.0003H26.6728V23.8359Z" fill="white"/>
</mask>
<g mask="url(#mask4_1736_301)">
<path d="M13.7703 31.454V41.9994L26.6735 23.8345L13.7703 31.454Z" fill="white"/>
</g>
</g>
</svg>
