<svg width="99" height="31" viewBox="0 0 99 31" fill="none" xmlns="http://www.w3.org/2000/svg">
<g clip-path="url(#clip0_1736_371)">
<path d="M6.65759 3.80593C9.01892 1.89023 11.9789 0.857422 15.022 0.857422C18.0651 0.857422 21.0085 1.92355 23.3698 3.83925C23.3698 3.92254 23.3033 3.95586 23.2534 4.00583C22.2723 5.00533 21.2745 5.98817 20.2934 6.98766C20.2768 7.02098 20.2435 7.0543 20.2103 7.07096C20.177 7.08761 20.1438 7.10427 20.0939 7.10427C20.0606 7.10427 20.0107 7.10427 19.9775 7.08761C19.9442 7.07095 19.9109 7.0543 19.8777 7.02098C18.431 6.10478 16.7514 5.62169 15.0386 5.60503C13.3258 5.58837 11.6463 6.0548 10.183 6.93769C10.0998 6.98766 10.0167 7.03764 9.93352 7.10427L6.65759 3.80593Z" fill="white"/>
<path d="M23.3364 10.4195C24.4173 9.3201 25.4982 8.20399 26.5791 7.08789C30.8694 12.4019 30.1045 19.7815 26.5791 24.0127C25.4982 22.9132 24.4339 21.8138 23.3364 20.7144C25.3485 17.3161 25.3818 13.8678 23.3364 10.4195Z" fill="white"/>
<path d="M23.3199 27.4106C20.9586 29.3263 17.9986 30.3758 14.9555 30.3758C11.9124 30.3758 8.96902 29.3263 6.59106 27.4106C7.67195 26.3111 8.75284 25.2284 9.83373 24.1289C13.2427 26.2612 16.6516 26.2278 20.044 24.1456C21.1415 25.2117 22.239 26.3111 23.3199 27.4106Z" fill="white"/>
<path d="M6.55773 10.4027C4.52898 13.851 4.52898 17.2992 6.55773 20.7475L3.31506 24.0125C-0.426474 19.4815 -0.626023 12.0352 3.31506 7.1377C4.39595 8.23714 5.47684 9.31993 6.55773 10.4027Z" fill="white"/>
<path d="M97.8179 22.7463H96.2714C96.1716 22.1799 96.2547 21.6135 96.1549 21.0138C96.0219 21.1304 95.9221 21.2637 95.8224 21.4136C95.1073 22.2798 94.0929 22.8129 92.9954 22.9129C92.1141 23.0295 91.2161 22.9129 90.4013 22.5964C89.6031 22.2965 88.8881 21.7968 88.3559 21.1304C87.8238 20.4641 87.4746 19.6645 87.3748 18.8149C87.1753 17.7821 87.2418 16.716 87.5411 15.6998C87.7905 14.8336 88.2728 14.0507 88.9546 13.451C89.6364 12.8513 90.4844 12.4848 91.3824 12.3682C92.43 12.1683 93.5109 12.3015 94.4588 12.7513C94.9909 13.0012 95.4732 13.3843 95.839 13.8341C95.9554 13.984 96.0552 14.134 96.1383 14.3172V8.20361H97.8179V22.7463ZM92.4966 21.3137C93.3945 21.3303 94.2592 21.0138 94.9244 20.3975C95.5896 19.7978 95.9887 18.9482 96.0552 18.0487C96.1549 17.3323 96.0552 16.5994 95.7392 15.9497C95.4233 15.3 94.9244 14.7503 94.3091 14.3838C93.8435 14.1173 93.328 13.9674 92.7959 13.9174C92.2637 13.8674 91.7316 13.9507 91.2327 14.134C90.7339 14.3005 90.2849 14.5671 89.919 14.9502C89.5532 15.3334 89.2872 15.7831 89.1541 16.2995C88.9047 17.1324 88.888 18.032 89.1375 18.8816C89.337 19.5979 89.786 20.2475 90.4013 20.6807C90.9999 21.1304 91.7482 21.347 92.4966 21.3137Z" fill="white"/>
<path d="M47.066 18.3154H38.5021C38.5519 18.9318 38.7681 19.4982 39.134 19.9979C39.4998 20.481 39.9987 20.8642 40.5641 21.0641C41.1294 21.2973 41.7447 21.3972 42.36 21.3639C43.2413 21.3306 44.0894 21.0474 44.8211 20.5643C45.0206 20.431 45.2036 20.2645 45.3532 20.0646C45.7357 20.4144 46.1015 20.7476 46.484 21.114C46.2512 21.4139 45.9851 21.6638 45.6858 21.8637C44.6714 22.58 43.4575 22.9464 42.2103 22.9631C41.4953 22.9964 40.7636 22.8798 40.0818 22.6299C39.2171 22.3301 38.4522 21.797 37.8701 21.0807C37.2881 20.3644 36.9389 19.4982 36.8392 18.582C36.6396 17.4992 36.756 16.3664 37.1884 15.3503C37.5209 14.5174 38.0697 13.8011 38.7847 13.268C39.4998 12.7349 40.3479 12.4018 41.2292 12.3018C42.0773 12.1852 42.942 12.2518 43.7568 12.485C44.5883 12.7016 45.3366 13.1514 45.902 13.7844C46.484 14.4174 46.8498 15.217 46.9829 16.0499C47.1658 16.8162 47.1824 17.5658 47.066 18.3154ZM45.453 16.8329C45.453 16.7162 45.4696 16.633 45.453 16.533C45.4031 15.9833 45.2202 15.4669 44.8876 15.0338C44.555 14.6006 44.106 14.2675 43.6072 14.0842C43.0418 13.8843 42.4598 13.801 41.8611 13.8344C41.329 13.8344 40.7969 13.9676 40.3313 14.2175C39.849 14.4674 39.4499 14.8172 39.134 15.2503C38.8014 15.7001 38.6018 16.2332 38.5353 16.7995C40.8301 16.8329 43.1249 16.8329 45.453 16.8329Z" fill="white"/>
<path d="M67.7691 22.9631C67.0707 22.9798 66.3723 22.8632 65.7072 22.5967C65.0586 22.3301 64.46 21.947 63.9611 21.4472C63.1463 20.6143 62.6474 19.5149 62.5476 18.3488C62.398 17.216 62.5975 16.0833 63.0964 15.0671C63.4622 14.3175 64.011 13.6678 64.6928 13.1847C65.3746 12.7016 66.1728 12.4018 67.0042 12.3185C67.9687 12.1686 68.9664 12.2852 69.8644 12.6517C70.6959 12.9682 71.4275 13.5179 71.9597 14.2176C72.5084 14.9172 72.841 15.7668 72.9408 16.6497C73.1237 17.6158 73.0406 18.6153 72.7246 19.5315C72.4419 20.3978 71.9264 21.1807 71.228 21.7637C70.5296 22.3468 69.6815 22.7299 68.7835 22.8632C68.4509 22.9465 68.1017 22.9631 67.7691 22.9631ZM71.3444 17.6492C71.361 17.1827 71.2779 16.7163 71.1282 16.2665C70.9287 15.7001 70.6127 15.2004 70.1637 14.7839C69.7148 14.3675 69.1993 14.0843 68.6172 13.951C68.0352 13.8011 67.4366 13.8011 66.8546 13.951C66.2725 14.1009 65.757 14.4008 65.3081 14.8006C64.7593 15.3836 64.3935 16.0999 64.2604 16.8829C64.1108 17.6658 64.1939 18.4654 64.4932 19.215C65.4078 21.4639 68.1017 21.8304 69.7314 20.7643C70.2469 20.4311 70.6626 19.9647 70.9453 19.4149C71.228 18.8652 71.361 18.2655 71.3444 17.6492Z" fill="white"/>
<path d="M84.9303 22.763H83.3007C83.2508 22.6631 83.2508 22.5465 83.2674 22.4299V17.0659C83.2674 16.6661 83.2009 16.2497 83.0845 15.8665C82.9515 15.4167 82.702 15.0003 82.3528 14.6838C82.0036 14.3673 81.5712 14.1507 81.1056 14.0508C80.5569 13.8842 79.9915 13.8842 79.4427 14.0341C78.894 14.184 78.3951 14.4839 78.0126 14.9003C77.4306 15.5 77.1147 16.2996 77.1313 17.1325C77.1147 18.8983 77.1313 20.6474 77.1313 22.4132C77.1479 22.5298 77.1313 22.6464 77.1147 22.763H75.4684V12.5015H77.0149C77.0481 13.0179 77.0648 13.5177 77.098 14.0008C77.1812 14.0174 77.1978 13.9508 77.2311 13.9175C77.6967 13.3345 78.2953 12.8847 78.9771 12.6181C79.6589 12.3516 80.4072 12.2683 81.1389 12.3849C81.7043 12.4349 82.253 12.6015 82.7519 12.868C83.2508 13.1346 83.6831 13.5177 84.0323 13.9675C84.5811 14.7004 84.8971 15.5667 84.9469 16.4662C84.9636 16.7494 84.9802 17.0159 84.9802 17.2825V22.4132C84.9802 22.5298 84.9636 22.6464 84.9303 22.763Z" fill="white"/>
<path d="M54.4163 12.518H55.996C56.0293 12.9677 56.0792 13.4342 56.1291 13.9339C56.4284 13.4175 56.8774 13.0011 57.3929 12.7179C57.925 12.4347 58.507 12.2847 59.1057 12.3181C60.0036 12.2847 60.8684 12.5513 61.5834 13.0843C61.334 13.5674 61.0845 14.0505 60.8351 14.517C60.7187 14.517 60.6023 14.467 60.5191 14.3837C59.8706 14.0172 59.089 13.9006 58.3574 14.0838C57.6257 14.2504 56.9938 14.7002 56.5614 15.3165C56.2289 15.833 56.0626 16.4327 56.0792 17.049V22.413C56.0958 22.5296 56.0792 22.6462 56.0459 22.7628H54.3997V12.518H54.4163Z" fill="white"/>
<path d="M51.2233 22.7633H49.5604V8.25391H51.2233V22.7633Z" fill="white"/>
<path d="M29.0237 27.4103C29.0237 27.8601 28.874 28.3099 28.6246 28.693C28.3751 29.0762 28.0093 29.3594 27.5769 29.5259C27.1612 29.6925 26.6956 29.7425 26.2466 29.6425C25.7976 29.5426 25.3985 29.326 25.0826 28.9929C24.7666 28.6597 24.5505 28.2599 24.4673 27.8101C24.3842 27.3604 24.4341 26.8939 24.617 26.4775C24.7999 26.061 25.0992 25.6945 25.4651 25.4447C25.8475 25.1948 26.2965 25.0615 26.7455 25.0615C27.0448 25.0615 27.3441 25.1282 27.6268 25.2448C27.9095 25.3614 28.159 25.528 28.3751 25.7612C28.5913 25.9777 28.7576 26.2276 28.874 26.5108C28.9738 26.8106 29.0403 27.1105 29.0237 27.4103Z" fill="white"/>
<path d="M3.29844 29.7258C2.83282 29.7425 2.38384 29.6092 2.00137 29.3594C1.61891 29.1095 1.30295 28.743 1.12003 28.3266C0.937114 27.9101 0.887225 27.427 0.97037 26.9772C1.05352 26.5275 1.26969 26.111 1.60228 25.7778C1.93486 25.4447 2.33395 25.2281 2.79957 25.1282C3.24855 25.0449 3.71417 25.0782 4.14652 25.2614C4.57888 25.4447 4.92809 25.7445 5.19415 26.1277C5.44359 26.5108 5.57662 26.9606 5.57662 27.427C5.57662 27.7269 5.52673 28.0267 5.41033 28.3099C5.29393 28.5931 5.12763 28.843 4.92809 29.0595C4.71191 29.2761 4.46247 29.4427 4.19641 29.5593C3.89709 29.6592 3.59776 29.7092 3.29844 29.7258Z" fill="white"/>
<path d="M29.0234 3.68909C29.04 3.98894 28.9902 4.28879 28.8738 4.58864C28.774 4.87183 28.6077 5.13836 28.3915 5.35492C28.1753 5.57148 27.9259 5.75472 27.6432 5.87133C27.3605 5.98793 27.0612 6.05456 26.7619 6.05456C26.4625 6.05456 26.1632 6.00459 25.8805 5.87133C25.5978 5.75472 25.3484 5.58813 25.1322 5.37158C24.916 5.15502 24.7497 4.88849 24.65 4.6053C24.5336 4.32211 24.4837 4.02226 24.5003 3.72241C24.4837 3.42256 24.5336 3.12271 24.65 2.82286C24.7497 2.53967 24.916 2.27314 25.1322 2.05658C25.3484 1.84002 25.5978 1.65678 25.8805 1.54018C26.1632 1.42357 26.4625 1.35693 26.7619 1.35693C27.0612 1.35693 27.3605 1.40691 27.6432 1.54018C27.9259 1.65678 28.1753 1.82337 28.3915 2.03992C28.6077 2.25648 28.774 2.52301 28.8738 2.8062C28.9902 3.07273 29.04 3.37258 29.0234 3.68909Z" fill="white"/>
<path d="M5.56006 3.67298C5.56006 4.12275 5.42703 4.57253 5.16097 4.93901C4.91153 5.32215 4.54569 5.60534 4.12996 5.77192C3.71424 5.9385 3.24862 5.98848 2.79964 5.90519C2.35066 5.8219 1.95156 5.58868 1.63561 5.27217C1.31965 4.95567 1.10348 4.53921 1.0037 4.08943C0.920559 3.63966 0.953815 3.18989 1.13673 2.75677C1.31965 2.32366 1.60235 1.97384 1.98482 1.72396C2.36729 1.47409 2.79964 1.34082 3.24863 1.34082C3.54795 1.34082 3.84727 1.3908 4.12996 1.5074C4.41266 1.62401 4.66209 1.79059 4.87827 2.00715C5.09445 2.22371 5.26074 2.47358 5.37714 2.75677C5.51018 3.07328 5.56006 3.37313 5.56006 3.67298Z" fill="white"/>
<path d="M12.5275 12.5352C12.5275 12.6851 12.4609 12.835 12.3445 12.9516C12.2281 13.0516 12.0785 13.1182 11.9288 13.1182C11.7792 13.1182 11.6295 13.0516 11.5131 12.9516C11.3967 12.835 11.3468 12.6851 11.3468 12.5352C11.3634 12.3853 11.4299 12.2353 11.5297 12.1354C11.6461 12.0354 11.7958 11.9688 11.9454 11.9855C12.0951 11.9855 12.2448 12.0354 12.3612 12.152C12.4609 12.2353 12.5275 12.3853 12.5275 12.5352Z" fill="white"/>
<path d="M7.38911 7.3208C7.47225 7.3208 7.53877 7.33746 7.60528 7.35412C7.6718 7.38743 7.73832 7.42075 7.7882 7.47072C7.83809 7.5207 7.88798 7.58733 7.92124 7.65397C7.95449 7.7206 7.97112 7.80389 7.97112 7.87052C7.97112 8.02045 7.90461 8.17037 7.7882 8.27032C7.6718 8.37027 7.52214 8.4369 7.37248 8.42024C7.28933 8.42024 7.22282 8.42025 7.13967 8.38693C7.07315 8.35361 7.00664 8.3203 6.94012 8.27032C6.89024 8.22035 6.84035 8.15371 6.80709 8.08708C6.77383 8.02045 6.7572 7.93716 6.7572 7.85386C6.7572 7.77057 6.77383 7.70394 6.80709 7.62065C6.84035 7.55402 6.89024 7.48738 6.94012 7.43741C6.99001 7.38743 7.07315 7.33746 7.13967 7.3208C7.22282 7.3208 7.30596 7.3208 7.38911 7.3208Z" fill="white"/>
<path d="M11.9454 19.2149C11.7958 19.2149 11.6461 19.1482 11.5297 19.0483C11.4133 18.9483 11.3468 18.7984 11.3468 18.6485C11.3468 18.4985 11.4133 18.3486 11.5297 18.232C11.6461 18.1321 11.7958 18.0654 11.9454 18.0654C12.0286 18.0654 12.0951 18.0821 12.1616 18.0987C12.2281 18.1321 12.2947 18.1654 12.3445 18.2154C12.3944 18.2653 12.4443 18.332 12.4776 18.3986C12.5108 18.4652 12.5275 18.5485 12.5275 18.6152C12.5275 18.6984 12.5108 18.7651 12.4776 18.8317C12.4443 18.8983 12.4111 18.965 12.3445 19.015C12.2947 19.0649 12.2281 19.1149 12.145 19.1316C12.0951 19.2149 12.0286 19.2149 11.9454 19.2149Z" fill="white"/>
<path d="M6.77393 23.2793C6.79055 23.1293 6.85707 22.9794 6.95684 22.8795C7.07325 22.7795 7.20628 22.7129 7.35594 22.7129C7.43909 22.7129 7.5056 22.7295 7.58875 22.7462C7.65526 22.7795 7.72178 22.8128 7.7883 22.8628C7.83818 22.9128 7.88807 22.9794 7.92133 23.0461C7.95459 23.1127 7.97122 23.196 7.97122 23.2793C7.97122 23.3626 7.95459 23.4292 7.92133 23.4958C7.88807 23.5625 7.83818 23.6291 7.7883 23.6791C7.73841 23.729 7.67189 23.779 7.58875 23.7957C7.52223 23.829 7.43909 23.829 7.35594 23.829C7.20628 23.829 7.05662 23.7624 6.95684 23.6624C6.84044 23.5791 6.77393 23.4292 6.77393 23.2793Z" fill="white"/>
<path d="M16.5185 17.6654C16.3689 17.6654 16.2192 17.5988 16.1194 17.4988C16.003 17.3989 15.9532 17.249 15.9365 17.099C15.9365 17.0157 15.9532 16.9491 15.9864 16.8825C16.0197 16.8158 16.0696 16.7492 16.1194 16.6992C16.186 16.6493 16.2525 16.6159 16.319 16.5826C16.3855 16.566 16.4687 16.5493 16.5518 16.5493C16.6349 16.5493 16.7015 16.566 16.768 16.5826C16.8345 16.6159 16.901 16.6493 16.9509 16.7159C17.0008 16.7659 17.0507 16.8325 17.0673 16.8991C17.1006 16.9658 17.1006 17.0491 17.1006 17.1157C17.0839 17.2656 17.0174 17.4155 16.9176 17.5155C16.8179 17.6154 16.6682 17.6654 16.5185 17.6654Z" fill="white"/>
<path d="M24.1845 24.2625C24.2843 24.2791 24.4007 24.3291 24.4838 24.3957C24.567 24.4624 24.6335 24.5623 24.6501 24.6623C24.6834 24.7622 24.6834 24.8788 24.6501 24.9788C24.6169 25.0787 24.567 25.1787 24.4838 25.2453C24.4007 25.3119 24.3009 25.3619 24.1845 25.3786C24.0847 25.3952 23.9683 25.3786 23.8686 25.3286C23.7688 25.2786 23.6856 25.212 23.6358 25.112C23.5859 25.0121 23.5526 24.9121 23.5526 24.7955C23.5526 24.7122 23.5859 24.6456 23.6191 24.579C23.6524 24.5123 23.7023 24.4457 23.7688 24.3957C23.8353 24.3458 23.9018 24.3124 23.9683 24.2791C24.0349 24.2458 24.118 24.2625 24.1845 24.2625Z" fill="white"/>
<path d="M19.5617 11.5521C19.4786 11.5521 19.4121 11.5355 19.3289 11.5188C19.2624 11.4855 19.1959 11.4522 19.1294 11.4022C19.0795 11.3522 19.0296 11.2856 18.9963 11.219C18.9631 11.1523 18.9464 11.0691 18.9631 10.9858C18.9631 10.9025 18.9797 10.8358 19.013 10.7692C19.0462 10.7026 19.0961 10.6359 19.146 10.586C19.1959 10.536 19.279 10.5027 19.3455 10.4694C19.412 10.4527 19.4952 10.436 19.5783 10.4527C19.6615 10.4527 19.728 10.4694 19.7945 10.486C19.861 10.5193 19.9276 10.5526 19.9774 10.6026C20.0273 10.6526 20.0772 10.7192 20.1105 10.7859C20.1437 10.8525 20.1604 10.9358 20.1437 11.0024C20.1437 11.0857 20.1271 11.1523 20.0938 11.219C20.0606 11.2856 20.0107 11.3522 19.9608 11.4022C19.9109 11.4522 19.8444 11.4855 19.7613 11.5188C19.728 11.5521 19.6449 11.5521 19.5617 11.5521Z" fill="white"/>
<path d="M24.1345 5.78857C24.2842 5.78857 24.4339 5.83855 24.5503 5.9385C24.6667 6.03845 24.7332 6.18837 24.7498 6.33829C24.7498 6.42159 24.7332 6.48822 24.6999 6.57151C24.6667 6.63815 24.6168 6.70478 24.5669 6.75475C24.517 6.80473 24.4505 6.8547 24.3673 6.87136C24.3008 6.90468 24.2177 6.90468 24.1345 6.90468C23.9849 6.90468 23.8352 6.8547 23.7188 6.73809C23.6024 6.63815 23.5359 6.48822 23.5359 6.33829C23.5359 6.255 23.5525 6.18837 23.5858 6.12174C23.619 6.05511 23.6523 5.98847 23.7188 5.9385C23.7687 5.88852 23.8352 5.83855 23.9017 5.82189C23.9849 5.80523 24.068 5.78857 24.1345 5.78857Z" fill="white"/>
<path d="M23.2201 7.88707C23.2201 8.00368 23.1868 8.10363 23.137 8.20358C23.0704 8.30353 22.9873 8.37016 22.8875 8.42013C22.7878 8.47011 22.6713 8.47011 22.5716 8.45345C22.4552 8.43679 22.3554 8.38682 22.2889 8.30352C22.2057 8.22023 22.1558 8.12028 22.1392 8.02033C22.1226 7.90373 22.1226 7.80378 22.1725 7.70383C22.2057 7.60388 22.2889 7.52059 22.372 7.45395C22.4718 7.38732 22.5716 7.354 22.688 7.354C22.8376 7.354 22.9707 7.40398 23.0871 7.52059C23.1536 7.58722 23.2201 7.73714 23.2201 7.88707Z" fill="white"/>
<path d="M21.0584 10.0029C20.9088 10.0029 20.7757 9.93624 20.6593 9.83629C20.5596 9.73635 20.493 9.58642 20.493 9.4365C20.493 9.28657 20.5429 9.13665 20.6593 9.0367C20.7591 8.93675 20.9088 8.87012 21.0584 8.87012C21.2081 8.87012 21.3411 8.93675 21.4575 9.0367C21.5573 9.13665 21.6238 9.28657 21.6238 9.4365C21.6238 9.58642 21.5739 9.73635 21.4575 9.83629C21.3578 9.93624 21.2081 10.0029 21.0584 10.0029Z" fill="white"/>
<path d="M18.647 12.518C18.647 12.5846 18.647 12.6679 18.6138 12.7345C18.5805 12.8012 18.5472 12.8678 18.4974 12.9178C18.4475 12.9678 18.3809 13.0177 18.3144 13.051C18.2479 13.0844 18.1814 13.101 18.0983 13.101C18.0151 13.101 17.9486 13.0844 17.8821 13.0677C17.8156 13.0344 17.749 13.0011 17.6992 12.9511C17.6493 12.9011 17.5994 12.8345 17.5661 12.7679C17.5329 12.7012 17.5162 12.6179 17.5162 12.5513C17.5162 12.4014 17.5828 12.2681 17.6825 12.1515C17.7823 12.0515 17.932 11.9849 18.065 11.9683C18.2147 11.9683 18.3477 12.0349 18.4641 12.1348C18.5805 12.2348 18.647 12.3681 18.647 12.518Z" fill="white"/>
<path d="M22.6212 23.8459C22.4715 23.8292 22.3385 23.7626 22.2387 23.646C22.1389 23.5294 22.0891 23.3794 22.1057 23.2295C22.1223 23.0796 22.1888 22.9297 22.3052 22.8464C22.4216 22.7464 22.5713 22.6965 22.721 22.7131C22.8706 22.7298 23.0037 22.7964 23.1034 22.913C23.2032 23.0296 23.2531 23.1795 23.2365 23.3128C23.2198 23.4627 23.1533 23.596 23.0535 23.696C22.9205 23.8126 22.7709 23.8625 22.6212 23.8459Z" fill="white"/>
<path d="M16.4852 14.6505C16.3355 14.6505 16.2025 14.5838 16.0861 14.4839C15.9863 14.3839 15.9198 14.234 15.9198 14.0841C15.9198 14.0008 15.9364 13.9342 15.9531 13.8675C15.9863 13.8009 16.0196 13.7343 16.0695 13.6843C16.1193 13.6343 16.1859 13.5843 16.2524 13.5677C16.3189 13.5344 16.402 13.5177 16.4686 13.5344C16.5517 13.5344 16.6182 13.551 16.6847 13.5843C16.7513 13.6177 16.8178 13.651 16.8677 13.7176C16.9175 13.7676 16.9674 13.8342 16.9841 13.9008C17.0173 13.9675 17.0173 14.0508 17.0173 14.1174C17.0173 14.2673 16.9508 14.4006 16.851 14.5005C16.7679 14.5838 16.6348 14.6505 16.4852 14.6505Z" fill="white"/>
<path d="M14.0575 14.084C14.0575 14.2339 13.991 14.3671 13.8912 14.4838C13.7914 14.5837 13.6418 14.6503 13.4921 14.6503C13.3425 14.6503 13.2094 14.5837 13.1096 14.4838C13.0099 14.3838 12.9434 14.2339 12.9434 14.084C12.9434 13.934 12.9932 13.8008 13.1096 13.6842C13.2094 13.5842 13.3591 13.5176 13.4921 13.5176C13.5586 13.5176 13.6418 13.5342 13.7083 13.5676C13.7748 13.6009 13.8413 13.6342 13.8912 13.6842C13.9411 13.7341 13.991 13.8008 14.0076 13.8674C14.0575 13.934 14.0575 14.0173 14.0575 14.084Z" fill="white"/>
<path d="M18.6471 18.6651C18.6471 18.7484 18.6305 18.815 18.6139 18.8816C18.5806 18.9483 18.5474 19.0149 18.4808 19.0649C18.431 19.1148 18.3644 19.1648 18.2979 19.1815C18.2314 19.2148 18.1483 19.2148 18.0817 19.2148C17.9986 19.2148 17.9321 19.1981 17.8656 19.1648C17.799 19.1315 17.7325 19.0815 17.6826 19.0316C17.6328 18.9816 17.5995 18.9149 17.5662 18.8317C17.5496 18.765 17.533 18.6817 17.5496 18.6151C17.5496 18.4652 17.6161 18.3319 17.7325 18.232C17.8489 18.132 17.982 18.082 18.1316 18.082C18.2813 18.082 18.4143 18.1487 18.5141 18.2653C18.5972 18.3652 18.6471 18.5151 18.6471 18.6651Z" fill="white"/>
<path d="M13.5085 16.5327C13.6582 16.5327 13.7912 16.5827 13.9076 16.6993C14.0074 16.7992 14.0739 16.9492 14.0739 17.0824C14.0739 17.2324 14.024 17.3656 13.9243 17.4822C13.8245 17.5822 13.6915 17.6488 13.5418 17.6655C13.4587 17.6655 13.3921 17.6488 13.3256 17.6322C13.2591 17.5988 13.1926 17.5655 13.1427 17.5156C13.0928 17.4656 13.0429 17.3989 13.0263 17.3323C12.993 17.2657 12.993 17.1824 12.993 17.1158C12.993 17.0491 13.0097 16.9658 13.0263 16.8992C13.0596 16.8326 13.0928 16.7659 13.1427 16.716C13.1926 16.666 13.2591 16.616 13.3256 16.5993C13.3589 16.5494 13.442 16.5327 13.5085 16.5327Z" fill="white"/>
<path d="M21.0751 22.297C20.9587 22.297 20.8589 22.2637 20.7591 22.2137C20.6594 22.1471 20.5928 22.0638 20.543 21.9639C20.4931 21.8639 20.4931 21.7473 20.5097 21.6307C20.5263 21.5141 20.5762 21.4141 20.6594 21.3308C20.7425 21.2476 20.8423 21.1976 20.9421 21.1643C21.0585 21.1476 21.1582 21.1476 21.2746 21.1976C21.3744 21.2476 21.4742 21.3142 21.5241 21.3975C21.5906 21.4974 21.6238 21.5974 21.6238 21.714C21.6238 21.8639 21.574 22.0138 21.4576 22.1138C21.3578 22.2304 21.2248 22.297 21.0751 22.297Z" fill="white"/>
<path d="M9.48439 21.7804C9.48439 21.847 9.46776 21.9303 9.4345 21.9969C9.40124 22.0636 9.36798 22.1135 9.30147 22.1635C9.25158 22.2135 9.18506 22.2468 9.11855 22.2801C9.05203 22.2968 8.98552 22.3134 8.90237 22.3134C8.75271 22.2968 8.61968 22.2301 8.5199 22.1302C8.42013 22.0136 8.37024 21.8803 8.37024 21.7304C8.37024 21.6471 8.38687 21.5805 8.42013 21.5138C8.45339 21.4472 8.50327 21.3806 8.55316 21.3306C8.60305 21.2806 8.66956 21.2473 8.75271 21.214C8.81922 21.1973 8.90237 21.1807 8.96889 21.1807C9.0354 21.1807 9.11855 21.214 9.18506 21.2473C9.25158 21.2806 9.30147 21.3306 9.35135 21.3806C9.40124 21.4305 9.4345 21.4972 9.45113 21.5638C9.48439 21.6304 9.50102 21.7137 9.48439 21.7804Z" fill="white"/>
<path d="M8.91885 10.0029C8.76919 10.0029 8.63615 9.93624 8.53638 9.81964C8.4366 9.71969 8.38672 9.56976 8.38672 9.41984C8.38672 9.33655 8.40335 9.26992 8.41998 9.20328C8.45323 9.13665 8.48649 9.07002 8.53638 9.02004C8.58627 8.97007 8.65278 8.92009 8.7193 8.90343C8.78582 8.87011 8.86896 8.87012 8.93548 8.87012C9.00199 8.87012 9.08514 8.88677 9.15166 8.92009C9.21817 8.95341 9.28469 9.00338 9.33457 9.05336C9.38446 9.10333 9.41772 9.16996 9.45098 9.25326C9.46761 9.31989 9.48424 9.40318 9.48424 9.46982C9.48424 9.61974 9.41772 9.753 9.30132 9.85295C9.20154 9.9529 9.06851 10.0029 8.91885 10.0029Z" fill="white"/>
<path d="M10.482 19.6481C10.5486 19.6481 10.6317 19.6648 10.6982 19.6981C10.7647 19.7314 10.8313 19.7647 10.8811 19.8147C10.931 19.8647 10.9643 19.9313 10.9975 19.998C11.0308 20.0646 11.0308 20.1312 11.0308 20.2145C11.0308 20.3644 10.9643 20.4977 10.8479 20.5977C10.7481 20.6976 10.5984 20.7476 10.4488 20.7476C10.2991 20.7476 10.1661 20.6809 10.0663 20.581C9.96654 20.4811 9.90002 20.3311 9.90002 20.1979C9.90002 20.1146 9.91665 20.0479 9.94991 19.9813C9.98317 19.9147 10.0164 19.848 10.0829 19.7981C10.1328 19.7481 10.1993 19.7148 10.2825 19.6815C10.3324 19.6481 10.3989 19.6315 10.482 19.6481Z" fill="white"/>
<path d="M19.5949 19.6479C19.6781 19.6479 19.7446 19.648 19.8111 19.6813C19.8776 19.7146 19.9441 19.7479 20.0107 19.7979C20.0605 19.8479 20.1104 19.9145 20.1437 19.9811C20.1769 20.0477 20.1936 20.131 20.1769 20.1977C20.1769 20.3476 20.1104 20.4809 19.994 20.5808C19.8943 20.6808 19.7446 20.7307 19.5949 20.7307C19.4453 20.7307 19.3122 20.6808 19.1958 20.5642C19.0961 20.4642 19.0295 20.3143 19.0295 20.1644C19.0295 20.0977 19.0462 20.0144 19.0628 19.9478C19.0961 19.8812 19.1293 19.8145 19.1792 19.7646C19.2291 19.7146 19.2956 19.6646 19.3621 19.6479C19.4453 19.6646 19.5284 19.6479 19.5949 19.6479Z" fill="white"/>
<path d="M5.87596 6.90456C5.7263 6.90456 5.59327 6.85459 5.47687 6.75464C5.37709 6.65469 5.31057 6.52143 5.29395 6.3715C5.29395 6.28821 5.31057 6.22158 5.34383 6.15494C5.37709 6.08831 5.41035 6.02168 5.47687 5.9717C5.52675 5.92173 5.59327 5.87175 5.65979 5.85509C5.7263 5.82178 5.80945 5.82178 5.87596 5.82178C5.94248 5.82178 6.02562 5.83844 6.09214 5.85509C6.15866 5.87175 6.22517 5.92173 6.27506 5.9717C6.32495 6.02168 6.37483 6.08831 6.39146 6.15494C6.42472 6.22158 6.42472 6.28821 6.42472 6.3715C6.42472 6.43813 6.40809 6.52142 6.39146 6.58806C6.35821 6.65469 6.32495 6.72132 6.27506 6.7713C6.22517 6.82127 6.15866 6.87125 6.09214 6.88791C6.02562 6.88791 5.95911 6.90456 5.87596 6.90456Z" fill="white"/>
<path d="M5.87591 24.2793C5.94242 24.2793 6.02557 24.2793 6.09208 24.3126C6.1586 24.3459 6.22512 24.3792 6.275 24.4292C6.32489 24.4792 6.37478 24.5458 6.40804 24.6125C6.44129 24.6791 6.45792 24.7457 6.45792 24.829C6.45792 24.9789 6.39141 25.1122 6.29163 25.2122C6.19186 25.3121 6.0422 25.3787 5.90917 25.3787C5.7595 25.3787 5.62647 25.3288 5.51007 25.2288C5.41029 25.1289 5.34378 24.9956 5.32715 24.8457C5.32715 24.779 5.34378 24.6958 5.36041 24.6291C5.39366 24.5625 5.42692 24.4959 5.47681 24.4459C5.5267 24.3959 5.59321 24.3459 5.65973 24.3293C5.72625 24.296 5.79276 24.2793 5.87591 24.2793Z" fill="white"/>
<path d="M15.0386 16.1831C14.972 16.1831 14.8889 16.1831 14.8224 16.1497C14.7559 16.1331 14.6894 16.0831 14.6395 16.0331C14.5896 15.9832 14.5397 15.9165 14.5064 15.8499C14.4732 15.7833 14.4565 15.7166 14.4565 15.6333C14.4565 15.5667 14.4732 15.4834 14.4898 15.4168C14.5231 15.3501 14.5563 15.2835 14.6062 15.2335C14.6561 15.1836 14.7226 15.1336 14.7891 15.1003C14.8556 15.0669 14.9222 15.0503 15.0053 15.0503C15.0884 15.0503 15.155 15.0503 15.2215 15.0836C15.288 15.1169 15.3545 15.1502 15.421 15.2002C15.4709 15.2502 15.5208 15.3168 15.5541 15.3835C15.5873 15.4501 15.6039 15.5334 15.6039 15.6C15.6039 15.6666 15.5873 15.7499 15.5707 15.8166C15.5374 15.8832 15.5042 15.9498 15.4543 15.9998C15.4044 16.0498 15.3379 16.0998 15.2714 16.1164C15.1882 16.1664 15.1217 16.1831 15.0386 16.1831Z" fill="white"/>
<path d="M10.4488 11.5355C10.3823 11.5355 10.2991 11.5188 10.2326 11.5022C10.1661 11.4688 10.0996 11.4355 10.0497 11.3856C9.9998 11.3356 9.94991 11.2689 9.93328 11.2023C9.90002 11.1357 9.90002 11.0524 9.90002 10.9858C9.90002 10.9025 9.91665 10.8358 9.94991 10.7692C9.98317 10.7026 10.0164 10.6359 10.0829 10.586C10.1328 10.536 10.1993 10.486 10.2659 10.4694C10.3324 10.436 10.4155 10.436 10.482 10.436C10.5486 10.436 10.6317 10.4527 10.6982 10.486C10.7647 10.5193 10.8313 10.5526 10.8811 10.6193C10.931 10.6693 10.9643 10.7359 10.9975 10.8025C11.0308 10.8692 11.0308 10.9524 11.0308 11.0191C11.0308 11.0857 11.0142 11.169 10.9975 11.2356C10.9643 11.3023 10.931 11.3689 10.8645 11.4189C10.8146 11.4688 10.7481 11.5022 10.6816 11.5355C10.5818 11.5355 10.5153 11.5521 10.4488 11.5355Z" fill="white"/>
</g>
<defs>
<clipPath id="clip0_1736_371">
<rect width="97.9167" height="30" fill="white" transform="translate(0.286865 0.625)"/>
</clipPath>
</defs>
</svg>
