<svg width="159" height="34" viewBox="0 0 159 34" fill="none" xmlns="http://www.w3.org/2000/svg">
<g clip-path="url(#clip0_1736_288)">
<path d="M32.6687 21.0412C30.4562 29.9871 21.4451 35.4102 12.5722 33.1854C3.69929 30.9605 -1.71662 21.8988 0.495841 12.9761C2.7083 4.0302 11.7195 -1.39294 20.5923 0.831942C29.4883 3.03364 34.8811 12.0954 32.6687 21.0412Z" fill="white"/>
<path d="M23.8884 14.6229C24.211 12.3981 22.5286 11.2161 20.247 10.4049L20.9845 7.39208L19.1639 6.92857L18.4494 9.84872C17.9654 9.73284 17.4815 9.61696 16.9975 9.50108L17.735 6.55775L15.9143 6.09424L15.1768 9.10709C14.785 9.01439 14.3932 8.92169 14.0245 8.82898L11.5124 8.20324L11.0285 10.15C11.0285 10.15 12.3882 10.4513 12.3421 10.4745C13.0796 10.6599 13.2179 11.1466 13.1948 11.5406L12.3421 14.9706C12.3882 14.9937 12.4573 14.9937 12.5265 15.0401C12.4573 15.0169 12.4112 15.0169 12.3421 14.9937L11.1437 19.7911C11.0515 20.0229 10.821 20.3474 10.314 20.2315C10.3371 20.2547 9.00037 19.907 9.00037 19.907L8.10156 21.9928L10.4753 22.5954C10.9132 22.7113 11.3511 22.8272 11.7659 22.9431L11.0054 25.9791L12.8261 26.4426L13.5636 23.4297C14.0706 23.5688 14.5315 23.6847 15.0155 23.8006L14.278 26.7902L16.0987 27.2537L16.8592 24.2177C19.9705 24.7971 22.2982 24.5654 23.2892 21.7379C24.0727 19.4667 23.2431 18.1457 21.6068 17.2882C22.7591 17.0332 23.6579 16.2452 23.8884 14.6229ZM19.74 20.4864C19.1869 22.7576 15.3612 21.5293 14.1397 21.228L15.1307 17.1955C16.3752 17.4967 20.3162 18.1225 19.74 20.4864ZM20.2931 14.5998C19.7861 16.6624 16.6057 15.6195 15.5917 15.3646L16.4905 11.7028C17.5276 11.9577 20.8462 12.4444 20.2931 14.5998Z" fill="#080808"/>
<path d="M48.6171 10.4042C49.9538 10.4042 51.1291 10.636 52.0971 11.1227C53.0881 11.6094 53.8947 12.2583 54.54 13.0695C55.1853 13.8806 55.6462 14.854 55.9689 15.9433C56.2685 17.0325 56.4298 18.2145 56.4298 19.4891C56.4298 21.4359 56.0841 23.2668 55.3697 25.005C54.6552 26.7432 53.6873 28.2496 52.4428 29.5243C51.2213 30.7989 49.7463 31.8187 48.087 32.5603C46.4046 33.3019 44.5839 33.6727 42.625 33.6727C42.3715 33.6727 41.9336 33.6727 41.2883 33.6496C40.666 33.6264 39.9286 33.58 39.1219 33.4642C38.3153 33.3483 37.4395 33.1861 36.5407 32.9543C35.6419 32.7225 34.7662 32.4213 33.9595 32.0273L41.2192 1.34249L47.7183 0.322754L45.114 11.2154C45.6671 10.9605 46.2202 10.775 46.7964 10.636C47.3726 10.4969 47.9718 10.4042 48.6171 10.4042ZM43.1551 28.4814C44.1461 28.4814 45.0679 28.2496 45.9206 27.7629C46.7964 27.2762 47.5339 26.6505 48.1792 25.8393C48.8014 25.0282 49.3085 24.1243 49.6772 23.1046C50.0459 22.0848 50.2303 21.0419 50.2303 19.9295C50.2303 18.5853 49.9999 17.5192 49.562 16.7544C49.1241 15.9896 48.2944 15.6188 47.096 15.6188C46.7042 15.6188 46.1972 15.6883 45.5749 15.8274C44.9527 15.9664 44.3765 16.2677 43.8695 16.7081L41.1039 28.2728C41.2653 28.296 41.4266 28.3191 41.5418 28.3655C41.657 28.3887 41.7953 28.4118 41.9336 28.435C42.0719 28.4582 42.2332 28.4582 42.4406 28.4582C42.648 28.4582 42.8555 28.4814 43.1551 28.4814Z" fill="white"/>
<path d="M63.1597 33.0937H56.9371L62.1917 10.8912H68.4373L63.1597 33.0937ZM66.2018 8.17967C65.326 8.17967 64.5425 7.92474 63.8511 7.39169C63.1366 6.88182 62.7909 6.07067 62.7909 5.00458C62.7909 4.42519 62.9062 3.86897 63.1366 3.33593C63.3671 2.82606 63.6897 2.36254 64.0815 1.99173C64.4733 1.62092 64.9342 1.31963 65.4413 1.08787C65.9713 0.856113 66.5245 0.740234 67.1006 0.740234C67.9764 0.740234 68.76 0.995169 69.4514 1.52821C70.1427 2.06126 70.5115 2.84923 70.5115 3.91532C70.5115 4.51789 70.3963 5.07411 70.1658 5.58398C69.9353 6.09385 69.6127 6.55736 69.2209 6.92818C68.8291 7.29899 68.3682 7.60028 67.8611 7.83203C67.3311 8.06379 66.778 8.17967 66.2018 8.17967Z" fill="white"/>
<path d="M73.8989 5.35274L80.398 4.33301L78.8078 10.8686H85.7679L84.5003 16.0136H77.5864L75.7427 23.7775C75.5813 24.4264 75.4661 25.029 75.4431 25.5852C75.42 26.1414 75.4891 26.6281 75.6505 27.0453C75.8118 27.4625 76.1114 27.7637 76.5493 27.9955C76.9872 28.2273 77.6094 28.3431 78.416 28.3431C79.0844 28.3431 79.7297 28.2736 80.375 28.1577C80.9972 28.0419 81.6425 27.8565 82.2878 27.6247L82.7488 32.4453C81.9191 32.7465 80.9972 33.0247 80.0293 33.2564C79.0383 33.4882 77.886 33.6041 76.5493 33.6041C74.6134 33.6041 73.1154 33.3259 72.0552 32.7465C70.9951 32.1672 70.2346 31.3792 69.7967 30.3826C69.3588 29.3861 69.1514 28.2273 69.2205 26.9526C69.2666 25.6547 69.474 24.2874 69.7967 22.8505L73.8989 5.35274Z" fill="white"/>
<path d="M85.5145 24.217C85.5145 22.2934 85.8141 20.5089 86.4363 18.817C87.0586 17.1252 87.9343 15.642 89.0867 14.3905C90.239 13.139 91.6218 12.1192 93.2581 11.4008C94.8944 10.6823 96.715 10.3115 98.7431 10.3115C100.011 10.3115 101.14 10.4274 102.131 10.6823C103.122 10.9141 104.021 11.2386 104.85 11.6325L102.707 16.5226C102.154 16.2909 101.555 16.0823 100.956 15.9201C100.356 15.7347 99.6189 15.642 98.7431 15.642C96.6689 15.642 95.0326 16.3604 93.8112 17.7973C92.5897 19.2342 91.9905 21.1578 91.9905 23.5913C91.9905 25.0282 92.2901 26.187 92.9124 27.0676C93.5346 27.9483 94.6639 28.3887 96.3232 28.3887C97.1299 28.3887 97.9134 28.296 98.674 28.1337C99.4345 27.9715 100.103 27.7629 100.679 27.508L101.14 32.5371C100.356 32.8384 99.4806 33.1165 98.5357 33.3715C97.5908 33.6032 96.4385 33.7191 95.1248 33.7191C93.3963 33.7191 91.9214 33.4642 90.723 32.9543C89.5245 32.4444 88.5335 31.7723 87.75 30.9148C86.9664 30.0573 86.3902 29.0376 86.0445 27.902C85.6758 26.6968 85.5145 25.4917 85.5145 24.217Z" fill="white"/>
<path d="M113.101 33.6732C111.626 33.6732 110.335 33.4414 109.229 33.0011C108.146 32.5608 107.247 31.9118 106.533 31.1007C105.818 30.2895 105.288 29.3161 104.92 28.2037C104.551 27.0913 104.366 25.8629 104.366 24.5187C104.366 22.8269 104.643 21.1351 105.173 19.4432C105.726 17.7514 106.533 16.245 107.593 14.8776C108.653 13.5334 109.967 12.421 111.488 11.5635C113.032 10.706 114.783 10.2656 116.765 10.2656C118.217 10.2656 119.508 10.4974 120.614 10.9377C121.72 11.3781 122.619 12.027 123.334 12.8381C124.048 13.6493 124.578 14.6227 124.947 15.7351C125.316 16.8476 125.5 18.0759 125.5 19.4201C125.5 21.1119 125.223 22.8037 124.693 24.4956C124.163 26.1874 123.38 27.6938 122.343 29.0612C121.306 30.4054 120.015 31.5178 118.471 32.3753C116.95 33.256 115.152 33.6732 113.101 33.6732ZM116.212 15.6192C115.29 15.6192 114.484 15.8973 113.769 16.4304C113.078 16.9634 112.479 17.6355 112.018 18.4467C111.534 19.2578 111.188 20.1617 110.935 21.1351C110.704 22.1085 110.589 23.0355 110.589 23.893C110.589 25.3067 110.819 26.396 111.257 27.184C111.718 27.9719 112.525 28.3659 113.7 28.3659C114.622 28.3659 115.429 28.0878 116.143 27.5548C116.835 27.0217 117.434 26.3496 117.895 25.5385C118.379 24.7273 118.724 23.8235 118.978 22.8501C119.208 21.8767 119.324 20.9497 119.324 20.0922C119.324 18.6784 119.093 17.5892 118.655 16.8012C118.194 16.0132 117.388 15.6192 116.212 15.6192Z" fill="white"/>
<path d="M132.299 33.0937H126.076L131.331 10.8912H137.599L132.299 33.0937ZM135.318 8.17967C134.442 8.17967 133.658 7.92474 132.967 7.39169C132.276 6.88182 131.907 6.07067 131.907 5.00458C131.907 4.42519 132.022 3.86897 132.276 3.33593C132.506 2.82606 132.829 2.36254 133.221 1.99173C133.612 1.62092 134.073 1.31963 134.58 1.08787C135.087 0.856113 135.64 0.740234 136.24 0.740234C137.115 0.740234 137.899 0.995169 138.59 1.52821C139.282 2.06126 139.651 2.84923 139.651 3.91532C139.651 4.51789 139.535 5.07411 139.282 5.58398C139.051 6.09385 138.729 6.55736 138.337 6.92818C137.945 7.29899 137.484 7.60028 136.977 7.83203C136.47 8.06379 135.917 8.17967 135.318 8.17967Z" fill="white"/>
<path d="M142.071 11.8875C142.531 11.7485 143.062 11.5862 143.638 11.4008C144.214 11.2154 144.859 11.0532 145.574 10.891C146.288 10.7287 147.095 10.6128 147.97 10.497C148.846 10.4043 149.86 10.3579 150.966 10.3579C154.239 10.3579 156.498 11.3081 157.742 13.2317C158.987 15.1553 159.194 17.7742 158.387 21.0883L155.53 33.0702H149.284L152.05 21.3432C152.211 20.6016 152.349 19.9063 152.441 19.2111C152.534 18.5158 152.534 17.9132 152.418 17.4034C152.303 16.8935 152.05 16.4531 151.635 16.1287C151.22 15.8042 150.598 15.642 149.768 15.642C148.961 15.642 148.132 15.7347 147.302 15.8969L143.223 33.0702H136.954C137 33.0934 142.071 11.8875 142.071 11.8875Z" fill="white"/>
</g>
<defs>
<clipPath id="clip0_1736_288">
<rect width="158.873" height="33.3633" fill="white" transform="translate(0 0.318359)"/>
</clipPath>
</defs>
</svg>
