<svg width="132" height="32" viewBox="0 0 132 32" fill="none" xmlns="http://www.w3.org/2000/svg">
<g clip-path="url(#clip0_1736_338)">
<path d="M14.5117 27.5507C13.9314 28.7137 13.1069 29.6013 12.2212 30.1828C11.2439 30.7643 9.93069 31.101 8.1899 31.101C5.8994 31.101 4.15861 30.4277 2.84539 29.1116C1.53217 27.7955 0.951904 25.898 0.951904 23.5107V11.7274H4.25024V22.9904C4.25024 24.7043 4.64725 26.051 5.56346 26.9386C6.38804 27.7649 7.60964 28.2546 9.25881 28.2546C11.1523 28.2546 12.5571 27.6731 13.5344 26.6019C14.5117 25.4389 15.0003 23.8168 15.0003 21.5825V11.7274H18.2987V30.5807H15.0003V27.5201C15.0003 27.5507 14.5117 27.5507 14.5117 27.5507ZM64.4448 27.5507C63.8645 28.7137 63.0399 29.6013 62.1542 30.1828C61.177 30.7643 59.8637 31.101 58.123 31.101C55.8325 31.101 54.0917 30.4277 52.7784 29.1116C51.4652 27.7955 50.885 25.898 50.885 23.5107V11.7274H54.1833V22.9904C54.1833 24.7043 54.5803 26.051 55.4965 26.9386C56.4127 27.8262 57.6343 28.2546 59.2835 28.2546C61.177 28.2546 62.5818 27.6731 63.5591 26.6019C64.5364 25.4389 65.025 23.8168 65.025 21.5825V11.7274H68.3233V30.5807H65.025V27.5201C65.025 27.5507 64.4448 27.5507 64.4448 27.5507ZM41.6924 14.6962C42.3643 12.7068 43.9218 11.7274 46.365 11.7274H47.9226V15.0328H45.8764C44.2272 15.0328 43.0972 15.4307 42.2726 16.1959C41.4481 16.9304 41.051 18.2465 41.051 19.991V30.7031H37.7527V11.7274H41.051V14.6044H41.7229V14.6962H41.6924ZM85.0593 11.9722C86.2809 12.4619 87.2887 13.2883 88.0217 14.2677C88.7547 15.2471 89.1822 16.4101 89.1822 17.7262H85.7312C85.5785 15.3389 83.8377 14.1147 80.631 14.1147C79.2262 14.1147 78.1572 14.3595 77.4243 14.941C76.6913 15.4307 76.2638 16.1653 76.2638 16.9916C76.2638 17.7262 76.5081 18.2159 76.9967 18.4607C77.4854 18.7974 78.4016 19.0422 79.6232 19.3789L83.0742 20.1134C84.9677 20.5113 86.3725 21.0316 87.3498 21.7662C88.3271 22.5007 88.8158 23.6637 88.8158 25.2246C88.8158 26.3877 88.4798 27.4589 87.8385 28.3465C87.1971 29.234 86.1893 29.9992 84.9677 30.4889C83.7461 30.9786 82.3412 31.2234 80.7837 31.2234C77.9129 31.2234 75.6835 30.5501 74.126 29.234C72.5684 27.918 71.5911 26.2652 71.3468 24.1228H74.7978C75.2865 26.908 77.2716 28.3158 80.8753 28.3158C82.4329 28.3158 83.6545 28.071 84.479 27.4895C85.3036 26.908 85.7007 26.2652 85.7007 25.4389C85.7007 24.9492 85.548 24.5207 85.3036 24.2146C85.0593 23.9698 84.6318 23.7249 84.1431 23.5413C83.6545 23.3883 82.8299 23.2046 81.6694 22.9598L78.2183 22.2253C76.5692 21.8886 75.2559 21.3071 74.3703 20.5113C73.4541 19.685 72.9654 18.5219 72.9654 17.0528C72.9654 15.2471 73.6984 13.8392 75.1032 12.768C76.5692 11.6968 78.4016 11.2071 80.6921 11.2071C82.4329 11.2377 83.8377 11.4825 85.0593 11.9722ZM28.9572 27.7037H34.3933V30.5807H31.8585C29.8123 30.5807 28.2547 30.091 27.2469 29.1116C26.2696 28.1322 25.781 26.5713 25.781 24.4901V14.6962H21.4138V11.8192H25.6894V6.70801H28.9877V11.8192H33.9047V14.6962H28.9877V27.7037H28.9572ZM98.6802 27.7037H104.116V30.5807H101.582C99.5353 30.5807 97.9778 30.091 96.9699 29.1116C95.9621 28.1322 95.504 26.5713 95.504 24.4901V14.6962H91.1368V11.8192H95.504V6.70801H98.8024V11.8192H103.658V14.6962H98.8024V27.7037H98.6802Z" fill="white"/>
<path d="M126.686 4.99431V19.1649H113.126V4.99431H126.686V0.709473H118.379L108.942 8.02431V12.707C108.942 18.8894 113.95 24.0619 120.181 23.97C126.167 23.8782 131.022 18.9507 131.022 12.9519V4.99431H126.686Z" fill="white"/>
</g>
<defs>
<clipPath id="clip0_1736_338">
<rect width="131.037" height="31.375" fill="white" transform="translate(0.185303 0.3125)"/>
</clipPath>
</defs>
</svg>
