<svg width="231" height="48" viewBox="0 0 231 48" fill="none" xmlns="http://www.w3.org/2000/svg">
<path fill-rule="evenodd" clip-rule="evenodd" d="M92.3699 39.1573C92.55 37.8879 93.6222 35.0117 94.2111 32.8746C93.9752 33.425 93.7379 33.9682 93.5064 34.4971C92.2198 37.6048 90.8175 39.7977 88.6146 41.23C87.481 41.9677 85.8543 42.4423 84.3261 42.6595C88.3287 42.6595 89.1993 45.4428 88.9577 48.0001C90.1099 44.8796 92.2112 43.1999 96.0537 43.0555C93.878 42.6167 92.0211 41.5846 92.3656 39.163L92.3699 39.1573ZM119.037 30.5517C117.599 30.5517 116.926 30.0314 116.926 28.9292C116.926 27.95 117.661 27.4911 119.71 27.3082L122.096 27.0937V27.92C122.096 29.664 120.843 30.5517 119.037 30.5517ZM117.385 34.0397C119.672 34.0397 121.699 33.029 122.188 31.6224L122.494 33.6408H126.655V24.7079C126.655 20.3322 124.146 17.8463 119.71 17.8463C115.335 17.8463 112.49 20.1106 112.49 23.5643H116.405C116.405 22.1877 117.476 21.4201 119.466 21.4201C121.149 21.4201 122.066 22.2149 122.066 23.7144V23.9589L117.778 24.2948C114.107 24.5707 112.118 26.3147 112.118 29.1294C112.118 32.1313 114.138 34.0254 117.38 34.0254L117.385 34.0397ZM110.991 18.3438C110.399 18.2023 109.793 18.1303 109.185 18.1294C107.135 18.1294 105.79 19.1386 105.147 20.6381L104.902 18.3738H100.471V33.6408H105.188V27.0023C105.188 23.9732 106.809 22.7795 109.502 22.7795H111.001V18.3481L110.991 18.3438ZM86.9836 32.2985L81.5586 18.3438H86.6062L89.9412 28.1644L93.6436 18.3438H98.5468L93.0704 31.4723C92.7316 32.2842 92.3842 33.079 92.0311 33.8853C90.1199 38.514 88.1214 40.644 83.3526 41.4473C89.5981 39.1973 87.7326 34.2784 86.9907 32.2985H86.9836ZM72.9316 10.999H67.9741V33.638H81.8645V29.0493H72.9316V11.0019V10.999ZM217.674 26.815C217.674 23.4199 220.031 20.7268 223.09 20.7268C225.476 20.7268 226.95 22.2578 226.95 24.6736C226.95 28.2231 224.564 30.8533 221.444 30.8533C219.179 30.8533 217.68 29.2637 217.68 26.815H217.674ZM214.861 26.9994C214.861 30.7018 217.338 33.2406 220.918 33.2406C221.973 33.2534 223.014 32.9992 223.945 32.5016C224.876 32.004 225.666 31.2792 226.241 30.3945L225.751 33.455C225.262 36.5442 223.463 38.1967 220.703 38.1967C218.226 38.1967 216.635 36.8515 216.512 34.6472H213.764C213.856 38.2896 216.61 40.7054 220.649 40.7054C225.08 40.7054 227.776 38.1052 228.572 33.0576L230.835 18.6769H228.297L227.655 21.1856C226.981 19.4116 225.176 18.2795 222.912 18.2795C218.414 18.2795 214.866 22.1391 214.866 26.9994H214.861ZM200.206 33.638L201.459 25.7443C201.95 22.6552 203.746 20.7582 206.32 20.7582C208.675 20.7582 209.777 22.3178 209.321 25.1325L207.975 33.638H210.728L212.166 24.4892C212.748 20.8783 210.667 18.248 207.272 18.248C205.099 18.248 203.539 19.1343 202.223 21.0627L202.284 18.6754H199.837L197.449 33.6366L200.206 33.638ZM190.568 33.638H193.322L195.678 18.6769H192.962L190.576 33.638H190.568ZM194.882 15.0674C195.983 15.0674 196.992 14.0267 196.992 12.8945C196.999 12.6879 196.963 12.4821 196.887 12.2898C196.811 12.0975 196.696 11.9229 196.55 11.7767C196.404 11.6305 196.229 11.5159 196.037 11.4399C195.845 11.3639 195.639 11.3282 195.432 11.335C194.3 11.335 193.288 12.3756 193.288 13.5064C193.285 13.7149 193.324 13.9219 193.403 14.1148C193.482 14.3077 193.6 14.4825 193.748 14.6286C193.897 14.7746 194.074 14.8888 194.269 14.9642C194.463 15.0397 194.671 15.0748 194.879 15.0674H194.882ZM185.121 33.638L187.141 21.0026H190.018L190.385 18.6769H187.509L188.242 13.9967H185.489L184.754 18.6769H181.887L181.519 21.0026H184.395L182.405 33.638H185.121ZM167.713 29.3495C167.713 32.1327 169.977 33.9997 173.288 33.9997C176.928 33.9997 179.283 32.1327 179.283 29.2823C179.283 27.4154 178.304 26.2546 176.139 25.5199L173.69 24.6936C172.403 24.2348 171.831 23.5615 171.831 22.5823C171.831 21.2357 172.902 20.438 174.616 20.438C176.36 20.438 177.278 21.2628 177.308 22.9153H180.001C180.001 20.1006 177.981 18.2652 174.799 18.2652C171.404 18.2652 169.17 20.0706 169.17 22.7938C169.17 24.7208 170.302 25.9759 172.382 26.6792L174.861 27.5054C176.147 27.9343 176.605 28.4846 176.605 29.5253C176.605 30.8705 175.318 31.8125 173.46 31.8125C171.654 31.8125 170.458 30.8333 170.431 29.3352L167.713 29.3495ZM153.763 27.0237C153.763 23.5357 156.301 20.721 159.392 20.721C162.024 20.721 163.645 22.4965 163.645 25.2497C163.645 28.7377 161.104 31.5524 158.015 31.5524C155.384 31.5524 153.763 29.8084 153.763 27.0237ZM150.948 27.2081C150.948 31.2464 153.731 33.9997 157.801 33.9997C162.604 33.9997 166.428 30.0228 166.428 25.0667C166.428 21.027 163.675 18.2737 159.605 18.2737C154.802 18.2737 150.948 22.252 150.948 27.2081ZM132.53 33.6323L134.09 23.7816H144.863L143.333 33.6323H146.178L149.696 11.5122H146.819L145.29 21.0898H134.522L136.02 11.5122H133.141L129.654 33.6323H132.53Z" fill="white"/>
<path fill-rule="evenodd" clip-rule="evenodd" d="M13.9962 5.09044L0 39.5499H37.1927L43.817 23.2393C43.8541 23.1479 43.8927 23.0621 43.9299 22.9706C46.9958 15.5484 51.5891 8.85433 57.4115 3.32358L49.8352 8.42116L42.1159 13.6245C38.7323 15.9246 36.1483 19.2206 34.7223 23.0554C33.2964 26.8901 33.0991 31.0736 34.1579 35.0256C30.4422 32.7026 26.207 31.3403 21.8338 31.0613C17.4606 30.7823 13.0867 31.5954 9.10591 33.4274C12.3001 30.4284 14.6982 26.6821 16.0844 22.5258C17.4706 18.3694 17.8013 13.9336 17.0468 9.61765C20.3083 12.0851 24.2566 13.4769 28.3445 13.6001C32.4324 13.7233 36.4573 12.5718 39.8616 10.3052L47.598 5.09758L55.1743 0H55.1672C47.7435 3.36255 39.6873 5.10097 31.5376 5.09901H13.9962V5.09044Z" fill="url(#paint0_linear_1736_609)"/>
<defs>
<linearGradient id="paint0_linear_1736_609" x1="0.240155" y1="39.3698" x2="56.002" y2="1.87406" gradientUnits="userSpaceOnUse">
<stop stop-color="#00C1FF"/>
<stop offset="0.41" stop-color="#512FDF"/>
<stop offset="0.61" stop-color="#872DEB"/>
<stop offset="0.79" stop-color="#EA29FF"/>
<stop offset="1" stop-color="#FF6EFF"/>
</linearGradient>
</defs>
</svg>
