<svg width="185" height="32" viewBox="0 0 185 32" fill="none" xmlns="http://www.w3.org/2000/svg">
<g clip-path="url(#clip0_1736_269)">
<path d="M19.2661 16.0042C19.2661 11.1153 21.4742 6.44863 25.1976 3.42641C18.4435 -2.04026 8.65876 -0.840256 3.33344 6.13752C-1.99189 13.0709 -0.822913 23.1153 5.97445 28.582C11.6461 33.1597 19.5692 33.1597 25.2409 28.582C21.4742 25.5597 19.2661 20.8931 19.2661 16.0042Z" fill="white"/>
<path d="M50.439 16.0047C50.439 24.8491 43.4685 32.0047 34.8527 32.0047C31.3458 32.0047 27.9688 30.8047 25.2412 28.5825C31.9952 23.1158 33.1642 13.0713 27.8389 6.09356C27.0596 5.11579 26.1937 4.18245 25.2412 3.4269C31.9952 -2.03977 41.8233 -0.839768 47.1053 6.13801C49.2701 8.93801 50.439 12.4047 50.439 16.0047Z" fill="white"/>
<path d="M76.4746 23.6155V16.6235C76.4746 13.9835 74.7593 12.2235 71.9983 12.1915C70.5444 12.1755 69.0414 12.6075 67.9959 14.1755C67.2117 12.9435 65.9701 12.1915 64.2384 12.1915C63.0295 12.1915 61.8369 12.5435 60.9057 13.8395V12.4795H58.4389V23.6155H60.9384V17.4395C60.9384 15.5035 62.033 14.4795 63.7156 14.4795C65.3493 14.4795 66.1825 15.5355 66.1825 17.4235V23.6155H68.682V17.4395C68.682 15.5035 69.8256 14.4795 71.4592 14.4795C73.1419 14.4795 73.9588 15.5355 73.9588 17.4235V23.6155H76.4746ZM113.461 12.4795H109.409V9.08751H106.91V12.4795H104.606V14.6875H106.91V19.7755C106.91 22.3675 107.939 23.9035 110.863 23.9035C111.942 23.9035 113.167 23.5835 113.951 23.0395L113.232 20.9595C112.497 21.3755 111.68 21.5835 111.043 21.5835C109.802 21.5835 109.409 20.8315 109.409 19.7115V14.6875H113.461V12.4795ZM134.552 12.1915C133.13 12.1915 132.199 12.8475 131.546 13.8235V12.4795H129.095V23.6155H131.562V17.3755C131.562 15.5355 132.379 14.5115 133.996 14.5115C134.503 14.5115 135.025 14.5755 135.548 14.7835L136.316 12.4955C135.777 12.2875 135.058 12.1915 134.552 12.1915ZM102.646 13.3595C101.453 12.5915 99.8198 12.1915 98.0064 12.1915C95.1311 12.1915 93.2687 13.5355 93.2687 15.7595C93.2687 17.5835 94.641 18.7035 97.1896 19.0395L98.3495 19.1995C99.7054 19.3915 100.343 19.7275 100.343 20.3675C100.343 21.2315 99.444 21.7115 97.745 21.7115C96.0297 21.7115 94.7881 21.1675 93.9549 20.5435L92.795 22.4315C94.1509 23.4075 95.8663 23.8715 97.7287 23.8715C101.012 23.8715 102.924 22.3515 102.924 20.2395C102.924 18.2875 101.421 17.2635 98.9539 16.9115L97.794 16.7515C96.7158 16.6075 95.8663 16.3995 95.8663 15.6635C95.8663 14.8475 96.6831 14.3515 98.0391 14.3515C99.493 14.3515 100.898 14.8955 101.584 15.3115L102.646 13.3595ZM168.94 12.1915C167.519 12.1915 166.588 12.8475 165.934 13.8235V12.4795H163.484V23.6155H165.951V17.3755C165.951 15.5355 166.768 14.5115 168.385 14.5115C168.891 14.5115 169.414 14.5755 169.937 14.7835L170.705 12.4955C170.149 12.2875 169.447 12.1915 168.94 12.1915ZM137.051 18.0475C137.051 21.4235 139.453 23.9035 143.112 23.9035C144.827 23.9035 145.971 23.5355 147.213 22.5755L146.02 20.6235C145.089 21.2795 144.109 21.6315 143.047 21.6315C141.07 21.6155 139.616 20.2075 139.616 18.0635C139.616 15.9195 141.07 14.5275 143.047 14.4955C144.125 14.4955 145.089 14.8475 146.02 15.5035L147.213 13.5515C145.971 12.5915 144.827 12.2235 143.112 12.2235C139.469 12.1915 137.051 14.6715 137.051 18.0475ZM160.233 18.0475V12.4795H157.766V13.8235C156.982 12.8155 155.789 12.1915 154.172 12.1915C150.986 12.1915 148.487 14.6395 148.487 18.0475C148.487 21.4555 150.986 23.9035 154.172 23.9035C155.789 23.9035 156.982 23.2795 157.766 22.2715V23.6155H160.233V18.0475ZM151.019 18.0475C151.019 16.0955 152.326 14.4795 154.466 14.4795C156.508 14.4795 157.897 16.0155 157.897 18.0475C157.897 20.0795 156.525 21.6155 154.466 21.6155C152.326 21.6155 151.019 19.9995 151.019 18.0475ZM121.156 12.1915C117.823 12.1915 115.487 14.5755 115.487 18.0475C115.487 21.5835 117.921 23.9035 121.319 23.9035C123.034 23.9035 124.603 23.4875 125.975 22.3355L124.766 20.5435C123.818 21.2955 122.593 21.7115 121.466 21.7115C119.865 21.7115 118.427 20.9915 118.068 18.9915H126.514C126.53 18.6875 126.563 18.3835 126.563 18.0635C126.547 14.5755 124.358 12.1915 121.156 12.1915ZM121.123 14.3675C122.724 14.3675 123.737 15.3435 123.998 17.0715H118.101C118.362 15.4555 119.358 14.3675 121.123 14.3675ZM183.202 18.0475V7.99951H180.736V13.8235C179.951 12.8155 178.759 12.1915 177.141 12.1915C173.956 12.1915 171.456 14.6395 171.456 18.0475C171.456 21.4555 173.956 23.9035 177.141 23.9035C178.759 23.9035 179.951 23.2795 180.736 22.2715V23.6155H183.202V18.0475ZM173.988 18.0475C173.988 16.0955 175.295 14.4795 177.436 14.4795C179.478 14.4795 180.866 16.0155 180.866 18.0475C180.866 20.0795 179.494 21.6155 177.436 21.6155C175.295 21.6155 173.988 19.9995 173.988 18.0475ZM90.4262 18.0475V12.4795H87.9593V13.8235C87.1752 12.8155 85.9826 12.1915 84.3652 12.1915C81.1796 12.1915 78.6801 14.6395 78.6801 18.0475C78.6801 21.4555 81.1796 23.9035 84.3652 23.9035C85.9826 23.9035 87.1752 23.2795 87.9593 22.2715V23.6155H90.4262V18.0475ZM81.2123 18.0475C81.2123 16.0955 82.5192 14.4795 84.6593 14.4795C86.7014 14.4795 88.09 16.0155 88.09 18.0475C88.09 20.0795 86.7177 21.6155 84.6593 21.6155C82.5192 21.6155 81.2123 19.9995 81.2123 18.0475Z" fill="white"/>
</g>
<defs>
<clipPath id="clip0_1736_269">
<rect width="185" height="32" fill="white"/>
</clipPath>
</defs>
</svg>
