<svg width="132" height="30" viewBox="0 0 132 30" fill="none" xmlns="http://www.w3.org/2000/svg">
<g clip-path="url(#clip0_1736_354)">
<path fill-rule="evenodd" clip-rule="evenodd" d="M8.66212 0.534668H28.4399C28.9209 0.534668 29.3454 0.789319 29.5717 1.18544L35.3438 11.2017C35.655 11.711 35.5418 12.39 35.1174 12.7862L19.2725 28.4613C18.7632 28.9706 17.9427 28.9706 17.4334 28.4613L1.61681 12.7862C1.19239 12.3617 1.1075 11.6827 1.41874 11.1451L7.58693 1.10056C7.78499 0.761024 8.20941 0.534668 8.66212 0.534668ZM25.8651 5.00519V7.80634H20.2345V9.75866C24.1958 9.95672 27.1667 10.8338 27.1667 11.8524V14.0028C27.1384 15.0214 24.1675 15.8703 20.2345 16.0966V20.8784H16.4997V16.0966C12.5385 15.8986 9.56754 15.0214 9.56754 14.0028V11.8524C9.59584 10.8338 12.5668 9.98501 16.4997 9.75866V7.80634H10.8691V5.00519H25.8651ZM18.3671 14.6253C22.583 14.6253 26.1198 13.8896 26.9686 12.9276C26.233 12.1071 23.6016 11.4563 20.2345 11.2866V13.3238C19.6404 13.3521 19.0179 13.3803 18.3671 13.3803C17.7163 13.3803 17.0939 13.3521 16.4997 13.3238V11.2866C13.1326 11.4563 10.5013 12.1071 9.7656 12.9276C10.6427 13.8896 14.1512 14.6253 18.3671 14.6253Z" fill="white"/>
<path d="M43.0395 5.9673L47.5949 5.45801V9.90023H51.5561V13.7483H47.5666V19.7184C47.5666 21.1331 48.1608 21.8405 49.3492 21.8405C50.1131 21.8405 50.7356 21.699 51.2449 21.4444L52.2918 25.2924C51.2449 25.6885 50.1414 25.9432 48.9814 25.9998C47.1422 26.0847 45.6709 25.6319 44.5957 24.6699C43.5488 23.6796 43.0112 22.0103 43.0112 19.6901V13.72H40.2667V9.87194H43.0678V5.9673H43.0395Z" fill="white"/>
<path d="M68.6747 19.2654H57.1588C57.272 20.0859 57.7247 20.765 58.4604 21.3026C59.196 21.8119 60.1864 22.0665 61.403 22.0665C63.1573 22.0665 64.5154 21.6421 65.4774 20.8216L68.0522 23.7076C66.496 25.2638 64.2325 26.0561 61.3181 26.0561C58.517 26.0561 56.3666 25.2921 54.8104 23.7642C53.2825 22.2363 52.5186 20.1708 52.5186 17.596C52.5186 15.1627 53.2825 13.1821 54.7821 11.6825C56.2817 10.1546 58.2906 9.39062 60.8371 9.39062C63.61 9.39062 65.7321 10.2395 67.1751 11.9654C68.6747 13.6631 69.184 16.0964 68.6747 19.2654ZM57.1588 15.8701H64.6003C64.572 15.0495 64.1759 14.427 63.4685 14.0026C62.7611 13.5499 61.884 13.3236 60.8654 13.3236C59.96 13.3236 59.1677 13.5499 58.517 14.0026C57.8379 14.4553 57.3852 15.0778 57.1588 15.8701Z" fill="white"/>
<path d="M72.4938 5.9673L77.0492 5.45801V9.90023H81.0105V13.7483H77.0209V19.7184C77.0209 21.1331 77.6151 21.8405 78.8035 21.8405C79.5675 21.8405 80.1899 21.699 80.6992 21.4444L81.7461 25.2924C80.6992 25.6885 79.624 25.9432 78.4357 25.9998C76.5965 26.0847 75.1252 25.6319 74.05 24.6699C73.0031 23.6796 72.4655 22.0103 72.4655 19.6901V13.72H69.6927V9.87194H72.4938V5.9673Z" fill="white"/>
<path d="M83.4724 3.16602H88.0844V11.7392C89.2162 10.2679 90.8007 9.53227 92.8379 9.53227C96.9971 9.53227 99.0909 12.0788 99.0909 17.1435V25.6601H94.5355V17.1718C94.5355 16.0683 94.2526 15.2194 93.715 14.6253C93.1774 14.0311 92.47 13.7198 91.5646 13.7198C90.5743 13.7198 89.7255 14.0594 89.0464 14.7384C88.3956 15.4175 88.0561 16.3795 88.0561 17.5962V25.6318H83.5007V3.16602H83.4724Z" fill="white"/>
<path d="M117.001 19.2658H105.485C105.599 20.0864 106.051 20.7655 106.787 21.3031C107.523 21.8124 108.513 22.067 109.73 22.067C111.484 22.067 112.842 21.6426 113.804 20.822L116.379 23.6798C114.823 25.236 112.559 26.0282 109.645 26.0282C106.844 26.0282 104.693 25.2643 103.137 23.7364C101.609 22.2085 100.845 20.143 100.845 17.5682C100.845 15.1349 101.609 13.1543 103.109 11.6546C104.608 10.1267 106.617 9.36279 109.164 9.36279C111.937 9.36279 114.059 10.2116 115.502 11.9376C117.001 13.6636 117.482 16.0969 117.001 19.2658ZM105.485 15.8705H112.899C112.87 15.05 112.474 14.4275 111.767 14.0031C111.059 13.5504 110.182 13.324 109.164 13.324C108.258 13.324 107.466 13.5504 106.815 14.0031C106.165 14.4558 105.712 15.0783 105.485 15.8705Z" fill="white"/>
<path d="M118.897 9.84339H123.141L123.481 11.5693C124.471 10.1546 125.857 9.44727 127.668 9.44727C129.14 9.44727 130.441 9.92827 131.516 10.8903L129.621 14.5686C128.885 14.031 128.036 13.7763 127.102 13.7763C126.055 13.7763 125.207 14.1158 124.499 14.7666C123.792 15.4174 123.452 16.2945 123.452 17.4263V25.6883H118.897V9.84339Z" fill="white"/>
</g>
<defs>
<clipPath id="clip0_1736_354">
<rect width="131.183" height="28.9375" fill="white" transform="translate(0.705872 0.15625)"/>
</clipPath>
</defs>
</svg>
