<svg width="94" height="29" viewBox="0 0 94 29" fill="none" xmlns="http://www.w3.org/2000/svg">
<path d="M20.3818 2.57959H9.59774L8.70402 7.58309L18.4353 7.59484C23.2279 7.59484 24.6451 9.33755 24.6047 12.2307C24.5838 13.7129 23.9423 16.2183 23.6653 17.0305C22.9267 19.1957 21.4098 21.6664 15.7215 21.6566L6.26208 21.6527L5.36639 26.6582H16.1263C19.9216 26.6582 21.5369 26.2161 23.2448 25.4248C27.0342 23.6723 29.2891 19.9263 30.1919 15.0377C31.5374 7.75808 29.8621 2.57959 20.3818 2.57959Z" fill="white"/>
<path d="M53.7333 26.6702L54.4934 22.3196H63.7058C64.4294 22.3196 64.9365 21.8841 65.0447 21.1593C65.1895 20.4339 64.8277 19.9991 64.1041 19.9991H59.6993C56.2242 19.9991 54.5593 17.9691 55.1746 14.4882C55.79 11.0074 58.1792 8.97803 61.6537 8.97803H71.662L70.866 13.3286H62.0454C61.3212 13.3286 60.8147 13.7634 60.7058 14.4882C60.5611 15.2136 60.9229 15.6485 61.6471 15.6485H66.0519C69.5264 15.6485 71.1913 17.6791 70.5766 21.1593C69.9619 24.6395 67.6079 26.6702 64.1334 26.6702H53.7333Z" fill="white"/>
<path d="M39.7033 26.6692C33.9837 26.6692 31.4134 23.5507 32.427 17.8218C33.4048 12.0936 37.0971 8.9751 42.816 8.9751H52.9521L49.8387 26.6699L39.7033 26.6692ZM46.2912 13.3263H43.6837C40.5709 13.3263 38.7294 14.704 38.189 17.8218C37.6101 20.9403 38.7685 22.318 41.8812 22.318H44.7338L46.2912 13.3263Z" fill="white"/>
<path d="M84.2229 26.6693L86.0332 16.3717C86.3591 14.341 85.5365 13.4713 83.5091 13.4713H80.6265L78.3097 26.6693H72.4428L76.6846 2.57959H82.5515L81.4224 8.97843H85.8161C90.9562 8.97843 92.8023 11.2265 91.8975 16.375L90.0872 26.6725L84.2229 26.6693Z" fill="white"/>
<path d="M4.94438 12.1055C2.11979 12.1055 1.71497 13.9494 1.4477 15.0633C1.09764 16.5226 0.98291 17.1135 0.98291 17.1135H12.0244C14.849 17.1135 15.2538 15.2696 15.5211 14.1557C15.8712 12.6964 15.9859 12.1055 15.9859 12.1055H4.94438Z" fill="white"/>
</svg>
