<svg width="200" height="40" viewBox="0 0 200 40" fill="none" xmlns="http://www.w3.org/2000/svg">
<g clip-path="url(#clip0_1741_1403)">
<path d="M22.5755 20.5044C22.5755 15.31 24.9215 10.3516 28.8776 7.14053C21.7014 1.3322 11.3052 2.6072 5.647 10.0211C-0.0111547 17.3878 1.23088 28.06 8.45308 33.8683C14.4792 38.7322 22.8975 38.7322 28.9236 33.8683C24.9215 30.6572 22.5755 25.6989 22.5755 20.5044Z" fill="white"/>
<path d="M55.7727 21.0039C55.7727 30.4012 48.3665 38.0039 39.2123 38.0039C35.4862 38.0039 31.8981 36.7289 29 34.3678C36.1762 28.5595 37.4182 17.8873 31.7601 10.4734C30.9321 9.43449 30.012 8.44282 29 7.64004C36.1762 1.83171 46.6185 3.10671 52.2306 10.5206C54.5307 13.4956 55.7727 17.1789 55.7727 21.0039Z" fill="white"/>
<path d="M83.3597 28.5918V21.1628C83.3597 18.3578 81.5372 16.4878 78.6037 16.4538C77.0589 16.4368 75.462 16.8958 74.3511 18.5618C73.5179 17.2528 72.1987 16.4538 70.3588 16.4538C69.0743 16.4538 67.8072 16.8278 66.8178 18.2048V16.7598H64.1968V28.5918H66.8525V22.0298C66.8525 19.9728 68.0155 18.8848 69.8033 18.8848C71.5391 18.8848 72.4244 20.0068 72.4244 22.0128V28.5918H75.0801V22.0298C75.0801 19.9728 76.2951 18.8848 78.0309 18.8848C79.8188 18.8848 80.6866 20.0068 80.6866 22.0128V28.5918H83.3597ZM122.658 16.7598H118.353V13.1558H115.697V16.7598H113.25V19.1058H115.697V24.5118C115.697 27.2658 116.791 28.8978 119.898 28.8978C121.043 28.8978 122.345 28.5578 123.178 27.9798L122.415 25.7698C121.634 26.2118 120.766 26.4328 120.089 26.4328C118.77 26.4328 118.353 25.6338 118.353 24.4438V19.1058H122.658V16.7598ZM145.067 16.4538C143.556 16.4538 142.567 17.1508 141.873 18.1878V16.7598H139.269V28.5918H141.89V21.9618C141.89 20.0068 142.758 18.9188 144.476 18.9188C145.015 18.9188 145.57 18.9868 146.125 19.2078L146.941 16.7768C146.368 16.5558 145.605 16.4538 145.067 16.4538ZM111.167 17.6948C109.9 16.8788 108.164 16.4538 106.237 16.4538C103.182 16.4538 101.204 17.8818 101.204 20.2448C101.204 22.1828 102.662 23.3728 105.369 23.7298L106.602 23.8998C108.042 24.1038 108.719 24.4608 108.719 25.1408C108.719 26.0588 107.765 26.5688 105.96 26.5688C104.137 26.5688 102.818 25.9908 101.933 25.3278L100.7 27.3338C102.141 28.3708 103.963 28.8638 105.942 28.8638C109.431 28.8638 111.462 27.2488 111.462 25.0048C111.462 22.9308 109.865 21.8428 107.244 21.4688L106.012 21.2988C104.866 21.1458 103.963 20.9248 103.963 20.1428C103.963 19.2758 104.831 18.7488 106.272 18.7488C107.817 18.7488 109.31 19.3268 110.039 19.7688L111.167 17.6948ZM181.605 16.4538C180.095 16.4538 179.105 17.1508 178.411 18.1878V16.7598H175.807V28.5918H178.428V21.9618C178.428 20.0068 179.296 18.9188 181.014 18.9188C181.553 18.9188 182.108 18.9868 182.663 19.2078L183.479 16.7768C182.889 16.5558 182.143 16.4538 181.605 16.4538ZM147.722 22.6758C147.722 26.2628 150.274 28.8978 154.162 28.8978C155.985 28.8978 157.2 28.5068 158.519 27.4868L157.252 25.4128C156.262 26.1098 155.221 26.4838 154.093 26.4838C151.992 26.4668 150.447 24.9708 150.447 22.6928C150.447 20.4148 151.992 18.9358 154.093 18.9018C155.238 18.9018 156.262 19.2758 157.252 19.9728L158.519 17.8988C157.2 16.8788 155.985 16.4878 154.162 16.4878C150.291 16.4538 147.722 19.0888 147.722 22.6758ZM172.353 22.6758V16.7598H169.732V18.1878C168.899 17.1168 167.632 16.4538 165.913 16.4538C162.528 16.4538 159.873 19.0548 159.873 22.6758C159.873 26.2968 162.528 28.8978 165.913 28.8978C167.632 28.8978 168.899 28.2348 169.732 27.1638V28.5918H172.353V22.6758ZM162.563 22.6758C162.563 20.6018 163.952 18.8848 166.226 18.8848C168.395 18.8848 169.871 20.5168 169.871 22.6758C169.871 24.8348 168.413 26.4668 166.226 26.4668C163.952 26.4668 162.563 24.7498 162.563 22.6758ZM130.833 16.4538C127.292 16.4538 124.81 18.9868 124.81 22.6758C124.81 26.4328 127.396 28.8978 131.007 28.8978C132.829 28.8978 134.496 28.4558 135.954 27.2318L134.669 25.3278C133.663 26.1268 132.361 26.5688 131.163 26.5688C129.462 26.5688 127.934 25.8038 127.553 23.6788H136.527C136.544 23.3558 136.579 23.0328 136.579 22.6928C136.561 18.9868 134.235 16.4538 130.833 16.4538ZM130.799 18.7658C132.5 18.7658 133.576 19.8028 133.853 21.6388H127.587C127.865 19.9218 128.924 18.7658 130.799 18.7658ZM196.758 22.6758V11.9998H194.137V18.1878C193.304 17.1168 192.037 16.4538 190.318 16.4538C186.933 16.4538 184.278 19.0548 184.278 22.6758C184.278 26.2968 186.933 28.8978 190.318 28.8978C192.037 28.8978 193.304 28.2348 194.137 27.1638V28.5918H196.758V22.6758ZM186.968 22.6758C186.968 20.6018 188.357 18.8848 190.631 18.8848C192.8 18.8848 194.276 20.5168 194.276 22.6758C194.276 24.8348 192.818 26.4668 190.631 26.4668C188.357 26.4668 186.968 24.7498 186.968 22.6758ZM98.1833 22.6758V16.7598H95.5622V18.1878C94.7291 17.1168 93.462 16.4538 91.7435 16.4538C88.3588 16.4538 85.703 19.0548 85.703 22.6758C85.703 26.2968 88.3588 28.8978 91.7435 28.8978C93.462 28.8978 94.7291 28.2348 95.5622 27.1638V28.5918H98.1833V22.6758ZM88.3935 22.6758C88.3935 20.6018 89.7821 18.8848 92.056 18.8848C94.2257 18.8848 95.7011 20.5168 95.7011 22.6758C95.7011 24.8348 94.2431 26.4668 92.056 26.4668C89.7821 26.4668 88.3935 24.7498 88.3935 22.6758Z" fill="white"/>
</g>
<defs>
<clipPath id="clip0_1741_1403">
<rect width="196.562" height="34" fill="white" transform="translate(2.10547 3.5)"/>
</clipPath>
</defs>
</svg>
