<svg width="200" height="40" viewBox="0 0 200 40" fill="none" xmlns="http://www.w3.org/2000/svg">
<path d="M46.5099 1.37634C35.9576 1.37634 27.4329 9.91028 27.4329 20.4739C27.4329 22.5958 27.7554 24.6255 28.4005 26.5168H34.1144V10.4638L46.5099 22.8726L58.9054 10.4638V26.5168H64.6193C65.2644 24.6255 65.587 22.5958 65.587 20.4739C65.587 9.9564 57.0622 1.37634 46.5099 1.37634Z" fill="white"/>
<path d="M38.2615 30.4381V20.3357L46.5098 28.5929L54.758 20.3357V30.4381H62.822C59.4582 35.9275 53.4217 39.6178 46.5098 39.6178C39.5978 39.6178 33.5613 35.9275 30.1975 30.4381H38.2615ZM105.722 16.138C107.335 17.7525 108.165 19.7822 108.165 22.0886C108.165 24.3951 107.381 26.3787 105.768 27.9932C104.156 29.6077 102.22 30.3919 99.9623 30.3919C97.5662 30.3919 95.5848 29.5616 94.018 27.9009C92.4513 26.2403 91.6219 24.3029 91.6219 21.9964C91.6219 20.4741 91.9905 19.0902 92.7278 17.7986C93.4651 16.507 94.4788 15.4921 95.7691 14.7541C97.0593 14.016 98.4417 13.647 99.9163 13.647C102.128 13.6931 104.11 14.5234 105.722 16.138ZM170.372 16.138C171.985 17.7525 172.815 19.7822 172.815 22.0886C172.815 24.3951 172.031 26.3787 170.418 27.9932C168.806 29.6077 166.87 30.3919 164.612 30.3919C162.216 30.3919 160.235 29.5616 158.668 27.9009C157.101 26.2403 156.272 24.3029 156.272 21.9964C156.272 20.4741 156.641 19.0902 157.378 17.7986C158.115 16.507 159.129 15.4921 160.419 14.7541C161.709 14.016 163.092 13.647 164.566 13.647C166.824 13.6931 168.759 14.5234 170.372 16.138ZM147.563 13.6931C149.406 13.6931 150.742 13.8776 151.526 14.2005C152.309 14.5234 152.954 15.077 153.415 15.8612C153.876 16.6454 154.106 17.5218 154.106 18.5828C154.106 19.6899 153.83 20.6125 153.323 21.3506C152.816 22.0886 151.986 22.6422 150.927 23.0112L154.889 30.4381H151.387L147.609 23.3341H144.844V30.4381H141.665V13.6931H147.563ZM138.301 16.7838H130.605V20.1973H138.301V23.2419H130.605V27.3013H138.301V30.4381H127.472V13.6931H138.301V16.7838ZM90.4238 30.4381H87.3365L85.5394 19.8744L81.9912 30.4381H79.1803L75.6783 19.8744L73.8351 30.4381H70.7477L73.6508 13.6931H76.7842L80.6549 25.3638L84.5717 13.6931H87.659L90.4238 30.4381ZM110.653 13.6931H113.694L120.883 24.718V13.6931H124.062V30.4381H121.021L113.832 19.4593V30.4381H110.653V13.6931ZM103.603 25.9174C104.616 24.8564 105.123 23.6109 105.123 22.0886C105.123 20.5664 104.616 19.2748 103.603 18.2138C102.589 17.1528 101.345 16.6454 99.8702 16.6454C98.3956 16.6454 97.1515 17.1528 96.1377 18.1677C95.124 19.1825 94.6171 20.5202 94.6171 22.0886C94.6171 23.8416 95.2622 25.2716 96.5064 26.2864C97.474 27.0706 98.626 27.4858 99.8702 27.4858C101.345 27.4858 102.589 26.9784 103.603 25.9174ZM168.253 25.9174C169.266 24.8564 169.773 23.6109 169.773 22.0886C169.773 20.5664 169.266 19.2748 168.253 18.2138C167.239 17.1528 165.995 16.6454 164.52 16.6454C163.046 16.6454 161.801 17.1528 160.788 18.1677C159.774 19.1825 159.267 20.5202 159.267 22.0886C159.267 23.8416 159.912 25.2716 161.156 26.2864C162.124 27.0706 163.276 27.4858 164.52 27.4858C166.041 27.4858 167.239 26.9784 168.253 25.9174ZM150.466 19.8283C150.834 19.5515 151.019 19.1364 151.019 18.4906C151.019 18.1215 150.927 17.7986 150.742 17.5218C150.558 17.2451 150.281 17.0605 150.005 16.9222C149.682 16.7838 149.544 16.7376 148.761 16.7376H144.89V20.1512H148.899C149.913 20.2435 150.097 20.1051 150.466 19.8283Z" fill="white"/>
</svg>
