<svg width="1440" height="646" viewBox="0 0 1440 646" fill="none" xmlns="http://www.w3.org/2000/svg">
<g clip-path="url(#clip0_1916_11)">
<path d="M-95.4198 341.582C5.89301 443.525 5.70203 608.298 -96 710C5.70203 608.298 170.476 608.103 272.42 709.418C171.107 607.476 171.298 442.702 273 341C171.298 442.702 6.52362 442.898 -95.4198 341.582Z" fill="url(#paint0_linear_1916_11)"/>
</g>
<g clip-path="url(#clip1_1916_11)">
<path d="M1487.71 159.71C1437.19 108.876 1437.29 26.7132 1488 -24C1437.29 26.7132 1355.12 26.8102 1304.29 -23.7098C1354.81 27.1229 1354.71 109.287 1304 160C1354.71 109.287 1436.88 109.189 1487.71 159.71Z" fill="url(#paint1_linear_1916_11)"/>
</g>
<defs>
<linearGradient id="paint0_linear_1916_11" x1="-96" y1="710" x2="273" y2="341" gradientUnits="userSpaceOnUse">
<stop stop-color="white" stop-opacity="0"/>
<stop offset="1" stop-color="white" stop-opacity="0.03"/>
</linearGradient>
<linearGradient id="paint1_linear_1916_11" x1="1488" y1="-24" x2="1304" y2="160" gradientUnits="userSpaceOnUse">
<stop stop-color="white" stop-opacity="0"/>
<stop offset="1" stop-color="white" stop-opacity="0.04"/>
</linearGradient>
<clipPath id="clip0_1916_11">
<rect width="369" height="369" fill="white" transform="matrix(-1 0 0 1 273 341)"/>
</clipPath>
<clipPath id="clip1_1916_11">
<rect width="184" height="184" fill="white" transform="matrix(1 0 0 -1 1304 160)"/>
</clipPath>
</defs>
</svg>
