<svg width="200" height="40" viewBox="0 0 200 40" fill="none" xmlns="http://www.w3.org/2000/svg">
<g clip-path="url(#clip0_1741_1398)">
<path fill-rule="evenodd" clip-rule="evenodd" d="M25.1749 2.24011H50.8049C51.4282 2.24011 51.9782 2.57011 52.2716 3.08345L59.7516 16.0634C60.1549 16.7234 60.0082 17.6034 59.4582 18.1168L38.9249 38.4301C38.2649 39.0901 37.2016 39.0901 36.5416 38.4301L16.0449 18.1168C15.4949 17.5668 15.3849 16.6868 15.7882 15.9901L23.7816 2.97345C24.0382 2.53345 24.5882 2.24011 25.1749 2.24011ZM47.4682 8.03345V11.6634H40.1716V14.1934C45.3049 14.4501 49.1549 15.5868 49.1549 16.9068V19.6934C49.1182 21.0134 45.2682 22.1134 40.1716 22.4068V28.6035H35.3316V22.4068C30.1982 22.1501 26.3482 21.0134 26.3482 19.6934V16.9068C26.3849 15.5868 30.2349 14.4868 35.3316 14.1934V11.6634H28.0349V8.03345H47.4682ZM37.7516 20.5001C43.2149 20.5001 47.7982 19.5468 48.8982 18.3001C47.9449 17.2368 44.5349 16.3934 40.1716 16.1734V18.8134C39.4016 18.8501 38.5949 18.8868 37.7516 18.8868C36.9082 18.8868 36.1016 18.8501 35.3316 18.8134V16.1734C30.9682 16.3934 27.5582 17.2368 26.6049 18.3001C27.7416 19.5468 32.2882 20.5001 37.7516 20.5001Z" fill="white"/>
<path d="M69.7247 9.28023L75.628 8.62024V14.3769H80.7613V19.3636H75.5913V27.1002C75.5913 28.9336 76.3614 29.8502 77.9014 29.8502C78.8914 29.8502 79.698 29.6669 80.358 29.3369L81.7147 34.3236C80.358 34.8369 78.928 35.1669 77.4247 35.2402C75.0413 35.3502 73.1347 34.7636 71.7413 33.5169C70.3847 32.2336 69.688 30.0702 69.688 27.0636V19.3269H66.1313V14.3402H69.7613V9.28023H69.7247Z" fill="white"/>
<path d="M102.945 26.5133H88.0216C88.1683 27.5767 88.755 28.4567 89.7083 29.1533C90.6616 29.8133 91.945 30.1433 93.5216 30.1433C95.795 30.1433 97.555 29.5933 98.8016 28.53L102.138 32.27C100.122 34.2867 97.1883 35.3133 93.4116 35.3133C89.7816 35.3133 86.995 34.3233 84.9783 32.3433C82.9983 30.3633 82.0083 27.6867 82.0083 24.35C82.0083 21.1967 82.9983 18.63 84.9416 16.6867C86.885 14.7067 89.4883 13.7167 92.7883 13.7167C96.3816 13.7167 99.1316 14.8167 101.002 17.0533C102.945 19.2533 103.605 22.4067 102.945 26.5133ZM88.0216 22.1133H97.665C97.6283 21.05 97.115 20.2433 96.1983 19.6933C95.2816 19.1067 94.145 18.8133 92.825 18.8133C91.6516 18.8133 90.625 19.1067 89.7816 19.6933C88.9016 20.28 88.315 21.0867 88.0216 22.1133Z" fill="white"/>
<path d="M107.895 9.28023L113.798 8.62024V14.3769H118.931V19.3636H113.761V27.1002C113.761 28.9336 114.531 29.8502 116.071 29.8502C117.061 29.8502 117.868 29.6669 118.528 29.3369L119.885 34.3236C118.528 34.8369 117.135 35.1669 115.595 35.2402C113.211 35.3502 111.305 34.7636 109.911 33.5169C108.555 32.2336 107.858 30.0702 107.858 27.0636V19.3269H104.265V14.3402H107.895V9.28023Z" fill="white"/>
<path d="M122.121 5.65015H128.098V16.7601C129.565 14.8535 131.618 13.9001 134.258 13.9001C139.648 13.9001 142.361 17.2001 142.361 23.7635V34.8001H136.458V23.8001C136.458 22.3701 136.091 21.2701 135.395 20.5001C134.698 19.7301 133.781 19.3268 132.608 19.3268C131.325 19.3268 130.225 19.7668 129.345 20.6468C128.501 21.5268 128.061 22.7735 128.061 24.3501V34.7635H122.158V5.65015H122.121Z" fill="white"/>
<path d="M165.571 26.5134H150.648C150.795 27.5767 151.381 28.4567 152.335 29.1534C153.288 29.8134 154.571 30.1434 156.148 30.1434C158.421 30.1434 160.181 29.5934 161.428 28.5301L164.765 32.2334C162.748 34.2501 159.815 35.2767 156.038 35.2767C152.408 35.2767 149.621 34.2867 147.605 32.3067C145.625 30.3267 144.635 27.6501 144.635 24.3134C144.635 21.1601 145.625 18.5934 147.568 16.6501C149.511 14.6701 152.115 13.6801 155.415 13.6801C159.008 13.6801 161.758 14.7801 163.628 17.0167C165.571 19.2534 166.195 22.4067 165.571 26.5134ZM150.648 22.1134H160.255C160.218 21.0501 159.705 20.2434 158.788 19.6934C157.871 19.1067 156.735 18.8134 155.415 18.8134C154.241 18.8134 153.215 19.1067 152.371 19.6934C151.528 20.2801 150.941 21.0867 150.648 22.1134Z" fill="white"/>
<path d="M168.028 14.3033H173.528L173.968 16.5399C175.251 14.7066 177.048 13.7899 179.395 13.7899C181.301 13.7899 182.988 14.4133 184.381 15.6599L181.925 20.4266C180.971 19.7299 179.871 19.3999 178.661 19.3999C177.305 19.3999 176.205 19.8399 175.288 20.6833C174.371 21.5266 173.931 22.6632 173.931 24.1299V34.8366H168.028V14.3033Z" fill="white"/>
</g>
<defs>
<clipPath id="clip0_1741_1398">
<rect width="170" height="37.5" fill="white" transform="translate(14.8645 1.75)"/>
</clipPath>
</defs>
</svg>
