<svg width="200" height="40" viewBox="0 0 200 40" fill="none" xmlns="http://www.w3.org/2000/svg">
<g clip-path="url(#clip0_1741_1393)">
<path d="M43.3585 33.2932C42.7158 34.5814 41.8025 35.5644 40.8216 36.2085C39.7392 36.8525 38.2847 37.2254 36.3567 37.2254C33.8198 37.2254 31.8917 36.4797 30.4373 35.022C28.9828 33.5644 28.3401 31.4627 28.3401 28.8187V15.7678H31.9932V28.2424C31.9932 30.1407 32.4329 31.6322 33.4477 32.6153C34.361 33.5305 35.714 34.0729 37.5406 34.0729C39.6377 34.0729 41.1937 33.4288 42.2761 32.2424C43.3585 30.9542 43.8997 29.1576 43.8997 26.6831V15.7678H47.5528V36.6492H43.8997V33.2593C43.8997 33.2932 43.3585 33.2932 43.3585 33.2932ZM98.6628 33.2932C98.0202 34.5814 97.1069 35.5644 96.1259 36.2085C95.0435 36.8525 93.5891 37.2254 91.661 37.2254C89.1241 37.2254 87.1961 36.4797 85.7416 35.022C84.2871 33.5644 83.6444 31.4627 83.6444 28.8187V15.7678H87.2975V28.2424C87.2975 30.1407 87.7373 31.6322 88.752 32.6153C89.7668 33.5983 91.1198 34.0729 92.9464 34.0729C95.0435 34.0729 96.5995 33.4288 97.6819 32.2424C98.7643 30.9542 99.3055 29.1576 99.3055 26.6831V15.7678H102.959V36.6492H99.3055V33.2593C99.3055 33.2932 98.6628 33.2932 98.6628 33.2932ZM73.463 19.0559C74.2072 16.8526 75.9323 15.7678 78.6383 15.7678H80.3634V19.4288H78.0971C76.2705 19.4288 75.019 19.8695 74.1057 20.717C73.1924 21.5305 72.7527 22.9881 72.7527 24.9204V36.7848H69.0995V15.7678H72.7527V18.9543H73.4968V19.0559H73.463ZM121.495 16.039C122.848 16.5814 123.964 17.4966 124.776 18.5814C125.588 19.6661 126.061 20.9543 126.061 22.4119H122.239C122.07 19.7678 120.142 18.4119 116.59 18.4119C115.034 18.4119 113.85 18.6831 113.039 19.3271C112.227 19.8695 111.753 20.6831 111.753 21.5983C111.753 22.4119 112.024 22.9543 112.565 23.2254C113.106 23.5983 114.121 23.8695 115.474 24.2424L119.296 25.0559C121.393 25.4966 122.949 26.0729 124.032 26.8865C125.114 27.7 125.655 28.9881 125.655 30.717C125.655 32.0051 125.283 33.1915 124.573 34.1746C123.863 35.1576 122.746 36.0051 121.393 36.5475C120.04 37.0898 118.484 37.361 116.759 37.361C113.58 37.361 111.111 36.6153 109.385 35.1576C107.66 33.7 106.578 31.8695 106.307 29.4966H110.13C110.671 32.5814 112.869 34.1407 116.861 34.1407C118.586 34.1407 119.939 33.8695 120.852 33.2254C121.766 32.5814 122.205 31.8695 122.205 30.9542C122.205 30.4119 122.036 29.9373 121.766 29.5983C121.495 29.3271 121.021 29.0559 120.48 28.8526C119.939 28.6831 119.026 28.4797 117.74 28.2085L113.918 27.3949C112.091 27.022 110.637 26.378 109.656 25.4966C108.641 24.5814 108.1 23.2932 108.1 21.6661C108.1 19.6661 108.912 18.1068 110.468 16.9204C112.091 15.7339 114.121 15.1915 116.658 15.1915C118.586 15.2254 120.142 15.4966 121.495 16.039ZM59.3579 33.4627H65.3788V36.6492H62.5713C60.305 36.6492 58.5799 36.1068 57.4637 35.022C56.3812 33.9373 55.84 32.2085 55.84 29.9034V19.0559H51.003V15.8695H55.7386V10.2085H59.3917V15.8695H64.8376V19.0559H59.3917V33.4627H59.3579ZM136.581 33.4627H142.602V36.6492H139.794C137.528 36.6492 135.803 36.1068 134.687 35.022C133.571 33.9373 133.063 32.2085 133.063 29.9034V19.0559H128.226V15.8695H133.063V10.2085H136.716V15.8695H142.094V19.0559H136.716V33.4627H136.581Z" fill="white"/>
<path d="M167.599 8.30997V24.0049H152.58V8.30997H167.599V3.56421H158.398L147.946 11.6659V16.8523C147.946 23.6998 153.494 29.4286 160.394 29.3269C167.024 29.2252 172.402 23.7676 172.402 17.1235V8.30997H167.599Z" fill="white"/>
</g>
<defs>
<clipPath id="clip0_1741_1393">
<rect width="145.132" height="34.75" fill="white" transform="translate(27.491 3.125)"/>
</clipPath>
</defs>
</svg>
